<svg xmlns="http://www.w3.org/2000/svg" width="512" height="512" style="shape-rendering:geometricPrecision;text-rendering:geometricPrecision;image-rendering:optimizeQuality;fill-rule:evenodd;clip-rule:evenodd"><path fill="#f6a96c" d="M320.5 5.5a8 8 0 0 0-2.5 9c4.8 15.3 9.3 30.6 13.5 46h-33l-13.5-45c-1-3.5-.5-6.7 1.5-9.5 11.3-.5 22.7-.7 34-.5Z" style="opacity:.999"/><path fill="#febd86" d="M320.5 5.5c22.7-.2 45.3 0 68 .5a9 9 0 0 1 3 5.5l-14 49c-22.6 1-45.3 1.3-68 1-3.9.3-7.5 0-11-1h33c-4.2-15.4-8.7-30.7-13.5-46a8 8 0 0 1 2.5-9Z" style="opacity:.99"/><path fill="#99e6fc" d="M377.5 60.5c20.6-2 29 7 25.5 27a21.2 21.2 0 0 1-23.5 9h-45a37 37 0 0 1-18.5-15l-8-12c-.9-3-.4-5.7 1.5-8 22.7.3 45.4 0 68-1Z" style="opacity:.99"/><path fill="#63dbfb" d="M298.5 60.5c3.5 1 7.1 1.3 11 1a8.3 8.3 0 0 0-1.5 8l8 12a37 37 0 0 0 18.5 15h-37a32.7 32.7 0 0 1-32.5-10c-4.8-6.3-9-13-12.5-20a6.1 6.1 0 0 1 4-5.5c14-.5 28-.7 42-.5Z" style="opacity:1"/><path fill="#99e6fb" d="M297.5 96.5h33c.2 53.3 0 106.7-.5 160-2.8 10-9 17-18.5 21-48.1-3.8-84.4 14.9-109 56v-43c22.3-21.7 49-35.2 80-40.5 7.6-4.4 12.5-11 14.5-19.5.5-44.7.7-89.3.5-134Z" style="opacity:1"/><path fill="#c8eefd" d="M330.5 96.5h49v114c-.3 8 .2 16 1.5 24 2.8 7.8 8 13.3 15.5 16.5 13.8 3 27 7.1 40 12.5-.1.9.2 1.5 1 2 7.8 4 15.2 9 22 14.5 1 .5 2 .6 3 .5 27 23.7 43.4 53.4 49 89v32c-8.7 49.8-37 83-85 99.5-6.6 1.8-13.2 3.2-20 4-46 .7-92 .7-138 0a131.6 131.6 0 0 1-39-11.5 86 86 0 0 0 16-22 77.6 77.6 0 0 0 24 7.5c18.3.5 36.7.7 55 .5 26 .2 52 0 78-.5 41.3-6.3 68.2-29.5 80.5-69.5 8.1-46-6-83.5-42.5-112.5a117 117 0 0 0-44-18.5c-28.2-1-56.5-1.3-85-1 9.5-4 15.7-11 18.5-21 .5-53.3.7-106.7.5-160Z" style="opacity:.993"/><path fill="#62dbfb" d="M462.5 280.5c-1 .1-2 0-3-.5a128.1 128.1 0 0 0-22-14.5c-.8-.5-1.1-1.1-1-2a40.6 40.6 0 0 0 4.5-47 39.4 39.4 0 0 0-46.5-15.5 86.5 86.5 0 0 0-15 9.5v-36c32.5-12.6 60.3-6 83.5 20 19.5 28.8 19.3 57.5-.5 86Z" style="opacity:.981"/><path fill="#02905d" d="M178.5 207.5c.8 2 1 4 .5 6a244 244 0 0 0-21.5 106c0 14.4 1.2 28.8 3.5 43 .2-27.5.7-54.8 1.5-82v102l-10 4-14-23c-7.1-48.6-2.3-96 14.5-142a148 148 0 0 1 13-25c1.7-1.8 3.5-2.1 5.5-1 3.2 3.5 5.5 7.5 7 12Z" style="opacity:1"/><path fill="#0aa66c" d="M178.5 207.5c8.8 15.5 15 32.2 18.5 50 2 11.1 4 22.1 5.5 33v43c-1 16.1-3 32.1-6 48-6.6-.7-13.3-1-20-1 .2-34 0-68-.5-102-5.6-5.8-10.1-5.2-13.5 2a3346 3346 0 0 0-1.5 82 282.2 282.2 0 0 1-3.5-43 244 244 0 0 1 21.5-106c.5-2 .3-4-.5-6Z" style="opacity:.994"/><path fill="#02905d" d="M22.5 274.5a205 205 0 0 0 32 58c-.1 1 0 2 .5 3 17 16.9 33.9 33.9 50.5 51-4-.2-8 0-12 .5a224 224 0 0 0-20 4.5 252 252 0 0 1-74-113v-8c2.2-1 4.6-1.2 7-.5 5.4 1.2 10.8 2.7 16 4.5Z" style="opacity:1"/><path fill="#09a66c" d="M22.5 274.5a234 234 0 0 1 64 36.5c18.9 16 36.2 33.6 52 52.5l14 23a90 90 0 0 0-14 11l-4-3c-22.5-23-45.1-45.8-68-68.5-7-3.2-11-1-12 6.5a205 205 0 0 1-32-58Z" style="opacity:.986"/><path fill="#026841" d="M176.5 380.5c-4.8-.1-9.5.5-14 2v-102c3.4-7.2 7.9-7.8 13.5-2 .5 34 .7 68 .5 102Z" style="opacity:1"/><path fill="#e7b805" d="M311.5 277.5c28.5-.3 56.8 0 85 1-22.7-.2-45.3 0-68 .5-48.3 14-76.5 45.8-84.5 95.5-1.5 57 25.3 92 80.5 105-18.3.2-36.7 0-55-.5a77.6 77.6 0 0 1-24-7.5c8.9-33.5-.8-60.4-29-80.5-6.4-3.7-13-6.5-20-8.5v-1c3-15.9 5-31.9 6-48 24.6-41.1 60.9-59.8 109-56Z" style="opacity:1"/><path fill="#f9c600" d="M396.5 278.5a117 117 0 0 1 44 18.5c36.4 29 50.6 66.5 42.5 112.5-12.3 40-39.2 63.2-80.5 69.5-26 .5-52 .7-78 .5-55.2-13-82-48-80.5-105 8-49.7 36.2-81.5 84.5-95.5 22.7-.5 45.3-.7 68-.5Z" style="opacity:1"/><path fill="#026941" d="M134.5 394.5a95 95 0 0 0-29-8 3634.3 3634.3 0 0 0-50.5-51 5 5 0 0 1-.5-3c1-7.5 5-9.7 12-6.5 22.9 22.7 45.5 45.5 68 68.5Z" style="opacity:1"/><path fill="#81b823" d="M176.5 380.5c6.7 0 13.4.3 20 1v1a50 50 0 0 0-29 19.5 13 13 0 0 0-5 1.5c-5.6 4-10.7 8.7-15.5 14-1 5 .8 8.3 5.5 10 1 1 2.4 1.3 4 1-.7 37.6 16.6 62.6 52 75a66.8 66.8 0 0 1-60-14 152.5 152.5 0 0 1-15.5-20 66.7 66.7 0 0 1-1-63 83 83 0 0 0 6.5-9 90 90 0 0 1 14-11l10-4c4.5-1.5 9.2-2.1 14-2Z" style="opacity:1"/><path fill="#8bc627" d="M196.5 382.5c7 2 13.6 4.8 20 8.5 28.2 20.1 37.9 47 29 80.5a86 86 0 0 1-16 22 46.3 46.3 0 0 1-21 10c-35.4-12.4-52.7-37.4-52-75-1.6.3-3 0-4-1 2.5.2 4.8-.3 7-1.5 4.2-3.9 8-8 11.5-12.5 1.6-7.1-1.2-10.5-8.5-10a13 13 0 0 1 5-1.5 50 50 0 0 1 29-19.5Z" style="opacity:.999"/><path fill="#81b823" d="M105.5 386.5c3.8.4 7.5 1.1 11 2a63.8 63.8 0 0 0-47 46c-5.3-4.4-9.8-3.8-13.5 2-.7 6.3-.7 12.7 0 19 3.1 5.4 7.3 6.4 12.5 3a79.4 79.4 0 0 0 20 30.5c9 6.8 18.6 12 29 15.5a72.7 72.7 0 0 1-69.5-23c-17-24.2-16.6-48.2 1-72 7-7.8 15.1-13.8 24.5-18a224 224 0 0 1 20-4.5c4-.5 8-.7 12-.5Z" style="opacity:1"/><path fill="#8ac627" d="M116.5 388.5a95 95 0 0 1 18 6l4 3a83 83 0 0 1-6.5 9 66.7 66.7 0 0 0 1 63c4.6 7.1 9.8 13.8 15.5 20a95.6 95.6 0 0 1-31 15c-10.4-3.5-20-8.7-29-15.5a79.4 79.4 0 0 1-20-30.5 49.8 49.8 0 0 0 1-24 63.8 63.8 0 0 1 47-46Z" style="opacity:.999"/><path fill="#baeb6a" d="M162.5 403.5c7.3-.5 10.1 2.9 8.5 10-3.5 4.5-7.3 8.6-11.5 12.5a12.1 12.1 0 0 1-7 1.5c-4.7-1.7-6.5-5-5.5-10 4.8-5.3 10-10 15.5-14Z" style="opacity:1"/><path fill="#b9eb6a" d="M69.5 434.5a49.8 49.8 0 0 1-1 24c-5.2 3.4-9.4 2.4-12.5-3-.7-6.3-.7-12.7 0-19 3.7-5.8 8.2-6.4 13.5-2Z" style="opacity:1"/></svg>