<svg xmlns="http://www.w3.org/2000/svg" width="512" height="512" style="shape-rendering:geometricPrecision;text-rendering:geometricPrecision;image-rendering:optimizeQuality;fill-rule:evenodd;clip-rule:evenodd"><path fill="#ffa585" d="M319.5 9.5c18.5 1.6 25 11.3 19.5 29-7.3 9.4-16.5 11.6-27.5 6.5-8.4-7.4-10.2-16.2-5.5-26.5 3.5-4.7 8-7.7 13.5-9Z" style="opacity:.961"/><path fill="#d58b9c" d="M176.5 24.5c24.8 5.6 46 17.6 63.5 36a66.1 66.1 0 0 1 4 77 113.9 113.9 0 0 1-70.5 35.5c-35.4 5.4-68.7-.4-100-17.5a120 120 0 0 1-51-55c-1.6-3.5-2-7.2-1.5-11 2.5-3.5 5.6-4.5 9.5-3a105.3 105.3 0 0 0 50 58.5 143.2 143.2 0 0 0 125 6 64 64 0 0 0 20-13.5 36.1 36.1 0 0 0 15.5-24c3.4-21.1-2.8-39-18.5-53.5a101.4 101.4 0 0 0-32-17.5 140 140 0 0 0-79-8.5A62.4 62.4 0 0 0 75 55.5c-8 9.7-6.8 18.2 3.5 25.5a155.7 155.7 0 0 0 103 26c9.8-2.7 11.7-8.2 5.5-16.5A84.2 84.2 0 0 0 127.5 69c-4-3.6-4-7.3 0-11 27.6-2 51.1 6.9 70.5 26.5 8.3 11.3 7.1 21.4-3.5 30.5-4.5 2.3-9.1 4-14 5-35.1 2.3-68.1-5-99-22-9.5-5.5-17-13-22.5-22.5a26.5 26.5 0 0 1 3.5-24 69.4 69.4 0 0 1 49-30.5c22-3.6 43.7-2.5 65 3.5Z" style="opacity:.998"/><path fill="#fedbb5" d="M190.5 42.5c27.3 25.8 39 57.5 35 95a64 64 0 0 1-20 13.5 143.2 143.2 0 0 1-125-6 105.3 105.3 0 0 1-50-58.5 100.6 100.6 0 0 1 32-35c-5 7.4-6.2 15.4-3.5 24 5.5 9.5 13 17 22.5 22.5 30.9 17 63.9 24.3 99 22 4.9-1 9.5-2.7 14-5 10.6-9 11.8-19.2 3.5-30.5A86.3 86.3 0 0 0 127.5 58c-4 3.7-4 7.4 0 11A84.2 84.2 0 0 1 187 90.5c6.2 8.3 4.3 13.8-5.5 16.5a155.7 155.7 0 0 1-103-26C68.2 73.7 67.1 65.2 75 55.5A62.4 62.4 0 0 1 111.5 34a140 140 0 0 1 79 8.5Z" style="opacity:.999"/><path fill="#eea4b5" d="M190.5 42.5c11.7 3.9 22.4 9.7 32 17.5a56.6 56.6 0 0 1 18.5 53.5 36.1 36.1 0 0 1-15.5 24c4-37.5-7.7-69.2-35-95Z" style="opacity:1"/><path fill="#eea4b5" d="M176.5 24.5c45.9 9.7 79 35.7 99.5 78 3.2 7.7 6 15.3 8.5 23l-11 12c-3.8-2.9-7.3-2.6-10.5 1-.7 3.5-.2 6.9 1.5 10a130.8 130.8 0 0 0-28 67 21.6 21.6 0 0 1-4 5 340 340 0 0 1-177-26.5c-13.8-6.5-26-15.3-36.5-26.5a37.7 37.7 0 0 1-8-32c1.2-6.9 3-13.5 5.5-20a45.9 45.9 0 0 0 20 23.5c11.6 7.1 24 12.6 37 16.5 31.3 17 64.6 23 100 17.5a113.9 113.9 0 0 0 70.5-35.5 66.1 66.1 0 0 0-4-77 124.2 124.2 0 0 0-63.5-36Z" style="opacity:.992"/><path fill="#b3596b" d="M400.5 94.5c5 12.9 9.7 25.9 14 39 17.6-2.6 35.2-3.4 53-2.5 3.7 1.7 4.9 4.5 3.5 8.5-.8 1.5-2 2.7-3.5 3.5-15.7 0-31.4.9-47 2.5.6 3.5 1.6 6.8 3 10 3.8 10.2 7.8 20.2 12 30 0 2.3.8 4.3 2.5 6 22.6-4.5 45.4-6.8 68.5-7a6 6 0 0 1 5 2v8l-3 2c-22 1-44 3-66 6 6.1 17.8 12.4 35.5 19 53-1.4 4.4-4.4 6-9 5a10.3 10.3 0 0 1-4.5-6c-5.8-15.7-11.8-31.4-18-47a7.6 7.6 0 0 0-7.5 0 428.4 428.4 0 0 0-45 12 65 65 0 0 0 7 19c5.3 15.5 11 30.8 17 46 .6 7.5-2.7 10-10 7.5a7 7 0 0 1-2-2.5 603.7 603.7 0 0 0-17-45c-2-7-4.7-13.6-8-20a413.5 413.5 0 0 0-49 23.5c2.2 4.3 3.8 8.8 5 13.5 5.6 13.6 11 27.2 16 41-1.3 5.2-4.7 7-10 5.5-1.2-1-2.2-2.2-3-3.5a711 711 0 0 0-15-40c-1-3.9-2.5-7.6-4.5-11-7.5 4.3-14.7 9-21.5 14-6.3 3.6-12.3 7.6-18 12l-8-4a7 7 0 0 0-2-4l6-5a980 980 0 0 1 36-22.5c1.5-.7 2.5-2 3-3.5-5.2-15-11-29.6-17.5-44a280 280 0 0 0-37.5 29.5c-3 1.7-6 1.9-9 .5a8.9 8.9 0 0 1-3-6c1.6-1.4 2.9-3.1 4-5 13-11 26.5-21.3 40.5-31a263.2 263.2 0 0 0-12.5-36 14.6 14.6 0 0 1-1.5-10c3.2-3.6 6.7-3.9 10.5-1 5.3 13.3 10.4 26.6 15.5 40 15.2-9.2 31-17.2 47.5-24 .9-2 .7-4-.5-6-5.4-14.7-11.2-29-17.5-43-.5-7.3 2.8-10.2 10-8.5.9 1 1.9 1.9 3 2.5 0 2.7.6 5 2 7 5 14.6 10.7 29 17 43a499 499 0 0 1 52-14c-.8-2.4-1.8-4.8-3-7-4.2-11.8-8.5-23.5-13-35 2.1-4.8 5.8-6.3 11-4.5 1.7 1.8 2.7 4 3 6.5Z" style="opacity:.999"/><path fill="#c6758c" d="M386.5 92.5c4.5 11.5 8.8 23.2 13 35a115.5 115.5 0 0 0-66-22c-1.4-2-2-4.3-2-7 18-5.2 36.3-7.2 55-6Z" style="opacity:.985"/><path fill="#c6748c" d="M400.5 94.5c48.5 9.7 83 37 103.5 82a38 38 0 0 1 2.5 8c-23.1.2-46 2.5-68.5 7a8.2 8.2 0 0 1-2.5-6c-1.5-11-5.5-21-12-30a43.3 43.3 0 0 1-3-10c15.6-1.6 31.3-2.5 47-2.5 1.5-.8 2.7-2 3.5-3.5 1.4-4 .2-6.8-3.5-8.5-17.8-1-35.4-.1-53 2.5-4.3-13.1-9-26.1-14-39Z" style="opacity:.99"/><path fill="#fedab5" d="M22.5 100.5a120 120 0 0 0 51 55c-13-3.9-25.4-9.4-37-16.5a45.9 45.9 0 0 1-20-23.5 103 103 0 0 1 6-15Z" style="opacity:.991"/><path fill="#d39b8c" d="M333.5 105.5c24.4.6 46.4 8 66 22 1.2 2.2 2.2 4.6 3 7a499 499 0 0 0-52 14c-6.3-14-12-28.4-17-43Z" style="opacity:1"/><path fill="#d39b8c" d="M318.5 104.5c6.3 14 12.1 28.3 17.5 43 1.2 2 1.4 4 .5 6a352.4 352.4 0 0 0-47.5 24c-5-13.4-10.2-26.7-15.5-40l11-12c10-9 21.3-16 34-21Z" style="opacity:.997"/><path fill="#d39b8c" d="M401.5 147.5c2.6-.4 4.7.3 6.5 2 6 14.8 11.6 29.8 16.5 45-17.4 3-34.4 7.7-51 14-6.9-15.3-13.2-31-19-47 4-2.5 8.3-4.3 13-5.5a633 633 0 0 0 34-8.5Z" style="opacity:1"/><path fill="#d39b8d" d="M264.5 148.5c5 11.8 9.2 23.8 12.5 36-14 9.7-27.5 20-40.5 31 3-25.1 12.4-47.5 28-67Z" style="opacity:1"/><path fill="#d1948a" d="M423.5 155.5c6.5 9 10.5 19 12 30-4.2-9.8-8.2-19.8-12-30Z" style="opacity:1"/><path fill="#d39b8c" d="M339.5 165.5c2.4-.4 4 .6 4.5 3 5.8 15 11.3 30 16.5 45-16.9 6-33.2 13.3-49 22-6.1-15.1-12.1-30.3-18-45.5 3-2.8 6.3-5.1 10-7 12-6.2 24-12 36-17.5Z" style="opacity:1"/><path fill="#d39b8c" d="M260.5 266.5a42 42 0 0 1-23-10c-1.7-10-2.3-20-2-30 3 1.4 6 1.2 9-.5a280 280 0 0 1 37.5-29.5c6.5 14.4 12.3 29 17.5 44a5.7 5.7 0 0 1-3 3.5 980 980 0 0 0-36 22.5Z" style="opacity:.998"/><path fill="#c6748c" d="M508.5 196.5a46.8 46.8 0 0 1-12.5 30c-10.5 11-22 20.7-34.5 29-6.6-17.5-12.9-35.2-19-53 22-3 44-5 66-6Z" style="opacity:.99"/><path fill="#c6748c" d="M422.5 207.5a7.6 7.6 0 0 1 7.5 0c6.2 15.6 12.2 31.3 18 47 .8 2.6 2.3 4.6 4.5 6a356 356 0 0 1-51 24c-6-15.2-11.7-30.5-17-46a185.3 185.3 0 0 0 39.5-29c.5-1.3 0-2-1.5-2Z" style="opacity:.994"/><path fill="#d39a8c" d="M422.5 207.5c1.5 0 2 .7 1.5 2a185.3 185.3 0 0 1-39.5 29 65 65 0 0 1-7-19c14.8-4.8 29.8-8.8 45-12Z" style="opacity:1"/><path fill="#d39b8c" d="M372.5 244.5c-16.8 7.3-34.1 13-52 17a65.7 65.7 0 0 0-5-13.5 413.5 413.5 0 0 1 49-23.5c3.3 6.4 6 13 8 20Z" style="opacity:1"/><path fill="#ffc7b6" d="M-.5 274.5v-6a95 95 0 0 0 18.5-9c1.8-5.7 3.8-11.4 6-17 1.5-3.5 3.5-3.8 6-1l7 19a369 369 0 0 0 16.5 7.5c2.7 2.3 2.7 4.7 0 7a369 369 0 0 0-16.5 7.5l-7 19c-2.3 2.5-4.3 2.2-6-1-2.2-5.6-4.2-11.3-6-17a68 68 0 0 0-18.5-9Z" style="opacity:.968"/><path fill="#c7748c" d="M372.5 244.5a603.7 603.7 0 0 1 17 45 614 614 0 0 1-53 13c-5-13.8-10.4-27.4-16-41 17.9-4 35.2-9.7 52-17Z" style="opacity:.994"/><path fill="#d2998c" d="M308.5 264.5c-8.5 2-17.2 3-26 3 6.8-5 14-9.7 21.5-14 2 3.4 3.5 7.1 4.5 11Z" style="opacity:1"/><path fill="#b84b96" d="M193.5 257.5c.4 6.3-1.3 12-5 17a496.4 496.4 0 0 0-28.5 80c-7.8 29.4-13.8 59-18 89l3 2c29-49.6 58-99.2 86.5-149l16-26c2.4-.2 4.8.1 7 1a7 7 0 0 1 2 4 21 21 0 0 1-3.5 10l-12.5 21c-28 47.5-55.6 95.2-83 143-3.7 5.5-6.9 11.1-9.5 17 6-4.5 11.9-9.2 17.5-14a814.3 814.3 0 0 0 60-47.5c13.5-12 26.5-24.6 39-37.5 13-12.8 24.6-26.6 35-41.5 2.6-.5 5.3-.7 8-.5a7 7 0 0 1 3 7 448.6 448.6 0 0 1-47 54 975.2 975.2 0 0 1-80 69c-7.4 5-14.8 10-22 15.5a686 686 0 0 0 113-44c12.6-7 25-14.3 37-22 6.7-.5 9.3 2.7 8 9.5a454.6 454.6 0 0 1-71 38.5 1556 1556 0 0 1-88 32.5 16.6 16.6 0 0 1-11 1.5c-2-3.3-5-5.1-9-5.5a15.8 15.8 0 0 0-14-6.5 15 15 0 0 1-3-3.5c-2.4-.6-4.6-1.6-6.5-3-1-3-1.9-6-2.5-9 .6-.4 1-1 1-2l-6-36a589.2 589.2 0 0 1-4-131c-.1-6.1 2.9-8.8 9-8a3 3 0 0 0 2 2c1.4 1.3 2 3 2 5a387 387 0 0 0-3 45c.9 33.5 3.7 66.8 8.5 100l5 3a965.3 965.3 0 0 1 31-126c4.9-13.5 10-26.8 15.5-40 2.6-4.1 5-8.5 7-13 3.3-3.6 7-4 11-1Z" style="opacity:.999"/><path fill="#df68bc" d="M193.5 257.5a141 141 0 0 1 46 9c2.4 1.8 5 3.2 8 4l-16 26a91.9 91.9 0 0 0-43-22c3.7-5 5.4-10.7 5-17Z" style="opacity:.991"/><path fill="#c7768d" d="M237.5 256.5a42 42 0 0 0 23 10l-6 5c-2.2-.9-4.6-1.2-7-1-3-.8-5.6-2.2-8-4-.8-3.3-1.5-6.6-2-10Z" style="opacity:1"/><path fill="#e068bd" d="M182.5 258.5c-2 4.5-4.4 8.9-7 13-21-1.4-40.7 3-59 13a3 3 0 0 1-2-2 134 134 0 0 1 68-24Z" style="opacity:.972"/><path fill="#c7748c" d="M308.5 264.5a711 711 0 0 1 15 40c-10 .7-20 1-30 1a265.4 265.4 0 0 0-29-26c5.7-4.4 11.7-8.4 18-12 8.8 0 17.5-1 26-3Z" style="opacity:.992"/><path fill="#ee8abc" d="M175.5 271.5c-5.4 13.2-10.6 26.5-15.5 40a965.3 965.3 0 0 0-31 126l-5-3a851.2 851.2 0 0 1-8.5-100c.1-15 1.1-30 3-45 0-2-.6-3.7-2-5 18.3-10 38-14.4 59-13ZM188.5 274.5a91.9 91.9 0 0 1 43 22 18474 18474 0 0 1-86.5 149l-3-2c4.2-30 10.2-59.6 18-89a496.4 496.4 0 0 1 28.5-80Z" style="opacity:1"/><path fill="#df67bc" d="m256.5 275.5 8 4a265.4 265.4 0 0 1 29 26c5 6.4 9.8 13 14 20-2.7-.2-5.4 0-8 .5a297.4 297.4 0 0 1-35 41.5 87.8 87.8 0 0 0-24-61l12.5-21c2-3 3.2-6.4 3.5-10Z" style="opacity:.998"/><path fill="#ee8abc" d="M105.5 290.5a589.2 589.2 0 0 0 4 131 3 3 0 0 1-1 3 90.2 90.2 0 0 1-38.5-58c-.7-5.3-.7-10.7 0-16 1.9-7.5 4-14.8 6.5-22 7.2-14.5 17-27.1 29-38Z" style="opacity:.997"/><path fill="#ee8abc" d="M240.5 306.5a87.8 87.8 0 0 1 24 61 763.8 763.8 0 0 1-39 37.5 814.3 814.3 0 0 1-60 47.5c-2.9-.6-5.6-1.6-8-3 27.4-47.8 55-95.5 83-143Z" style="opacity:1"/><path fill="#ffc7b6" d="M466.5 312.5a9 9 0 0 1 5.5 1l10 26c7.6 4.2 15.4 8 23.5 11.5 1.5 3 1.2 5.6-1 8-7.6 3.4-15 6.9-22.5 10.5-3.3 8.2-6.3 16.6-9 25-3.2 4.2-5.9 3.8-8-1-2.8-8-5.8-16-9-24-7.4-3.7-14.9-7.2-22.5-10.5a6.5 6.5 0 0 1-1-8c8.6-3.5 16.7-7.7 24.5-12.5 2.7-8.9 5.9-17.6 9.5-26Z" style="opacity:.975"/><path fill="#df67bc" d="M310.5 332.5a130.3 130.3 0 0 1 9 82c1.3-6.8-1.3-10-8-9.5-12 7.7-24.4 15-37 22a686 686 0 0 1-113 44c7.2-5.4 14.6-10.6 22-15.5 37.9 1.1 63-16.2 75.5-52 1.7-5.6 3.2-11.3 4.5-17a448.6 448.6 0 0 0 47-54Z" style="opacity:.994"/><path fill="#e068bc" d="M76.5 328.5c-2.5 7.2-4.6 14.5-6.5 22-.7 5.3-.7 10.7 0 16 5 24.5 18 43.9 38.5 58a3 3 0 0 0 1-3l6 36c0 1-.4 1.6-1 2a127 127 0 0 1-46.5-61 91.9 91.9 0 0 1 8.5-70Z" style="opacity:.974"/><path fill="#ee8abc" d="M263.5 386.5c-1.3 5.7-2.8 11.4-4.5 17-12.5 35.8-37.6 53.1-75.5 52a975.2 975.2 0 0 0 80-69Z" style="opacity:1"/><path fill="#ffa586" d="M392.5 406.5c9.2-.3 12.7 4 10.5 13-5 5.3-10 5.3-15 0-2.2-5.6-.7-10 4.5-13Z" style="opacity:.903"/><path fill="#df67bc" d="M319.5 414.5a120.1 120.1 0 0 1-38 67.5 99.4 99.4 0 0 1-85 16 153.4 153.4 0 0 1-36-12.5 1556 1556 0 0 0 88-32.5c25-10.8 48.6-23.6 71-38.5Z" style="opacity:.991"/><path fill="#dd66ba" d="M157.5 449.5c2.4 1.4 5.1 2.4 8 3-5.6 4.8-11.5 9.5-17.5 14 2.6-5.9 5.8-11.5 9.5-17Z" style="opacity:1"/></svg>