<svg xmlns="http://www.w3.org/2000/svg" width="512" height="512" style="shape-rendering:geometricPrecision;text-rendering:geometricPrecision;image-rendering:optimizeQuality;fill-rule:evenodd;clip-rule:evenodd"><path fill="#fa6d00" d="M143.5 55.5h-64a158 158 0 0 1 1.5-30c.8-.6 1.6-1.1 2.5-1.5l28-.5c10-.1 20 .4 30 1.5.6.8 1.1 1.6 1.5 2.5.5 9.3.7 18.7.5 28Z" style="opacity:.997"/><path fill="#f35144" d="M287.5 55.5h-64c-.4-10.1 0-20.1 1.5-30 .8-.6 1.6-1.1 2.5-1.5l28-.5c10.1-.1 20.1.4 30 1.5.6.8 1.1 1.6 1.5 2.5.5 9.3.7 18.7.5 28Z" style="opacity:.998"/><path fill="#7db356" d="M431.5 55.5h-64c-.4-10.1 0-20.1 1.5-30 .8-.6 1.6-1.1 2.5-1.5l28-.5c10.1-.1 20.1.4 30 1.5.6.8 1.1 1.6 1.5 2.5.5 9.3.7 18.7.5 28Z" style="opacity:.997"/><path fill="#eaebe8" d="M79.5 55.5h72v16h-80v-16h8ZM223.5 55.5h72v16h-80v-16h8ZM367.5 55.5h72v16h-80v-16h8Z" style="opacity:1"/><path fill="#dfe0dd" d="M79.5 71.5h64v16h-64v-16ZM223.5 71.5h64v16h-64v-16ZM367.5 71.5h64v16h-64v-16Z" style="opacity:1"/><path fill="#eaeae8" d="M79.5 79.5v8h64v-8c.8 10.9 3.1 21.6 7 32h-78c3.9-10.4 6.2-21.1 7-32Z" style="opacity:.988"/><path fill="#eaeae8" d="M223.5 79.5v8h64v-8c.8 10.9 3.1 21.6 7 32h-78c3.9-10.4 6.2-21.1 7-32ZM367.5 79.5v8h64v-8c.8 10.9 3.1 21.6 7 32h-78c3.9-10.4 6.2-21.1 7-32Z" style="opacity:.986"/><path fill="#f96d01" d="M72.5 111.5h78c3.4 5.8 7 11.5 11 17 .6 2.2 2 4 4 5l18 17c-4.7 8-8.9 16.3-12.5 25a69.3 69.3 0 0 0-3.5 24h-144a74 74 0 0 1 16.5-49 181.4 181.4 0 0 0 32.5-39Z" style="opacity:1"/><path fill="#693924" d="M216.5 111.5h78a161.5 161.5 0 0 0 33 39c4.7 8 8.8 16.3 12.5 25a90.8 90.8 0 0 1 3.5 24h-176c-.2-8.2 1-16.2 3.5-24 3.6-8.7 7.8-17 12.5-25a161.5 161.5 0 0 0 33-39Z" style="opacity:1"/><path fill="#7eb457" d="M360.5 111.5h78c9 14.4 19.7 27.4 32.5 39a74 74 0 0 1 16.5 49h-144c0-8.2-1.3-16.2-3.5-24-3.7-8.7-7.8-17-12.5-25a161.5 161.5 0 0 0 33-39Z" style="opacity:1"/><path fill="#f99f64" d="M161.5 128.5c2 1 3.4 2.8 4 5-2-1-3.4-2.8-4-5Z" style="opacity:.957"/><path fill="#f88400" d="M23.5 199.5h144v40a553.4 553.4 0 0 1-65 72h-79v-112Z" style="opacity:1"/><path fill="#f25143" d="M167.5 199.5h170a459.8 459.8 0 0 1-32 48h-42v64h-96v-112Z" style="opacity:1"/><path fill="#e64c3f" d="M337.5 199.5h6v48h-38a459.8 459.8 0 0 0 32-48Z" style="opacity:1"/><path fill="#d0d24b" d="M343.5 199.5h138a434.3 434.3 0 0 1-58 78v-30h-80v-48Z" style="opacity:1"/><path fill="#c7c934" d="M481.5 199.5h6v112h-64v-34a434.3 434.3 0 0 0 58-78Z" style="opacity:1"/><path fill="#fe9418" d="M47.5 223.5h16v16h-16v-16Z" style="opacity:1"/><path fill="#fb685a" d="M191.5 223.5h16v16h-16v-16Z" style="opacity:1"/><path fill="#f77c00" d="M167.5 239.5v72h-65a553.4 553.4 0 0 0 65-72Z" style="opacity:1"/><path fill="#eaebe8" d="M305.5 247.5h118v40h-160v-40h42Z" style="opacity:1"/><path fill="#fe9418" d="M47.5 255.5h16v32h-16v-32Z" style="opacity:1"/><path fill="#fb685a" d="M191.5 255.5h16v32h-16v-32Z" style="opacity:1"/><path fill="#f88500" d="M263.5 287.5h160v24c.3 2.9 0 5.6-1 8 .1-.7 0-1.4-.5-2a396.2 396.2 0 0 1-62.5 74h-16v16l-19 16h-5v4a597 597 0 0 1-27 18 302 302 0 0 0-9.5-69 258.8 258.8 0 0 1-16-40c-1.7-8.3-2.8-16.6-3.5-25v-24Z" style="opacity:1"/><path fill="#f96e03" d="M23.5 311.5h78a347 347 0 0 1-67 49 9.9 9.9 0 0 0-1 6c-2-11.7-4.9-23.4-8.5-35a94.4 94.4 0 0 1-1.5-20Z" style="opacity:1"/><path fill="#f76400" d="M101.5 311.5h66c.1 7.7 1 15.4 2.5 23 3.2 9.6 5.7 19.3 7.5 29 .3 10-.2 20-1.5 30-2.9 11-5.5 22-8 33-.7 13-.7 26 0 39a31.4 31.4 0 0 0 15.5 20 35.6 35.6 0 0 1-29-2.5c-3.5-3.7-7.2-7.2-11-10.5-16.1 16.7-34.4 19.5-55 8.5a108 108 0 0 0-9-8.5c-3.8 3.3-7.5 6.8-11 10.5a33.6 33.6 0 0 1-35-1c-3.2-3.6-6-7.4-8.5-11.5-1.1-8.1-1.6-16.3-1.5-24.5l.5-20.5c2.5-11 5.1-22 8-33 1.2-8.6 1.7-17.3 1.5-26-.3-2.1 0-4.1 1-6a347 347 0 0 0 67-49Z" style="opacity:1"/><path fill="#693924" d="M167.5 311.5h78a376.2 376.2 0 0 1-67 49.5c-.8.7-1 1.5-1 2.5-1.8-9.7-4.3-19.4-7.5-29-1.5-7.6-2.4-15.3-2.5-23Z" style="opacity:1"/><path fill="#5c2e1a" d="M245.5 311.5h18c.7 8.4 1.8 16.7 3.5 25 4.2 13.8 9.6 27.1 16 40a302 302 0 0 1 9.5 69c.5 11 1.1 22 2 33l-7-6c-16.1 16.7-34.4 19.5-55 8.5a108 108 0 0 0-9-8.5c-3.8 3.3-7.5 6.8-11 10.5-9.3 5-19 5.8-29 2.5a31.4 31.4 0 0 1-15.5-20c-.7-13-.7-26 0-39 2.5-11 5.1-22 8-33 1.3-10 1.8-20 1.5-30 0-1 .2-1.8 1-2.5 24.2-14 46.5-30.5 67-49.5Z" style="opacity:1"/><path fill="#79ad54" d="M423.5 311.5h64c.2 4.7 0 9.3-.5 14-2.5 11-5.1 22-8 33a97 97 0 0 0 0 34c2.9 11 5.5 22 8 33 .7 13.7.7 27.3 0 41-6.7 18.2-19.5 24.7-38.5 19.5l-6-3c-3.5-3.7-7.2-7.2-11-10.5a42 42 0 0 1-40 15c2.3-32 5.1-64 8.5-96 1.3-5.8 3-11.5 5-17a630 630 0 0 0 13-31c2.5-7.8 4-15.8 4.5-24 1-2.4 1.3-5.1 1-8Z" style="opacity:1"/><path fill="#f67c00" d="M422.5 319.5c-.5 8.2-2 16.2-4.5 24a630 630 0 0 1-13 31c-2 5.5-3.7 11.2-5 17-3.4 32-6.2 64-8.5 96h-97v-9c-.9-11-1.5-22-2-33a597 597 0 0 0 27-18v12h16v-16h-11l19-16h16v-16a396.2 396.2 0 0 0 62.5-74c.5.6.6 1.3.5 2Z" style="opacity:1"/><path fill="#fe9418" d="M327.5 335.5h16v16h-16v-16ZM359.5 391.5v16h-16v-16h16ZM324.5 423.5h11v16h-16v-16h5Z" style="opacity:1"/></svg>