<svg xmlns="http://www.w3.org/2000/svg" width="512" height="512" style="shape-rendering:geometricPrecision;text-rendering:geometricPrecision;image-rendering:optimizeQuality;fill-rule:evenodd;clip-rule:evenodd"><path fill="#fdc83a" d="M469.5 124.5h-51a25 25 0 0 0-.5-7A286.8 286.8 0 0 0 352.5 44a127 127 0 0 0-27-14.5c17-7.8 34.4-8 52-.5 24.3 12 45.1 28.6 62.5 49.5a284.5 284.5 0 0 1 29 40c.5 2 .7 4 .5 6Z" style="opacity:.998"/><path fill="#fddc44" d="M325.5 29.5a127 127 0 0 1 27 14.5c26.1 20.8 48 45.3 65.5 73.5.5 2.3.7 4.6.5 7h-211c0-3.6.7-6.9 2.5-10a432.3 432.3 0 0 1 115.5-85Z" style="opacity:.996"/><path fill="#fdc83a" d="M332.5 52.5c9-.4 12.2 3.6 9.5 12-4.3 5.3-8.7 5.3-13 0-1.4-4.9-.2-8.9 3.5-12Z" style="opacity:1"/><path fill="#fcc83a" d="M353.5 67.5c10.4 1 12.7 5.8 7 14.5-8.1 1.9-12-1.3-11.5-9.5a11 11 0 0 1 4.5-5Z" style="opacity:1"/><path fill="#fdc83a" d="M276.5 89.5c8.2-.7 11.7 3 10.5 11-5.2 5.6-9.8 5.3-14-1-.8-4 .3-7.4 3.5-10Z" style="opacity:1"/><path fill="#e9a998" d="M207.5 124.5h262c-7.5.8-15.2 1.3-23 1.5a11 11 0 0 1 5.5 5.5c.7 13 .7 26 0 39a11 11 0 0 1-5.5 5.5c-81.8.2-163.5.7-245 1.5h-1c-8 1.7-13.8-1-17.5-8-.7-12.3-.7-24.7 0-37 1.2-3.8 3.7-6.3 7.5-7.5a145 145 0 0 1 17-.5Z" style="opacity:.998"/><path fill="#e39382" d="M469.5 124.5c5-.2 10 0 15 .5 3.8 1.2 6.3 3.7 7.5 7.5 1 13.4.6 26.7-1 40-4.6 4.5-10 6.2-16.5 5h-273c81.5-.8 163.2-1.3 245-1.5a11 11 0 0 0 5.5-5.5c.7-13 .7-26 0-39a11 11 0 0 0-5.5-5.5c7.8-.2 15.5-.7 23-1.5Z" style="opacity:1"/><path fill="#dc7f69" d="M200.5 177.5h274a752.2 752.2 0 0 1 18.5 199c-1.1 16.6-3 33-5.5 49.5 0 3.7.6 7.2 2 10.5h-40c-1.3-3.2-2-6.5-2-10a568.8 568.8 0 0 0 1.5-168c-2-16-4.6-32-7.5-48h-247c1.5-11 3.5-22 6-33Z" style="opacity:1"/><path fill="#fdc83a" d="m193.5 213.5-6 39a247.2 247.2 0 0 0-45-42.5c-5.4-3.4-11-6.2-17-8.5a37 37 0 0 1 12-4.5c13.3-1.9 26 .1 38 6a235 235 0 0 1 18 10.5Z" style="opacity:.999"/><path fill="#fcdc45" d="M125.5 201.5c6 2.3 11.6 5.1 17 8.5a247.2 247.2 0 0 1 45 42.5c-.8 10.4-1.8 20.7-3 31h-44c-40.2.3-80.2 0-120-1 .5-2 1.4-4 2.5-6 29.9-31 64-56 102.5-75Z" style="opacity:.994"/><path fill="#e39381" d="M194.5 210.5h247c3 16 5.4 32 7.5 48a568.8 568.8 0 0 1-1.5 168c0 3.5.7 6.8 2 10-10.8.5-21.4 0-32-1.5a10.4 10.4 0 0 1-.5-7.5c3-1.4 6.2-2.6 9.5-3.5 4.2-11.4.2-15.8-12-13-10.7 5.2-15.2 13.7-13.5 25.5 3 8.4 8.9 13.4 17.5 15l46 2c4.4 6.7 7 14 8 22a13.5 13.5 0 0 1-10 12h-290c-8.9-4.1-11.4-10.8-7.5-20a63.2 63.2 0 0 1 20-29c2.3-3.7 3.4-7.7 3.5-12a504 504 0 0 1-7-91c.2-17.4 1.2-34.7 3-52 1.2-10.3 2.2-20.6 3-31l6-39c-.2-1.3.1-2.3 1-3Z" style="opacity:.998"/><path fill="#fcc73a" d="M381.5 288.5a39.7 39.7 0 0 0-7.5-4c-.7-2.5-1.5-4.8-2.5-7-1-19.5 7.7-32.7 26-39.5 5.7-.7 11.3-.7 17 0 5 .7 7.4 3.5 7.5 8.5a36.3 36.3 0 0 1-20.5 38.5c-6.6 1.9-13.2 3-20 3.5ZM354.5 294.5c-2 6.1-4.3 12.1-6.5 18 5.2-4 11-6.3 17.5-7a34.2 34.2 0 0 1 33.5 19c.1 6.3-2.4 11.4-7.5 15.5a37 37 0 0 1-44 2c-3.2-3.4-6.6-6.6-10-9.5-1.8-5.3-.4-9.8 4-13.5-2.1.4-4.1 1.4-6 3-2.7.6-5.4.4-8-.5a37.5 37.5 0 0 1-15.5-40 33.9 33.9 0 0 1 20.5-22 36 36 0 0 1 22 35Z" style="opacity:1"/><path fill="#fcdb45" d="M371.5 277.5c1 2.2 1.8 4.5 2.5 7 2.7 1.1 5.2 2.4 7.5 4l-16 17c-6.5.7-12.3 3-17.5 7l6.5-18c5.3-6 11-11.7 17-17Z" style="opacity:1"/><path fill="#e39281" d="M20.5 282.5c39.8 1 79.8 1.3 120 1a512.4 512.4 0 0 0-2 52h-121c-8.3 2-14.3-.6-18-8v-36c4.5-8.2 11.5-11.2 21-9Z" style="opacity:.995"/><path fill="#dc7f69" d="M140.5 283.5h44a555.9 555.9 0 0 0-3 52h-43c-.2-17.4.5-34.7 2-52Z" style="opacity:1"/><path fill="#fcc73a" d="M306.5 342.5c-2.1 6.2-4.3 12.2-6.5 18 5.2-4 11-6.3 17.5-7a34.2 34.2 0 0 1 33.5 19c.1 6.3-2.4 11.4-7.5 15.5a37 37 0 0 1-44 2c-3.2-3.4-6.6-6.6-10-9.5-1.7-5.4-.4-9.9 4-13.5-2.1.4-4.1 1.4-6 3-2.7.6-5.4.4-8-.5a37.5 37.5 0 0 1-15.5-40 33.9 33.9 0 0 1 20.5-22 36 36 0 0 1 22 35Z" style="opacity:1"/><path fill="#fcdb45" d="m337.5 332.5-20 21c-6.5.7-12.3 3-17.5 7 2.2-5.8 4.4-11.8 6.5-18 6.7-7.3 13.7-14.3 21-21 2.6 1 5.3 1.1 8 .5 1.9-1.6 3.9-2.6 6-3-4.4 3.7-5.8 8.2-4 13.5Z" style="opacity:1"/><path fill="#d46a50" d="M17.5 335.5h164a504 504 0 0 0 7 91c0 4.3-1.2 8.3-3.5 12a63.2 63.2 0 0 0-20 29c-3.9 9.2-1.4 15.9 7.5 20h-40c-8-5-10.2-12-6.5-21a56.3 56.3 0 0 1 19-27c1.6-2.5 2.6-5.1 3-8-2-21.6-3.5-43.3-4.5-65h-126v-31Z" style="opacity:1"/><path fill="#dc7e68" d="M17.5 366.5h126c1 21.7 2.5 43.4 4.5 65-.4 2.9-1.4 5.5-3 8a56.3 56.3 0 0 0-19 27c-3.7 9-1.5 16 6.5 21-41.7.2-83.3 0-125-.5a15.6 15.6 0 0 1-8-6.5v-11a57.1 57.1 0 0 1 20.5-31c3.2-6 4.2-12.3 3-19a510 510 0 0 1-5.5-53Z" style="opacity:.993"/><path fill="#fcdb46" d="M289.5 380.5a1468 1468 0 0 1-32 32.5c-9.1 2.6-13-1-11.5-10.5 11-11.2 22.2-22.2 33.5-33 2.6 1 5.3 1.1 8 .5 1.9-1.6 3.9-2.6 6-3a11.5 11.5 0 0 0-4 13.5Z" style="opacity:1"/><path fill="#d46a50" d="M449.5 436.5h40l12 14c-27.5 1-55.2 1.3-83 1a21.7 21.7 0 0 1-17.5-15c-1.7-11.8 2.8-20.3 13.5-25.5 12.2-2.8 16.2 1.6 12 13-3.3 1-6.4 2-9.5 3.5-.8 2.6-.6 5.1.5 7.5 10.6 1.5 21.2 2 32 1.5ZM316.5 436.5c17-.2 34 0 51 .5 4.6 2 6.1 5.6 4.5 10.5-.5 1.8-1.7 3-3.5 3.5a676 676 0 0 1-52 0c-5.3-5-5.3-9.7 0-14.5Z" style="opacity:1"/><path fill="#dc7f69" d="M501.5 450.5c4.7 5.6 8 12 10 19v11c-1.9 3-4.6 5.2-8 6.5-13.7.5-27.3.7-41 .5 5.9-1.9 9.2-5.9 10-12-1-8-3.6-15.3-8-22l-46-2c27.8.3 55.5 0 83-1Z" style="opacity:1"/></svg>