<svg xmlns="http://www.w3.org/2000/svg" width="512" height="512"><path fill="#F34544" d="m132 34 2 2c11 8 17 20 23 32v-4a2834 2834 0 0 1 0-30l1-3c0-5 0-8 3-12 3-2 4-2 7-2l6 4 1 6v9a5340 5340 0 0 1 1 38v58l2-1 3-2 2-2c19-13 44-15 65-10a97 97 0 0 1 51 28l11 13 4-11 1-2c2-11 3-22 3-34 2-24 9-46 27-64l2-2c5-5 10-7 16-10l2-1c11-4 26-4 37 1 19 9 32 24 39 44 4 11 6 23 6 35 2 33 12 65 35 89 14 16 24 34 28 55l1 3 1 25v2c0 11 0 22-3 33l-1 2c-5 20-13 39-27 55l-2 3-18 16-5 4h2c35 9 35 9 46 24 6 11 9 22 7 34-4 12-10 23-21 30-10 6-19 8-31 8a2423 2423 0 0 0-17 0h-12a7976 7976 0 0 1-209 0c-23 1-44-5-62-22-9-10-16-22-19-35-22 3-44 13-59 29-5 6-9 8-17 8-5 0-9-2-13-6-4-5-5-9-5-14 1-5 2-8 5-11l2-2 13-13 2-1 5-4h-2a4523 4523 0 0 1-43-5h-4c-8-1-14-3-20-8-4-6-4-11-4-17 2-5 5-9 10-12 9-4 20-1 30 0a3402 3402 0 0 0 18 2l-18-33-1-2-6-10C9 298-10 253 4 203c9-32 24-59 53-76 22-12 49-16 73-9 10 3 19 8 28 14V94l-7 2a75 75 0 0 1-69-24l-2-2C69 60 61 47 54 35l-2-3c-2-4-4-7-3-12 22-14 64 0 83 14Z"/><path fill="#FEB42C" d="M234 351a587 587 0 0 0 47 10 17531 17531 0 0 1 188 43c15 3 26 9 35 22a47 47 0 0 1-16 65c-10 4-18 6-29 6a2423 2423 0 0 0-17 0h-12a7976 7976 0 0 1-209 0c-23 1-44-5-62-22-6-6-10-13-14-21l-1-3c-8-16-7-38-1-55 4-9 8-17 15-24l2-2c19-20 48-26 74-19Z"/><path fill="#35E197" d="M415 42c19 15 29 35 31 59l1 13c2 33 12 65 35 89 14 16 24 34 28 55l1 3 1 25v2c0 11 0 22-3 33l-1 2c-5 20-13 39-27 55l-2 3a108 108 0 0 1-23 19c-6 2-15-1-21-2l-3-1a6275 6275 0 0 1-135-31l-3-1h-4l-2-1-1-2 2-5 2-3 2-3 1-3 19-33 5 8c9 19 25 31 44 38a77 77 0 0 0 73-16l2-2c13-12 21-30 22-48 1-23-6-43-22-60-8-7-16-11-25-15l-3-1a78 78 0 0 0-73 14l-3 1v-2c-3-23-7-47-21-67-2-5 0-11 1-16 4-12 5-25 5-38 2-24 9-46 27-64l2-2c5-5 10-7 16-10l2-1c17-6 36-2 50 8Z"/><path fill="#FEA80B" d="M147 388h1v2c1 21 10 39 25 53 17 14 35 18 56 18v-2l3-18c4-2 6-2 10-2l4 4c1 6 0 12-1 18h37l2-4 7-1 2 2c4 3 6 3 11 3a240664017 240664017 0 0 1 28 0h41l1-2 3-4h8l3 4v2h49l1-11 5-51c44 6 44 6 57 21 8 11 12 22 11 36-2 13-8 24-18 32-11 7-21 9-34 9a2423 2423 0 0 0-17 0h-12a7976 7976 0 0 1-209 0c-23 1-44-5-62-22a74 74 0 0 1-15-24c-8-16-7-38-1-55l4-8Z"/><path fill="#AD583E" d="M431 230c15 12 26 30 29 49a78 78 0 0 1-24 66l-2 2a75 75 0 0 1-54 18c-21-1-39-11-53-26-5-7-13-16-13-25l4-10 9-24 1-3c3-9 4-18 4-27 0-14 0-14 3-19 3-3 6-4 10-6l3-2c26-14 59-11 83 7Z"/><path fill="#C32D2D" d="m79 118 1 2-4 7c-11 17-17 35-21 55l-1 2c-2 13-3 25-3 38v2c0 41 10 77 28 113h-2c-8 1-8 1-14 6-4 6-4 10-3 17a466 466 0 0 1 19 29H67c-3 0-6 0-9-3l-4-7-2-3a535 535 0 0 1-18-34C9 299-10 253 4 203c9-32 24-60 53-76 7-4 14-7 22-9Z"/><path fill="#1AB874" d="M84 338c6 4 10 9 13 15 11 18 31 29 49 38l-1 3-1 4-1 2c-2 6-3 11-3 18v21h-2c-22 6-42 14-58 31-5 5-8 7-16 7-5 0-9-2-13-6-4-5-5-9-5-14 1-5 2-8 5-11l2-2 13-13 2-1 5-4h-2a4523 4523 0 0 1-43-5h-4c-8-1-14-3-20-8-4-6-4-11-4-17 2-5 5-9 10-12 9-3 19-1 29 0h5l16 3a80 80 0 0 0 9 1h3a2136 2136 0 0 0 4-2c-9-10-18-21-17-35 0-5 2-8 6-11 6-4 13-4 19-2Z"/><path fill="#FEA80B" d="M443 399c44 6 44 6 57 21 8 11 12 22 11 36-2 13-8 24-18 32l-8 4-2 1c-10 4-19 4-30 3a3376 3376 0 0 0-21 0h-47l3-35h49l1-11 5-51Z"/><path fill="#1AB975" d="m132 34 2 2c12 9 20 23 25 37v21a76 76 0 0 1-77-22l-2-2C69 60 61 47 54 35l-2-3c-2-4-4-7-3-12 22-14 64 0 83 14Z"/><path fill="#7C3F2C" d="M376 215a146 146 0 0 1-3 60c-7 27-20 51-34 74-12-7-21-19-25-32 0-5 2-9 4-13l9-24 1-3c3-9 4-18 4-27 0-14 0-14 3-19 3-3 6-4 10-6l3-2c8-4 18-8 28-8Z"/><path fill="#1AB975" d="M318 127a83 83 0 0 1 39 37c9 14 18 34 18 51l-3 1c-13 3-25 7-36 16l-3 2v-2c-3-23-7-47-21-67-2-6 1-12 2-18l4-20Z"/><path fill="#1DD587" d="M73 17a88 88 0 0 1 61 19 82 82 0 0 1 22 28c2 5 2 9 2 14-20 1-39-8-54-21-13-11-22-25-31-39v-1Z"/><path fill="#FEB42C" d="M457 402c16 2 34 6 44 20 5 7 9 14 9 22h-2l-1 2c-4 8-15 11-23 14l-3 1h-14a5787 5787 0 0 0-14 0l2-24v-3a3216 3216 0 0 1 2-32Z"/><path fill="#C0684D" d="m171 18 4 5v14a5436 5436 0 0 1 0 36v61c-8 4-8 4-13 2l-4-3-1-4v-9a1204 1204 0 0 1 1-75V32c0-5 0-9 3-13 3-3 6-2 10-1Z"/><path fill="#1BB874" d="m313 315 5 8c5 10 11 18 20 25-1 5-3 10-6 14l-1 3-1 2-2 2-3 3-10-2h-2a919 919 0 0 1-25-6l-1-2 2-5 2-3 2-3 1-3 19-33Z"/><path fill="#F29501" d="m443 399 6 1h4l5 3-1 21v3a3410 3410 0 0 1-3 25v3c-1 9-1 9-4 13-2 2-4 2-6 2-4-1-5-3-7-6v-11a770 770 0 0 1 6-54Z"/><path fill="#F29500" d="m242 439 4 4-1 20v3a4115 4115 0 0 1-4 31h-16a317 317 0 0 1 7-56c4-2 6-2 10-2Z"/><path fill="#F29501" d="M221 349c6 0 11 1 16 3a2445 2445 0 0 1-4 41c0 6-1 10-6 14h-6l-5-5c-1-6 0-13 1-20v-2a3843 3843 0 0 1 4-31Z"/><path fill="#F29500" d="M381 455h2l4 2c4 7 0 19 0 27l-1 3-1 9-11 1-2-1h-2c0-12 0-28 4-39 3-2 4-2 7-2ZM290 456c4 1 4 1 6 4 1 10 1 27-3 36h-15a2890 2890 0 0 1 1-22c1-6 1-11 4-16 3-2 3-2 7-2Z"/><path fill="#F29601" d="m315 370 12 2a2053 2053 0 0 1-1 19c-1 6-1 10-5 14h-8c-3-2-4-4-4-7v-11c1-17 1-17 6-17Z"/></svg>