<svg xmlns="http://www.w3.org/2000/svg" width="512" height="512" style="shape-rendering:geometricPrecision;text-rendering:geometricPrecision;image-rendering:optimizeQuality;fill-rule:evenodd;clip-rule:evenodd"><path fill="#a298a5" d="M277.5 30.5c20.6 11.6 27.8 28.9 21.5 52-3.5 10.3-10 18-19.5 23h-71c-18.7-12.7-24.8-30-18.5-52A47.4 47.4 0 0 1 205.5 33a23 23 0 0 1 5-2c22.3-.5 44.7-.7 67-.5Z" style="opacity:.991"/><path fill="#8b818e" d="M277.5 30.5c12-.2 24 0 36 .5a42.9 42.9 0 0 1 2 74.5h-36c9.5-5 16-12.7 19.5-23 6.3-23.1-.9-40.4-21.5-52Z" style="opacity:1"/><path fill="#a298a5" d="M116.5 71.5c.2 6 0 12-.5 18a11 11 0 0 1-5.5 5.5c-30.7.5-61.3.7-92 .5-.4-6 .1-12 1.5-18a9 9 0 0 1 6.5-5.5c30-.5 60-.7 90-.5Z" style="opacity:.973"/><path fill="#8b818e" d="M116.5 71.5a57 57 0 0 1 17 1.5c2.3 1.6 3.8 3.8 4.5 6.5 1 11 .6 22-1 33-3.8 4.3-8.7 6-14.5 5-29-1.3-58-1.3-87 0h-1c-7.8 1.2-13-1.8-15.5-9a85 85 0 0 1-.5-13c30.7.2 61.3 0 92-.5a11 11 0 0 0 5.5-5.5c.5-6 .7-12 .5-18Z" style="opacity:1"/><path fill="#dce9fa" d="M208.5 105.5h75v33h-75v-33Z" style="opacity:.996"/><path fill="#cae1fe" d="M283.5 105.5h32v33h-32v-33Z" style="opacity:1"/><path fill="#a97f7f" d="M492.5 108.5h-3a512 512 0 0 1-.5 32c-.4 1-.9 1.8-1.5 2.5-41.3.5-82.7.7-124 .5-2.6-12.5.8-23 10-31.5l6-3c19.5-1.1 39-1.6 58.5-1.5 18.3 0 36.5.3 54.5 1Z" style="opacity:.987"/><path fill="#9d6b6b" d="M492.5 108.5a27.1 27.1 0 0 1 19 17v39l-3 1.5c-5.7.5-11.3.7-17 .5a1432 1432 0 0 0-107 0c-6 .2-12 0-18-.5l-2.5-2.5c-.5-6.7-.7-13.3-.5-20 41.3.2 82.7 0 124-.5.6-.8 1.1-1.6 1.5-2.5.5-10.7.7-21.3.5-32h3Z" style="opacity:.999"/><path fill="#dce9fb" d="M34.5 117.5h56v36c-18.8.3-37.5 0-56-1v-35Z" style="opacity:1"/><path fill="#cae1fe" d="M35.5 117.5c29-1.3 58-1.3 87 0v35h20c-12.5.8-25.2 1.3-38 1.5a18 18 0 0 1 10.5 11.5c.8 10 .6 20-.5 30H-.5v-33c1.8-4 4.8-6.8 9-8.5a129 129 0 0 1 26-1.5c18.5 1 37.2 1.3 56 1v-36h-55Z" style="opacity:.996"/><path fill="#cbf39f" d="M208.5 139.5h75a57.7 57.7 0 0 0 15.5 52c1.6 2.9 3 5.9 4 9 1.4 11 1.9 22 1.5 33a25 25 0 0 1-7-.5c-8.3-21.2-23.7-29.8-46-26a42.7 42.7 0 0 0-25 26c-13 .5-26 .7-39 .5-.4-11 .1-22 1.5-33 3-8.4 7.7-15.7 14-22 1.6-2.9 3-5.9 4-9 1.3-10 1.8-20 1.5-30Z" style="opacity:.997"/><path fill="#b4e5a0" d="M208.5 139.5v-1h107c-.4 10.4.1 20.7 1.5 31a53.3 53.3 0 0 0 13 20c2 3.5 3.6 7.2 5 11 1.4 11 1.9 22 1.5 33h-32c.4-11-.1-22-1.5-33-1-3.1-2.4-6.1-4-9a57.7 57.7 0 0 1-15.5-52h-75Z" style="opacity:1"/><path fill="#bed8fb" d="M142.5 152.5c8.4.5 13.5 4.9 15.5 13 .7 8.7.7 17.3 0 26a13 13 0 0 1-1.5 5c-13.8-1-27.8-1.3-42-1 1-10 1.3-20 .5-30a18 18 0 0 0-10.5-11.5c12.8-.2 25.5-.7 38-1.5Z" style="opacity:.999"/><path fill="#dae5f6" d="M491.5 166.5h-34v17h-73v-17a1432 1432 0 0 1 107 0Z" style="opacity:1"/><path fill="#cbe2fe" d="M491.5 166.5v17a1432 1432 0 0 1-107 0h73v-17h34Z" style="opacity:1"/><path fill="#bed8fb" d="M384.5 183.5a1432 1432 0 0 0 107 0c7.4-1.5 12 1.4 14 8.5-2 6.9-6.7 9.4-14 7.5h-107c-10.6 2.5-15.1-1.5-13.5-12 3.7-3.6 8.2-5 13.5-4Z" style="opacity:.987"/><path fill="#f3dcb0" d="M.5 195.5h113a26 26 0 0 1-3.5 9 423 423 0 0 0-23 26 40.3 40.3 0 0 0 1 38c6 8 12.6 15.3 20 22 2.5 3 4.5 6.3 6 10a660 660 0 0 1 1.5 61c-27-.2-54 0-81 .5-6.7 4.7-6.7 9.3 0 14 27 .5 54 .7 81 .5h5c-1.4 1-3 1.3-5 1 .2 6 0 12-.5 18a17.5 17.5 0 0 1-12.5 12c-31 .2-62 0-93-.5-4.5-2-7.9-5.2-10-9.5v-96c1.5-3.4 3.4-6.7 5.5-10a180 180 0 0 0 21-23 39 39 0 0 0 1-38c-7.3-9-15-17.6-23-26a26 26 0 0 1-3.5-9Z" style="opacity:.996"/><path fill="#efcb84" d="M113.5 195.5h1c14.2-.3 28.2 0 42 1-.3 3-1.5 5.7-3.5 8l-21 23a38.4 38.4 0 0 0-2 39c7.3 9 15 17.6 23 26l4 8a649 649 0 0 1 1.5 49.5 615 615 0 0 1-1.5 48.5 19.7 19.7 0 0 1-9.5 8.5c-15 .5-30 .7-45 .5a17.5 17.5 0 0 0 12.5-12c.5-6 .7-12 .5-18 2 .3 3.6 0 5-1 5.6-1 7.8-4.4 6.5-10-2.5-4.4-6.4-6-11.5-5a660 660 0 0 0-1.5-61c-1.5-3.7-3.5-7-6-10-7.4-6.7-14-14-20-22a40.3 40.3 0 0 1-1-38c7.3-9 15-17.6 23-26a26 26 0 0 0 3.5-9Z" style="opacity:1"/><path fill="#dceafa" d="M384.5 199.5h73v18h-73v-18Z" style="opacity:1"/><path fill="#cbe2fe" d="M457.5 199.5h34v19a309 309 0 0 0-34-1v-18Z" style="opacity:1"/><path fill="#a198a4" d="M304.5 233.5h32v2c-10.6-1-21.3-1.3-32-1 .3 14.8 0 29.5-1 44a8.2 8.2 0 0 0-5-5.5c-24.3-.7-48.7-.7-73 0-4.7 2.4-6.2 6.3-4.5 11.5 1.2 1.5 2.7 2.7 4.5 3.5 24.3.7 48.7.7 73 0 2.6-1 4.2-2.9 5-5.5a98.5 98.5 0 0 1 0 28 8.2 8.2 0 0 0-5-5.5c-24.7-.7-49.3-.7-74 0-2.9 1.4-4.2 3.7-4 7-.2 3.3 1.1 5.6 4 7 25 .7 50 .7 75 0 2.4-1 3.8-2.9 4-5.5 1 15.2 1.3 30.5 1 46-39.2.7-78.2 0-117-2v-124c13 .2 26 0 39-.5a42.7 42.7 0 0 1 25-26c22.3-3.8 37.7 4.8 46 26 2.3.5 4.6.7 7 .5Z" style="opacity:.995"/><path fill="#ccf39f" d="M384.5 217.5c26.5.8 53.2 1.3 80 1.5a26 26 0 0 1 18.5 18.5c.7 15.3-1.1 30.3-5.5 45-25-.2-50 0-75 .5l-2.5 2.5a2449 2449 0 0 0-.5 70 62 62 0 0 0-21 18.5 82.5 82.5 0 0 1-15 11.5c.1-7.7 1-15.4 2.5-23 7-21.9 9-44.2 6-67-2.9-13-5.5-26-8-39-2.6-12.2-.1-23 7.5-32.5 3.8-3.2 8.1-5.4 13-6.5Z" style="opacity:.995"/><path fill="#b4e5a0" d="M384.5 217.5h73a309 309 0 0 1 34 1 25.2 25.2 0 0 1 20 18v22c-1.4 8-3.4 16-6 24h-28c4.4-14.7 6.2-29.7 5.5-45a26 26 0 0 0-18.5-18.5c-26.8-.2-53.5-.7-80-1.5Z" style="opacity:1"/><path fill="#8b818e" d="M336.5 235.5v125h-32v-1c.3-15.5 0-30.8-1-46v-3a98.5 98.5 0 0 0 0-28v-4c1-14.5 1.3-29.2 1-44 10.7-.3 21.4 0 32 1Z" style="opacity:1"/><path fill="#766f79" d="M303.5 278.5v4a8.2 8.2 0 0 1-5 5.5c-24.3.7-48.7.7-73 0-1.8-.8-3.3-2-4.5-3.5-1.7-5.2-.2-9 4.5-11.5 24.3-.7 48.7-.7 73 0 2.6 1 4.2 3 5 5.5Z" style="opacity:1"/><path fill="#f8eed9" d="M477.5 282.5a145.9 145.9 0 0 0-2.5 55c1.7 7.6 3.2 15.3 4.5 23h-19a63.4 63.4 0 0 0 2.5-60c-6.7-6-11.5-4.6-14.5 4a48.1 48.1 0 0 1-2.5 50c-2 2.2-4.2 4.2-6.5 6l-8-3c-3-1.6-6.4-2.8-10-3.5a54 54 0 0 0-22 1.5c-.2-23.3 0-46.7.5-70l2.5-2.5c25-.5 50-.7 75-.5Z" style="opacity:1"/><path fill="#efcb85" d="M477.5 282.5h28a151.2 151.2 0 0 0 3 78h-29c-1.3-7.7-2.8-15.4-4.5-23a145.9 145.9 0 0 1 2.5-55Z" style="opacity:1"/><path fill="#aa8080" d="M72.5 286.5c15.9-1.3 28 4.7 36.5 18 2.8 18.3-5 29.1-23.5 32.5-15.8 3-28-2.2-36.5-15.5-4.3-12.6-.8-22.5 10.5-29.5 4.2-2.3 8.6-4.2 13-5.5Z" style="opacity:1"/><path fill="#96d6a4" d="M460.5 360.5c-2.6 4.2-6 7.9-10 11-3.4-4-7-7.7-11-11 2.3-1.8 4.5-3.8 6.5-6a48.1 48.1 0 0 0 2.5-50c3-8.6 7.8-10 14.5-4a63.4 63.4 0 0 1-2.5 60Z" style="opacity:1"/><path fill="#756e78" d="M303.5 310.5v3a6.2 6.2 0 0 1-4 5.5c-25 .7-50 .7-75 0-2.9-1.4-4.2-3.7-4-7-.2-3.3 1.1-5.6 4-7 24.7-.7 49.3-.7 74 0 2.6 1 4.2 3 5 5.5Z" style="opacity:1"/><path fill="#dc636e" d="M431.5 357.5a51 51 0 0 1-3.5 23c-25.7 44.1-64.2 67.1-115.5 69-30.9.3-58.4-9-82.5-28-.4.2-.6.6-.5 1a74.5 74.5 0 0 1-14-29.5c.1-5.2 2.8-8 8-8.5 10.2 5.3 20.5 10.5 31 15.5a96 96 0 0 0 31 6.5c16.7 2.1 33 .1 49-6 10.4-3.7 20-8.7 29-15 5.4-3.2 10.4-7 15-11.5a62 62 0 0 1 21-18.5 54 54 0 0 1 22-1.5c3.6.7 7 1.9 10 3.5Z" style="opacity:.998"/><path fill="#da4a54" d="m431.5 357.5 8 3c4 3.3 7.6 7 11 11a36 36 0 0 1 7 35c-23.2 45-60.2 69.4-111 73.5A133.7 133.7 0 0 1 239 435.5c-3.7-4-6.8-8.3-9.5-13 0-.4.1-.8.5-1 24.1 19 51.6 28.3 82.5 28 51.3-1.9 89.8-24.9 115.5-69a51 51 0 0 0 3.5-23Z" style="opacity:1"/><path fill="#adb0a3" d="M187.5 357.5c38.8 2 77.8 2.7 117 2v1h-117v-3Z" style="opacity:1"/><path fill="#ccf39e" d="M187.5 360.5h117c.4 12.7 0 25.4-1.5 38-3.8 7-9.7 9.6-17.5 8a96 96 0 0 1-31-6.5c-10.5-5-20.8-10.2-31-15.5-5.2.4-7.9 3.3-8 8.5 1.2 5 2.8 9.8 5 14.5-7.3.2-14.7 0-22-.5a14.7 14.7 0 0 1-10.5-11.5c-.5-11.7-.7-23.3-.5-35Z" style="opacity:.997"/><path fill="#b3e49e" d="M304.5 360.5h32c.2 11.7 0 23.3-.5 35-.6 1.7-1.1 3.3-1.5 5a99.3 99.3 0 0 1-49 6c7.8 1.6 13.7-1 17.5-8 1.4-12.6 2-25.3 1.5-38Z" style="opacity:1"/><path fill="#cbf39e" d="M460.5 360.5h20a79.5 79.5 0 0 1 1.5 35c-3.2 5.4-7.7 9-13.5 11h-11a36 36 0 0 0-7-35c4-3.1 7.4-6.8 10-11Z" style="opacity:.999"/><path fill="#b3e59f" d="M480.5 360.5h28l3 12v22a21 21 0 0 1-13 11.5c-10 .5-20 .7-30 .5 5.8-2 10.3-5.6 13.5-11a79.5 79.5 0 0 0-1.5-35Z" style="opacity:1"/><path fill="#aa8080" d="M115.5 361.5v15c-27 .2-54 0-81-.5-6.7-4.7-6.7-9.3 0-14 27-.5 54-.7 81-.5Z" style="opacity:1"/><path fill="#9d6c6b" d="M115.5 361.5c5.1-1 9 .6 11.5 5 1.3 5.6-1 9-6.5 10h-5v-15Z" style="opacity:1"/></svg>