<svg xmlns="http://www.w3.org/2000/svg" width="512" height="512" style="shape-rendering:geometricPrecision;text-rendering:geometricPrecision;image-rendering:optimizeQuality;fill-rule:evenodd;clip-rule:evenodd"><path fill="#985612" d="M181 0h4a3914 3914 0 0 0 79 46l2 74c-1 23-2 46-1 70h-17l-1-70-1-64-71-40c-2-1-2-2-1-3l7-13Z" style="opacity:.991"/><path fill="#fd9225" d="M386 157c16-26 12-48-12-66-16-8-31-7-45 1l-4 4-25-25c11-11 24-18 40-20 39-4 68 12 85 49 11 30 6 57-15 82l-24-25Z" style="opacity:.985"/><path fill="#fc7422" d="m386 157-25-24-13-13-23-24 4-4c14-8 29-9 45-1 24 18 28 40 12 66Z" style="opacity:1"/><path fill="#eaeaea" d="m247 120 1 70H148c-3-24-4-47-5-70h104Z" style="opacity:.987"/><path fill="#eaeaea" d="M266 120h82l13 13c-2 18-4 37-4 57h-92c-1-24 0-47 1-70Z" style="opacity:.988"/><path fill="#f88f73" d="M148 190h100v1h-99l-1 12v-13Z" style="opacity:1"/><path fill="#f88e72" d="M265 191v-1h92l-1 4v-3h-91Z" style="opacity:1"/><path fill="#d86447" d="M248 190h17v165h-17V190Z" style="opacity:1"/><path fill="#fc7553" d="M248 191v164h17V191h91v3l-8 122a603 603 0 0 1-49 46l-21-6h-28l-11 4-9-13c-2-7-3-14-2-21l5-12c-2-8-6-11-13-8-5 6-8 11-10 18-7-14-18-21-33-20-8 0-15 1-22 3a3402 3402 0 0 0-6-116h99Z" style="opacity:1"/><path fill="#aac16a" d="m429 311 1 10h-7l-27-1-7-2-10-8-1-1-9-31c11-2 23-2 35-1 9 3 16 8 20 17l5 17Z" style="opacity:.987"/><path fill="#f3ae3d" d="M111 380c21 21 46 36 76 44-2 41 16 69 54 85l-26 3h-51C96 500 55 460 40 394l-2-38-34-44a1655 1655 0 0 1 36-35l46 74 25 29Z" style="opacity:.996"/><path fill="#985713" d="M432 354c-1 1-2 2-1 4-1 6-2 12-1 19l-17-1v-21c1-12 4-24 10-34h7l-1-10c4-7 9-12 16-17 10 0 13 5 10 15a82 82 0 0 0-23 45Z" style="opacity:.983"/><path fill="#5f8468" d="m210 324 7 14-10 2c-7 0-14 1-20 3-6 1-12 0-17-2l-13-7c-6-8-11-16-15-25l13-2c7-2 14-3 22-3 15-1 26 6 33 20Z" style="opacity:.995"/><path fill="#995714" d="M239 360c-6 1-11 3-15 7-8-8-12-17-13-27h-4l10-2-7-14c2-7 5-12 10-18 7-3 11 0 13 8l-5 12c-1 7 0 14 2 21l9 13Z" style="opacity:1"/><path fill="#ea9c2d" d="m378 309 1 1 10 8c4 7 4 15 2 24-23-9-40-3-53 18l-3 9c-1 10-1 20 1 31-9-16-22-29-37-38l13-11 36-35c8-9 18-11 30-7Z" style="opacity:.994"/><path fill="#fc7653" d="m157 334 13 7c5 2 11 3 17 2 6-2 13-3 20-3h4c1 10 5 19 13 27-14 7-24 18-30 32l-33-3-4-62Z" style="opacity:1"/><path fill="#f55647" d="m391 342 22 13v21l-21-3c-7 5-7 11 0 16 19 6 39 6 59 0l4-3v-9l-4-4c-7 0-14 1-20 3v-18c-1-2 0-3 1-4l22-14c20-7 36-1 49 16l5 13c2 32-4 64-18 94l-21 42-8 7h-12c-10-8-20-16-28-25l-26 25h-12c-4-2-8-5-10-8l-21-44-8-23c-1-13-4-26-8-37-2-11-2-21-1-31l3-9c13-21 30-27 53-18Z" style="opacity:.994"/><path fill="#fe9226" d="M299 362c15 9 28 22 37 38 4 11 7 24 8 37-2 12-6 23-11 35a80 80 0 0 1-60 40h-18l-14-3c-38-16-56-44-54-85 1-9 3-17 7-25a77 77 0 0 1 45-39l11-4h28l21 6Z" style="opacity:1"/><path fill="#dc4d40" d="M431 358v18c6-2 13-3 20-3l4 4v9l-4 3c-20 6-40 6-59 0-7-5-7-11 0-16l21 3 17 1c-1-7 0-13 1-19Z" style="opacity:1"/><path fill="#ea9d2d" d="M111 380a183 183 0 0 0 83 19c-4 8-6 16-7 25-30-8-55-23-76-44Z" style="opacity:.987"/><path fill="#e58522" d="M222 408h17v17h-17v-17Z" style="opacity:1"/><path fill="#e68523" d="M257 425h17v17h-17v-17Z" style="opacity:1"/><path fill="#f3ad3d" d="m344 437 8 23c-5 2-10 6-14 10l-5 2c5-12 9-23 11-35Z" style="opacity:.98"/><path fill="#e78523" d="M230 451h18v18h-18v-18Z" style="opacity:1"/><path fill="#fc7754" d="m338 470-3 42h-62c26-4 46-18 60-40l5-2Z" style="opacity:1"/><path fill="#fc7a51" d="m241 509 14 3h-40l26-3Z" style="opacity:1"/></svg>