<?xml version="1.0" encoding="UTF-8"?>
<svg xmlns="http://www.w3.org/2000/svg" xmlns:xlink="http://www.w3.org/1999/xlink" width="24px" height="24px" viewBox="0 0 24 24" version="1.1">
<g id="surface1">
<path style=" stroke:none;fill-rule:evenodd;fill:rgb(98.431373%,73.72549%,1.960784%);fill-opacity:1;" d="M 5.164062 12 C 5.164062 11.238281 5.289062 10.507812 5.515625 9.820312 L 1.5625 6.800781 C 0.792969 8.367188 0.355469 10.128906 0.355469 12 C 0.355469 13.867188 0.789062 15.628906 1.558594 17.195312 L 5.511719 14.167969 C 5.289062 13.488281 5.164062 12.757812 5.164062 12 "/>
<path style=" stroke:none;fill-rule:evenodd;fill:rgb(92.156863%,26.27451%,20.784314%);fill-opacity:1;" d="M 12.105469 5.066406 C 13.761719 5.066406 15.257812 5.652344 16.433594 6.613281 L 19.851562 3.199219 C 17.769531 1.386719 15.097656 0.265625 12.105469 0.265625 C 7.464844 0.265625 3.472656 2.921875 1.5625 6.800781 L 5.515625 9.820312 C 6.425781 7.054688 9.023438 5.066406 12.105469 5.066406 "/>
<path style=" stroke:none;fill-rule:evenodd;fill:rgb(20.392157%,65.882353%,32.54902%);fill-opacity:1;" d="M 12.105469 18.933594 C 9.023438 18.933594 6.425781 16.945312 5.515625 14.179688 L 1.5625 17.199219 C 3.472656 21.078125 7.464844 23.734375 12.105469 23.734375 C 14.972656 23.734375 17.707031 22.714844 19.761719 20.808594 L 16.007812 17.90625 C 14.949219 18.574219 13.617188 18.933594 12.105469 18.933594 "/>
<path style=" stroke:none;fill-rule:evenodd;fill:rgb(25.882353%,52.156863%,95.686275%);fill-opacity:1;" d="M 23.324219 12 C 23.324219 11.308594 23.214844 10.558594 23.054688 9.867188 L 12.105469 9.867188 L 12.105469 14.398438 L 18.410156 14.398438 C 18.09375 15.945312 17.234375 17.132812 16.007812 17.90625 L 19.761719 20.808594 C 21.917969 18.808594 23.324219 15.824219 23.324219 12 "/>
</g>
</svg>
