<svg xmlns="http://www.w3.org/2000/svg" width="500" height="500" style="shape-rendering:geometricPrecision;text-rendering:geometricPrecision;image-rendering:optimizeQuality;fill-rule:evenodd;clip-rule:evenodd"><path fill="#a5c95f" d="M471.5 39.5c-75.2-.3-150.2 0-225 1-1.3.8-2.5 1.8-3.5 3-.8 13-.6 26 .5 39-.6-.1-1.1-.4-1.5-1-.7-13-.7-26 0-39l3.5-3.5c75.5-.8 150.8-.7 226 .5Z" style="opacity:1"/><path fill="#a1ce48" d="M246.5 40.5c74.8-1 149.8-1.3 225-1 2.3.4 3.8 1.7 4.5 4 .7 12.3.7 24.7 0 37a7.5 7.5 0 0 1-4.5 4.5c-6.3.5-12.7.7-19 .5h-1a142 142 0 0 1 17-1.5 7.7 7.7 0 0 0 5.5-3.5c.7-11.7.7-23.3 0-35-1.2-3.7-3.5-4.7-7-3l-1.5-1.5c-73-.5-146-.7-219-.5Z" style="opacity:1"/><path fill="#97d228" d="M246.5 40.5c73-.2 146 0 219 .5l1.5 1.5c3.5-1.7 5.8-.7 7 3 .7 11.7.7 23.3 0 35a7.7 7.7 0 0 1-5.5 3.5c-5.8.2-11.5.7-17 1.5h-187c-6.3.2-12.7 0-19-.5a7 7 0 0 1-2-2.5c-1.1-13-1.3-26-.5-39 1-1.2 2.2-2.2 3.5-3Z" style="opacity:1"/><path fill="#fde548" d="M265.5 85.5h187c-.3 13 0 26 1 39a75 75 0 0 1 14 9c-2.8-1.4-5.8-2-9-2v-3c-3.6.2-5.9-.8-7-3-.6.2-1 .5-1.5 1-61.3-2-122.8-2.7-184.5-2v-39Z" style="opacity:1"/><path fill="#fef7b6" d="M264.5 85.5h1v39c-.3.8-1 1.2-2 1 1-13.3 1.3-26.6 1-40Z" style="opacity:.304"/><path fill="#fed10b" d="M265.5 124.5c61.7-.7 123.2 0 184.5 2 .4-.5 1-.8 1.5-1 1.1 2.2 3.4 3.2 7 3v3c3.2 0 6.2.6 9 2 2.9.9 5.6 2.2 8 4 .6 2 1 4 1 6 5-.5 6 1 3 4.5 5.3 0 8.3 2.9 9 8.5 0 2-.6 3.6-2 5l2.5 1 1 3c.5 87.3.7 174.7.5 262a9.6 9.6 0 0 0-1 6h-4c.2 2 0 4-.5 6-1.2-2-2.7-2.3-4.5-1 3 2.9 2.3 4.2-2 4 .2 1.4 0 2.7-.5 4-.4-.5-1-.8-1.5-1-1 2.4-2.8 4-5 5-71 .2-142 0-213-.5 2.6-1 4.2-2.9 5-5.5a46 46 0 0 1 5.5-6c.7-2.3 1.2-4.6 1.5-7h1c.8-.8 1.3-1.8 1.5-3 .7-54 .7-108 0-162a5.5 5.5 0 0 0-1.5-3c-1-5.7-4-10-9-13a29.8 29.8 0 0 0-15-8.5c-4.7-.5-9.3-.7-14-.5v-38c4.3.2 8.7 0 13-.5a4 4 0 0 0 2-3.5l1-2a284 284 0 0 0 1.5-24 13 13 0 0 1 4.5-4c-1.2-1-2-2.4-2.5-4-2.4 2.7-4.2 2.2-5.5-1.5a8.4 8.4 0 0 0-4-.5h-2c-4.1-1-8.5-1.3-13-1 0-3.7.4-7.4 1-11 1.6-4.3 4.3-7.6 8-10 2.5-.8 4.5-2.1 6-4 2.3 0 4-1 5-3 4.7-3.4 9.7-6.4 15-9 1 .2 1.7-.2 2-1Z" style="opacity:1"/><path fill="#fbe479" d="M248.5 134.5c-1 2-2.7 3-5 3a6.6 6.6 0 0 1 5-3Z" style="opacity:.835"/><path fill="#fce375" d="M243.5 137.5a12.6 12.6 0 0 1-6 4 7.6 7.6 0 0 1 6-4Z" style="opacity:1"/><path fill="#ecd651" d="M229.5 151.5a72 72 0 0 0-1 11c4.5-.3 8.9 0 13 1-5.5.3-10.9 0-16-1 .3-4.1 1.6-7.8 4-11Z" style="opacity:1"/><path fill="#9fc4e9" d="M225.5 162.5c5.1 1 10.5 1.3 16 1h2v1c-68.7-.2-137.3 0-206 .5a5.9 5.9 0 0 1-6 2.5c.8-1.3 1.8-2.5 3-3.5 63.7-.2 127.4-.7 191-1.5Z" style="opacity:1"/><path fill="#8cc2fa" d="M243.5 164.5c2.4.5 4 1.8 5 4 .3 10.4 0 20.7-1 31a7 7 0 0 1-4 2c-66.2-.3-132.2 0-198 1a61 61 0 0 1-11-.5l-3.5-3.5c-.8-10.4-.6-20.7.5-31 2.5.4 4.5-.5 6-2.5 68.7-.5 137.3-.7 206-.5Z" style="opacity:1"/><path fill="#efd235" d="M243.5 164.5v-1c1.4-.2 2.7 0 4 .5 1.3 3.7 3 4.2 5.5 1.5.4 1.6 1.3 3 2.5 4a13 13 0 0 0-4.5 4 284 284 0 0 1-1.5 24c.3-9.8 0-19.5-1-29a6.5 6.5 0 0 0-5-4Z" style="opacity:1"/><path fill="#abca17" d="M343.5 167.5h31v24c-1-7.5-1.3-15.1-1-23h-29c.3 2.6 0 4.9-1 7v-8Z" style="opacity:1"/><path fill="#98d127" d="M374.5 191.5c1 .1 2 0 3-.5 2.9-4 5.9-7.9 9-11.5 2.6-5.3 5.3-5.3 8 0 5.9 6.4 11.9 12.5 18 18.5a255.4 255.4 0 0 1-25 21.5 56 56 0 0 1-12 9.5c-11.3.7-22.7.7-34 0L306 200.5c-.7-3.6.4-6.2 3.5-8a206 206 0 0 0 18-16c2.6 1.9 5 3.9 7.5 6 1.7 4.2 4.5 7.2 8.5 9v-16c1-2.1 1.3-4.4 1-7h29c-.3 7.9 0 15.5 1 23Z" style="opacity:1"/><path fill="#a9c3b3" d="M248.5 168.5c1 9.5 1.3 19.2 1 29l-1 2h-1c1-10.3 1.3-20.6 1-31Z" style="opacity:1"/><path fill="#f7dd65" d="M475.5 137.5a33 33 0 0 1 16.5 24c.8 88.7.7 177.4-.5 266h-1c.2-87.3 0-174.7-.5-262l-1-3-2.5-1c1.4-1.4 2-3 2-5-.7-5.6-3.7-8.5-9-8.5 3-3.5 2-5-3-4.5 0-2-.4-4-1-6Z" style="opacity:1"/><path fill="#f1d411" d="M343.5 167.5v24c-4-1.8-6.8-4.8-8.5-9-2.4-2.1-5-4.1-7.5-6a206 206 0 0 1-18 16c2.6-3 5.4-6 8.5-9 .1-1.3-.4-2.4-1.5-3.5 1.3-2.7 3.3-3.2 6-1.5 1.4-1.4 3.1-2.4 5-3 2 .8 3.8 1.8 5.5 3 1-.4 1.6-1 2-2a7.8 7.8 0 0 1 3 6c.8-.6 1.6-1.1 2.5-1.5a28 28 0 0 1 0-13.5h3Z" style="opacity:1"/><path fill="#d8d91c" d="M374.5 167.5c1 6.8 1.3 13.8 1 21 1 .1 2 0 3-.5 2-3.5 4.6-6.3 8-8.5-3.1 3.6-6.1 7.5-9 11.5a5 5 0 0 1-3 .5v-24Z" style="opacity:1"/><path fill="#e7d513" d="M394.5 179.5c4.7 3.2 9 7 13 11.5a65 65 0 0 1 8 2.5c-.6 2.6-1 5.3-1 8-1.4-.2-2.7 0-4 .5a26.8 26.8 0 0 1-15 12 18 18 0 0 1-8 5.5c8.8-6.6 17.1-13.8 25-21.5-6.1-6-12.1-12.1-18-18.5Z" style="opacity:1"/><path fill="#b9bac4" d="M243.5 201.5c-3.1 1-6.5 1.3-10 1-62.5-.3-124.8 0-187 1-.7 0-1-.3-1-1 65.8-1 131.8-1.3 198-1Z" style="opacity:1"/><path fill="#e4d055" d="M247.5 199.5h1a4 4 0 0 1-2 3.5c-4.3.5-8.7.7-13 .5v-1c3.5.3 6.9 0 10-1a7 7 0 0 0 4-2Z" style="opacity:1"/><path fill="#ef8233" d="M233.5 203.5v38h-185v-37c61.5-1 123.2-1.3 185-1Z" style="opacity:1"/><path fill="#cc926c" d="M233.5 202.5v1c-61.8-.3-123.5 0-185 1-.8 12.2-1.3 24.5-1.5 37-7.2.6-14.4 1.6-21.5 3 1.8-1.1 3.8-2 6-2.5 5-.2 9.8-.7 14.5-1.5.5-12.3.7-24.7.5-37 62.2-1 124.5-1.3 187-1Z" style="opacity:1"/><path fill="#f9934b" d="M403.5 245.5c0 3 .8 5.6 2.5 8 .5 6 .7 12 .5 18-1.8 4.7-3 9.7-3.5 15-.4.6-.9.9-1.5 1a96.5 96.5 0 0 1-6.5 18c-1.7 6.9-2.9 13.9-3.5 21a433 433 0 0 1-11 44c-2.7 3.8-4 8.1-4 13h-3c.3-2.3-.2-4.3-1.5-6-3.1 3.8-3.3 7.8-.5 12 1-1.2 2-2.5 2.5-4 .6 7.1-1.6 13.3-6.5 18.5-1.7.3-3-.3-4-2-3-.7-6-.7-9 0 2.8 2.2 2.5 3.7-1 4.5-2.2-.7-4-2-5.5-4a77.7 77.7 0 0 1-3-14c-2.2-4-4-8.1-5.5-12.5-.7-6-2.2-11.9-4.5-17.5a38 38 0 0 1 1-11c-.7-1.1-1.6-1.1-2.5 0-.9-2.4-1.9-4.7-3-7 1.8-2.7 1.1-4.4-2-5a140 140 0 0 0-6-26c.7-2 1-4 1-6h-3c.3-2 0-3.6-1-5-1.8-1.5-2.4-3.5-2-6-1.3-7.9-3-15.7-5-23.5-1.4-7.3-1-14.5 1.5-21.5 2.4-2 4.2-4.2 5.5-7a9.1 9.1 0 0 1 5-1c-.2-1.3.2-2.5 1-3.5 3.7-1 7-2.4 10-4.5 17.5-1.4 35.2-1.2 53 .5 4.3 2.2 8.3 4.8 12 8a9 9 0 0 1 3 5.5Z" style="opacity:1"/><path fill="#f9934c" d="M48.5 204.5v37h185c4.7-.2 9.3 0 14 .5a29.8 29.8 0 0 1 15 8.5c0 1 .4 2 1 3a18.2 18.2 0 0 0-2.5 9c-1 .8-1.6 1.8-2 3-1.6-2.6-3.1-2.6-4.5 0 1 3.2 3 3.9 6 2a13 13 0 0 1 6 4l2-.5c-.7-2.7-2.2-4.9-4.5-6.5 0-8 2-8.6 6-2 .5 56.3.7 112.7.5 169-1.8 2.3-3.3 5-4.5 8-1.7 2-3.7 3.7-6 5a5 5 0 0 0-.5 3c-3.6 1.6-7.2 3-11 4-72.3.2-144.7 0-217-.5a29 29 0 0 1-12-8 8.4 8.4 0 0 0-4-.5 37 37 0 0 0-6-10c-1.3-57-1.3-114 0-171a12.8 12.8 0 0 1 10-10c1.8-2.6 3.8-5 6-7 7.1-1.4 14.3-2.4 21.5-3 .2-12.5.7-24.8 1.5-37Z" style="opacity:1"/><path fill="#f1aa78" d="M25.5 244.5c-2.2 2-4.2 4.4-6 7-2.9.6-5.2 2-7 4 2.8-5.5 7.1-9.1 13-11Z" style="opacity:1"/><path fill="#f69e39" d="M335.5 231.5c-3 2-6.3 3.6-10 4.5-.8 1-1.2 2.2-1 3.5-1.8-.1-3.4.2-5 1-1.3 2.8-3 5-5.5 7-2.4 7-3 14.2-1.5 21.5 2 7.8 3.7 15.6 5 23.5-.6-.1-1.1-.4-1.5-1-1.5-5-2.5-10-3-15-7.6-18-3.4-32.5 12.5-43.5 3.3-1 6.6-1.5 10-1.5Z" style="opacity:1"/><path fill="#f49e35" d="M403.5 245.5c1.4 1.8 2.6 3.8 3.5 6 .8 6.8.7 13.5-.5 20 .2-6 0-12-.5-18-1.7-2.4-2.5-5-2.5-8Z" style="opacity:1"/><path fill="#936d4f" d="M145.5 267.5c-1.6-.4-3.3-.8-5-1-1.9-.2-3.2.5-4 2-1.1 0-2.1.4-3 1v-1c2.3-3.6 5.7-4.7 10-3.5a7 7 0 0 1 2 2.5Z" style="opacity:1"/><path fill="#6f5e51" d="M136.5 268.5c-.3.8-.8 1.5-1.5 2-.7 5.3-.7 10.7 0 16 3.7 1 7.6 1.3 11.5 1 .2-6 0-12-1-18 .6.1 1.1.4 1.5 1l.5 9c0 3.4-.7 6.4-2 9h-13c-.3-6.5 0-12.9 1-19 .9-.6 1.9-1 3-1Z" style="opacity:1"/><path fill="#646363" d="M145.5 267.5v2c1 6 1.2 12 1 18-4 .3-7.8 0-11.5-1-.7-5.3-.7-10.7 0-16 .7-.5 1.2-1.2 1.5-2 .8-1.5 2.1-2.2 4-2 1.7.2 3.4.6 5 1Z" style="opacity:1"/><path fill="#bd8358" d="M145.5 267.5a7 7 0 0 1 2.5 2c.2 6.7.7 13.4 1.5 20-1.6.3-3 0-4-1 1.3-2.6 2-5.6 2-9l-.5-9c-.4-.6-.9-.9-1.5-1v-2Z" style="opacity:1"/><path fill="#e69862" d="M9.5 261.5c-1.3 57-1.3 114 0 171a5.5 5.5 0 0 1-1.5-3c-.2-8.5-.7-17-1.5-25.5.8-46.5 1.3-93 1.5-139.5.2-1.2.7-2.2 1.5-3Z" style="opacity:1"/><path fill="#e29762" d="M133.5 268.5v1c-1 6.1-1.3 12.5-1 19-.3.8-1 1.2-2 1-.2-6 0-12 .5-18 .2-1.6 1-2.6 2.5-3Z" style="opacity:1"/><path fill="#f89640" d="M262.5 250.5c5 3 8 7.3 9 13 1.3 56 1.3 112 0 168h-1c.2-56.3 0-112.7-.5-169-4-6.6-6-6-6 2 2.3 1.6 3.8 3.8 4.5 6.5l-2 .5a13 13 0 0 0-6-4c-3 1.9-5 1.2-6-2 1.4-2.6 2.9-2.6 4.5 0 .4-1.2 1-2.2 2-3 0-3.3.9-6.3 2.5-9-.6-1-1-2-1-3Z" style="opacity:1"/><path fill="#feb231" d="M271.5 263.5c.8.8 1.3 1.8 1.5 3 .7 54 .7 108 0 162a5.5 5.5 0 0 1-1.5 3c1.3-56 1.3-112 0-168Z" style="opacity:1"/><path fill="#f9d9aa" d="M132.5 288.5h13c1 1 2.4 1.3 4 1 13.8 2 25.5 8 35 18 .4 1.7.9 3.3 1.5 5 2.7 2.4 5 5 7 8 2.9 5 4.9 10.2 6 16 .7.5 1.2 1.2 1.5 2 3.3.6 6.5 1.6 9.5 3 3.8 4 6 8.6 6.5 14a9.6 9.6 0 0 1-4 8.5c.5.4.8 1 1 1.5a34.2 34.2 0 0 1-7.5 6l-1-1a82.8 82.8 0 0 1-10.5 3.5l1 1c-2.7 7-6.8 12.8-12.5 17.5-1.1 2-2 4-2.5 6a63.8 63.8 0 0 1-74 5.5c-5.2-4.4-10.2-8.9-15-13.5-3.3-4.8-6.3-9.8-9-15a24 24 0 0 1-17-9 28.2 28.2 0 0 1-2.5-18c1.7-2.2 3.2-4.6 4.5-7 3.3-3.3 7.3-5.7 12-7 8-25.3 25-40.3 51-45 1 .2 1.7-.2 2-1Z" style="opacity:1"/><path fill="#f59c3b" d="M401.5 287.5c0 4.4-.6 8.8-2 13-3.3 8.6-6 17.2-8 26 .6-7.1 1.8-14.1 3.5-21 2.8-5.9 5-11.9 6.5-18Z" style="opacity:1"/><path fill="#f49c39" d="M319.5 298.5c1 1.4 1.3 3 1 5h3c0 2-.3 4-1 6a140 140 0 0 1 6 26 166.1 166.1 0 0 1-9-37Z" style="opacity:1"/><path fill="#676562" d="M113.5 335.5c7.7-.8 11.2 2.5 10.5 10-2.4 4.7-6.3 6.2-11.5 4.5a12 12 0 0 1-2.5-11.5c1.1-1.1 2.3-2.1 3.5-3Z" style="opacity:1"/><path fill="#6d6760" d="M160.5 335.5c10.4.2 13 4.7 8 13.5-8.5 3.5-12.7.6-12.5-8.5a11 11 0 0 1 4.5-5Z" style="opacity:1"/><path fill="#fed49d" d="M184.5 307.5c2.3 1.8 4.5 3.8 6.5 6 4 7 7.2 14.3 9.5 22 17 4.9 21.6 15.2 14 31a27 27 0 0 1-16 8.5 124.7 124.7 0 0 1-18 23.5c.5-2 1.4-4 2.5-6a41.4 41.4 0 0 0 12.5-17.5l-1-1c3.6-1 7.1-2.1 10.5-3.5l1 1c2.8-1.6 5.3-3.6 7.5-6-.2-.6-.5-1-1-1.5 2.8-2.1 4.1-5 4-8.5-.6-5.4-2.7-10-6.5-14-3-1.4-6.2-2.4-9.5-3-.3-.8-.8-1.5-1.5-2-1.1-5.8-3.1-11-6-16-2-3-4.3-5.6-7-8-.6-1.7-1.1-3.3-1.5-5Z" style="opacity:1"/><path fill="#f3a464" d="M67.5 341.5a43.9 43.9 0 0 1-4.5 7 28.2 28.2 0 0 0 2.5 18 5.7 5.7 0 0 1-3.5-5c-1.2-4.6-2-9.3-2.5-14 2.9-1.5 5.6-3.5 8-6Z" style="opacity:1"/><path fill="#f7ca97" d="M160.5 364.5c8.1-.1 11.3 3.9 9.5 12a44.2 44.2 0 0 1-26 13 23 23 0 0 0-8 0 36.6 36.6 0 0 1-24-11c-5-11-1.5-15.2 10.5-12.5a23.4 23.4 0 0 0 25 8c2-1 4-1.8 6-2.5 2-2.7 4.4-5 7-7Z" style="opacity:1"/><path fill="#f79742" d="M328.5 335.5c3.1.6 3.8 2.3 2 5 1.1 2.3 2.1 4.6 3 7 1-1.1 1.8-1.1 2.5 0a38 38 0 0 0-1 11 65.7 65.7 0 0 1 4.5 17.5c1.5 4.4 3.3 8.6 5.5 12.5.6 4.8 1.6 9.4 3 14 1.4 2 3.3 3.3 5.5 4 3.5-.8 3.8-2.3 1-4.5 3-.7 6-.7 9 0 1 1.7 2.3 2.3 4 2 5-5.2 7-11.4 6.5-18.5-.6 1.5-1.4 2.8-2.5 4-2.8-4.2-2.6-8.2.5-12a7.8 7.8 0 0 1 1.5 6h3c0-4.9 1.3-9.2 4-13a1560 1560 0 0 1-7.5 31c-5 6.2-11.5 8.7-19.5 7.5-4.2-2.5-7.4-6-9.5-10.5l-15.5-63Z" style="opacity:1"/><path fill="#fde28a" d="M490.5 427.5h1c-.1 2.3-.8 4.3-2 6-.3-2.2 0-4.2 1-6Z" style="opacity:1"/><path fill="#f1b88d" d="M9.5 432.5a37 37 0 0 1 6 10 16.2 16.2 0 0 1-6-10Z" style="opacity:1"/><path fill="#fbd94c" d="M489.5 433.5a28.5 28.5 0 0 1-18 17c2.2-1 4-2.6 5-5 .6.2 1 .5 1.5 1 .5-1.3.7-2.6.5-4 4.3.2 5-1.1 2-4 1.8-1.3 3.3-1 4.5 1 .5-2 .7-4 .5-6h4Z" style="opacity:1"/><path fill="#f6a731" d="M270.5 431.5c-.3 2.4-.8 4.7-1.5 7a46 46 0 0 0-5.5 6 12 12 0 0 0-4 3c-.1-1 0-2 .5-3 2.3-1.3 4.3-3 6-5 1.2-3 2.7-5.7 4.5-8Z" style="opacity:1"/><path fill="#f4cf31" d="M263.5 444.5a8.2 8.2 0 0 1-5 5.5c71 .5 142 .7 213 .5-.8.8-1.8 1.3-3 1.5-73.3.5-146.7.7-220 .5v-1c3.8-1 7.4-2.4 11-4a12 12 0 0 1 4-3Z" style="opacity:1"/><path fill="#de9969" d="M15.5 442.5c1.4-.2 2.7 0 4 .5a29 29 0 0 0 12 8c72.3.5 144.7.7 217 .5v1c-72.7.2-145.3 0-218-.5-6-1.7-11-4.8-15-9.5Z" style="opacity:1"/></svg>