<svg xmlns="http://www.w3.org/2000/svg" width="512" height="512" style="shape-rendering:geometricPrecision;text-rendering:geometricPrecision;image-rendering:optimizeQuality;fill-rule:evenodd;clip-rule:evenodd"><path fill="#348021" d="M475.5 62.5a76.6 76.6 0 0 0-29 8.5 283.4 283.4 0 0 0-34 19.5c-5.6-5-12-8.6-19-11-31.7-10.8-57.5-2.8-77.5 24a59 59 0 0 0-9.5 30c-.7 1.5-1 3.1-1 5a282 282 0 0 1 1.5 14 50 50 0 0 0-13.5-19 64.3 64.3 0 0 0-61-16.5c-36.3 13.4-51.3 39.3-45 77.5 1.2 6.8 3.8 13 8 18.5-.2.4-.6.6-1 .5-26.5-22-54.2-23.6-83-4.5a62 62 0 0 0-22 34.5c-.7 0-1 .3-1 1a248.3 248.3 0 0 0-52 29 225.7 225.7 0 0 1 40.5-72c36-40.7 77.8-73.8 125.5-99.5a484.9 484.9 0 0 1 140-54 286 286 0 0 1 87-2c16.5 2.5 31.9 8 46 16.5Z" style="opacity:.99"/><path fill="#61c036" d="M475.5 62.5c3 .9 4.8 2.9 5.5 6 2.4 39.9-6.3 77.2-26 112a265.3 265.3 0 0 1-46.5 59c-15.8-6.1-32.2-11-49-14.5-55-10-110.3-12.1-166-6.5a7 7 0 0 0 2-4c41.7-48.4 94.3-68.6 158-60.5 15.7-24.9 35.4-46 59-63.5a283.4 283.4 0 0 1 34-19.5 76.6 76.6 0 0 1 29-8.5Z" style="opacity:.998"/><path fill="#97da7b" d="M393.5 79.5a224.4 224.4 0 0 0-49 54.5 1914 1914 0 0 0-38-.5 59 59 0 0 1 9.5-30c20-26.8 45.8-34.8 77.5-24ZM293.5 133.5a172.5 172.5 0 0 0-106 61c-6.3-38.2 8.8-64 45-77.5 23.4-5.1 43.7.4 61 16.5Z" style="opacity:1"/><path fill="#81d260" d="M393.5 79.5c7 2.4 13.4 6 19 11a232.8 232.8 0 0 0-59 63.5c-63.7-8-116.3 12.1-158 60.5-.7 0-1-.3-1-1 .4 0 .8-.1 1-.5a41.9 41.9 0 0 1-8-18.5 172.5 172.5 0 0 1 106-61 50 50 0 0 1 13.5 19 282 282 0 0 0-1.5-14c0-1.9.3-3.5 1-5 12.7 0 25.4.2 38 .5 13.3-20.8 29.7-39 49-54.5Z" style="opacity:1"/><path fill="#97da7b" d="M194.5 213.5c0 .7.3 1 1 1a7 7 0 0 1-2 4c-.7 0-1 .3-1 1a376.9 376.9 0 0 0-103 24 62 62 0 0 1 22-34.5c28.8-19 56.5-17.6 83 4.5Z" style="opacity:1"/><path fill="#5bad31" d="m408.5 239.5-12 13a565.2 565.2 0 0 0-216-13 152.1 152.1 0 0 1 13-21c55.7-5.6 111-3.5 166 6.5 16.8 3.6 33.2 8.4 49 14.5Z" style="opacity:1"/><path fill="#81d260" d="M192.5 219.5c-4.5 6.4-8.5 13-12 20-32.4 4-63.7 12-94 24-.2-6.4.5-12.8 2-19 0-.7.3-1 1-1a376.9 376.9 0 0 1 103-24Z" style="opacity:1"/><path fill="#348021" d="M396.5 252.5c29 9 55.7 22.5 80 40.5a103 103 0 0 1 15 14.5 180.8 180.8 0 0 0-59 1h-1a62.8 62.8 0 0 0-105 5 30 30 0 0 0-6.5 13 76 76 0 0 0-2.5-17 62.8 62.8 0 0 0-48-48.5c-31-5-54.4 5.9-70.5 32.5-2.7 5-4.5 10.4-5.5 16a76 76 0 0 0-2.5 17 30 30 0 0 0-6.5-13 61.6 61.6 0 0 0-56-31 61.4 61.4 0 0 0-49 26h-1c-4.4-1.4-9-2.3-14-2.5a390 390 0 0 0-44 .5c3-4 6.7-7.4 11-10a254.6 254.6 0 0 1 55-33c30.3-12 61.6-20 94-24a565.2 565.2 0 0 1 216 13Z" style="opacity:.997"/><path fill="#2e701b" d="M88.5 244.5a72.3 72.3 0 0 0-2 19 254.6 254.6 0 0 0-55 33c.8-7.9 2.4-15.6 5-23a248.3 248.3 0 0 1 52-29Z" style="opacity:1"/><path fill="#97da7b" d="M317.5 309.5c-41.4-16-82.7-16-124 0 1-5.6 2.8-11 5.5-16 16-26.6 39.6-37.5 70.5-32.5a62.8 62.8 0 0 1 48 48.5ZM184.5 313.5c-11.5 5.6-22.5 12-33 19a218.5 218.5 0 0 0-72-24 61.4 61.4 0 0 1 49-26 61.6 61.6 0 0 1 56 31ZM431.5 308.5a218.5 218.5 0 0 0-72 24c-10.7-6.7-21.7-13-33-19a62.8 62.8 0 0 1 105-5Z" style="opacity:1"/><path fill="#2e701b" d="M78.5 308.5c-3.6 5.3-6.3 11-8 17-14.3-1-28.6-1.2-43-.5-8 .9-15.6 2.4-23 4.5h-3c5.2-8.6 11.6-16.2 19-23a390 390 0 0 1 44-.5c5 .2 9.6 1 14 2.5ZM491.5 307.5a75.3 75.3 0 0 1 18 23 128.7 128.7 0 0 0-29-5.5c-13.4-.7-26.7-.5-40 .5-1.9-6-4.5-11.7-8-17 19.5-3.6 39.1-3.9 59-1Z" style="opacity:1"/><path fill="#81d260" d="M317.5 309.5a76 76 0 0 1 2.5 17 30 30 0 0 1 6.5-13c11.3 6 22.3 12.3 33 19a218.5 218.5 0 0 1 72-24h1c3.5 5.3 6.1 11 8 17a248 248 0 0 0-81.5 26c-60-42-122.4-46.2-187.5-12.5-6.4 4.3-13 8.5-19.5 12.5a248 248 0 0 0-81.5-26c1.7-6 4.4-11.8 8-17h1a218.5 218.5 0 0 1 72 24c10.5-7 21.5-13.4 33-19a30 30 0 0 1 6.5 13 76 76 0 0 1 2.5-17c41.3-16 82.6-16 124 0Z" style="opacity:1"/><path fill="#61c036" d="M440.5 325.5c13.3-1 26.6-1.2 40-.5 9 .6 17.6 2.1 26 4.5-4.8 10-10.6 19.3-17.5 28A238.6 238.6 0 0 1 368.5 434a458.9 458.9 0 0 1-146 14 319.3 319.3 0 0 1-148-44A225 225 0 0 1 10 340.5c-2.4-3.4-4.2-7-5.5-11 7.4-2.1 15-3.6 23-4.5 14.4-.7 28.7-.6 43 .5a248 248 0 0 1 81.5 26c6.6-4 13-8.2 19.5-12.5 65-33.7 127.6-29.5 187.5 12.5a248 248 0 0 1 81.5-26Z" style="opacity:1"/><path fill="#5cad32" d="M1.5 329.5h3c1.3 4 3.1 7.6 5.5 11A225 225 0 0 0 74.5 404c45.6 26.7 95 41.4 148 44 49.5 3.2 98.1-1.5 146-14 48-13.3 88.2-38.8 120.5-76.5 6.9-8.7 12.7-18 17.5-28 1.1 0 2.1.4 3 1l2 2v9a208.6 208.6 0 0 1-104 97.5 360.8 360.8 0 0 1-152 28.5 360.2 360.2 0 0 1-154-29.5 208.1 208.1 0 0 1-102-96.5v-9a7 7 0 0 0 2-3Z" style="opacity:1"/></svg>