<svg xmlns="http://www.w3.org/2000/svg" width="256" height="256" style="shape-rendering:geometricPrecision;text-rendering:geometricPrecision;image-rendering:optimizeQuality;fill-rule:evenodd;clip-rule:evenodd"><path style="opacity:.99" d="M184 0h9c8 6 15 15 21 25l27 2c7 3 12 9 15 17v174c-3 8-9 14-18 17l-91 1-9 15-5 5h-10l-6-5-8-15-91-1c-10-3-16-9-18-17V44c2-9 8-15 18-18l146-1c4-11 11-19 20-25Z"/><path style="opacity:1" fill="#9dc5fb" d="M187 11h4c8 7 13 16 15 27-2 13-10 18-22 17-11-4-15-12-12-23 3-8 8-15 15-21Z"/><path style="opacity:1" fill="#fdc043" d="M110 212c4-1 8-2 13-1 0 3 3 5 7 4l3-4c4-1 8 0 13 1 0 1 0 2 2 3h85l2-2V49l-2-3h-18l1-10c7-1 14 0 21 1 4 2 7 5 8 10 1 56 1 113-1 170-2 4-5 7-10 8l-93 1-13 20-12-18-2-2-93-1c-6-2-10-5-11-11V47c2-6 5-9 11-11h141v10H23l-3 3v164l3 2h84l3-3Z"/><path style="opacity:1" fill="#fed98e" d="M146 212c-5-1-9-2-13-1-1-4-4-6-7-5-2 1-3 3-3 5-5-1-9 0-13 1 0-3-1-5-3-6H30V56h138c13 13 27 13 41 0h17v150h-78c-2 1-3 3-2 6Z"/><path style="opacity:1" fill="#070503" d="M83 103c4 0 7 1 10 5l5-5c6-1 8 2 6 8l-4 4 4 5c2 5 0 8-6 7l-5-4-5 4c-7 1-9-2-7-7l5-5c-6-3-7-7-3-12ZM153 103c4 0 7 1 10 5l5-5c6-1 8 2 6 8l-4 4 4 5c2 5 0 8-6 7l-5-4-5 4c-7 1-9-2-7-7l5-5c-6-3-7-7-3-12Z"/><path style="opacity:1" fill="#0c0a06" d="M122 140c10-1 19 2 27 10 1 5-2 7-7 6-10-9-19-9-28 0-6 1-9-1-8-6 5-5 10-8 16-10Z"/><path style="opacity:1" fill="#0a0703" d="m133 211-3 4c-4 1-7-1-7-4 0-2 1-4 3-5 3-1 6 1 7 5Z"/></svg>