<svg xmlns="http://www.w3.org/2000/svg" width="512" height="512"><path fill="#FEF0CE" d="m135.0893-.1342 3.8074-.0135c1.397 0 2.7938.0002 4.1907.0005 1.482-.0033 2.964-.007 4.446-.0111 4.0781-.01 8.1562-.0137 12.2344-.0164 4.3962-.004 8.7924-.0135 13.1886-.0222 10.6191-.0198 21.2383-.0298 31.8575-.0387 5.0002-.0044 10.0004-.0098 15.0007-.015 16.6207-.017 33.2414-.0315 49.8621-.0388l12.9393-.0058 3.2484-.0014c17.3693-.0083 34.7385-.0337 52.1077-.0661 17.8307-.0331 35.6613-.0511 53.492-.0543 10.012-.0022 20.024-.011 30.036-.0365a6939.0685 6939.0685 0 0 1 25.5776-.02c4.3495.0045 8.6987.0026 13.0481-.0168 3.9845-.0176 7.9684-.0166 11.9529-.001 1.4387.0023 2.8776-.002 4.3163-.014 11.5925-.0896 19.3365 1.7442 27.8823 9.7123 6.0974 6.3462 7.9644 12.656 8.0036 21.3052l.018 2.2297c.0173 2.4547.0204 4.9093.0234 7.364.0092 1.7647.0193 3.5293.03 5.294.0262 4.7875.0392 9.5749.048 14.3625.006 2.9948.0142 5.9897.023 8.9845.0274 9.3813.0468 18.7625.0545 28.1438.009 10.8087.044 21.6169.102 32.4254.0433 8.368.0634 16.7358.066 25.1039.0022 4.9916.0138 9.9827.0497 14.9742.0331 4.7001.0372 9.3994.0197 14.0996-.0015 1.7172.007 3.4345.027 5.1515.1232 11.3208-.8808 20.4416-8.551 29.488-8.856 8.516-18.5152 9.3606-30.2224 9.2183-1.698-.0334-3.3959-.0673-5.0938-.1016-1.737-.0201-3.474-.0383-5.211-.0547-4.2219-.0437-8.4427-.1125-12.664-.1953l.0084 3.5172c.065 27.5758.1144 55.1516.1448 82.7275.0037 3.397.0076 6.794.0116 10.1908l.0024 2.0493c.013 10.9378.0367 21.8757.0643 32.8135.028 11.2301.0445 22.4602.0508 33.6903.0039 6.305.013 12.6097.0349 18.9146.0204 5.9376.0266 11.875.0221 17.8126.0008 2.176.0068 4.352.0183 6.528.015 2.9788.0113 5.957.0032 8.9359l.0264 2.5882c-.072 9.7753-2.843 18.8399-9.3872 26.2321-8.5984 7.082-16.9569 9.146-28.0176 9.0942l-4.116-.008-2.171-.0092c-3.8322-.0115-7.6641.0091-11.4962.0246-4.8588.0182-9.717.0269-14.5757-.002-3.9443-.0226-7.8872-.011-11.8314.023a265.7878 265.7878 0 0 1-4.4874-.0173c-8.2021-.3163-8.2021-.3163-15.701 2.4186-1.7316 1.7358-3.1361 3.5189-4.6037 5.4761-2.2091 1.8328-4.5395 3.4247-6.9375 5l-1.945 1.2817c-23.1707 14.811-51.7508 19.661-78.7703 14.6416-9.2618-2.0835-17.895-5.65-26.3472-9.9233-1.0583-.535-2.1166-1.07-3.207-1.621-4.97-2.7163-9.0025-5.5177-12.9911-9.5612-6.935-6.7503-12.6457-8.1916-22.1642-8.1396-1.6618.044-3.3236.0889-4.9854.1343a884.2561 884.2561 0 0 1-5.2388.0015c-4.5652 0-9.1272.0626-13.6916.142-7.3044.1154-14.6099.13-21.915.1525-2.5284.016-5.0555.0565-7.5835.1017-13.7104.1799-24.7303-.9686-34.9382-10.8743-6.565-7.0304-7.7362-14.5396-7.9727-23.8359l-.1035-2.7812A634.6315 634.6315 0 0 1 96 438c-1.3458.58-1.3458.58-2.7187 1.1719-17.6365 7.4354-35.8305 11.3934-55.0313 10.5781-4.5665-.106-6.8323.08-10.1875 3.25l-1.5469 1.6484C25 456 25 456 21.3125 456.625 18 456 18 456 15.5625 454.5c-1.746-2.7937-2.0786-5.0276-2.1914-8.3047C14 444 14 444 16.4688 441.5664c4.1145-4.6752 3.4063-10.8377 3.5937-16.7539 1.7419-33.3015 12.2112-61.4186 37.2354-84.3486 10.02-8.6174 21.8954-14.9078 34.4018-19.0423.8065-.267 1.613-.5342 2.4439-.8094L96 320c.1738-5.9772.3004-11.953.3845-17.9321a481.12 481.12 0 0 1 .1436-6.0928c.0855-2.9296.1247-5.857.1555-8.7876l.1095-2.7251c.0039-6.3407-1.6385-9.1777-6.0645-13.6506-2.3172-2.4288-3.5201-4.9844-4.8184-8.0618l-1.4356-3.3398L83.0625 256l-1.4941-3.504A977.2304 977.2304 0 0 1 78 244c-2.8513 0-4.5697.3858-7.246 1.2422l-2.5194.7905-2.6721.8423c-16.3859 5.0128-32.8043 8.5041-48.8125.5-6.1228-5.2879-9.1666-11.8836-12-19.3125l-.746-1.9502c-8.1294-22.4454-5.7478-48.1644 4.246-69.5498 11.8673-22.0174 29.9363-36.5886 53.3125-44.8164 8.3174-2.4458 15.8546-2.9622 24.4766-2.8477l3.2063.0223c2.585.019 5.1697.0455 7.7546.0793l-.027-2.8492a5621.4446 5621.4446 0 0 1-.1802-26.6995c-.0208-4.5747-.049-9.149-.0946-13.7235-.0437-4.422-.0674-8.8439-.0777-13.2661a587.679 587.679 0 0 0-.0434-5.0386c-.1888-15.2033 2.268-25.9444 13.0792-37.138 7.193-6.667 15.6728-10.4033 25.433-10.4193Z"/><path fill="#FEF7E5" d="M181 0c39.0842-.0916 78.1683-.162 117.2526-.2043 4.615-.005 9.2299-.0101 13.8448-.0154l2.7841-.0032c14.8734-.0174 29.7468-.049 44.6202-.0857 15.2631-.0374 30.5262-.0596 45.7894-.0678 9.417-.0054 18.834-.0228 28.251-.0553a4750.1033 4750.1033 0 0 1 19.3767-.0223c3.7257.0026 7.451-.0014 11.1767-.0228 4.0433-.0232 8.086-.0151 12.1293-.0042l3.5521-.0353c10.1423.074 17.0926 2.8162 24.5004 9.7233 6.0974 6.3462 7.9644 12.656 8.0036 21.3052l.018 2.2297c.0173 2.4547.0204 4.9093.0234 7.364.0092 1.7647.0193 3.5293.03 5.294.0262 4.7875.0392 9.5749.048 14.3625.006 2.9948.0142 5.9897.023 8.9845.0274 9.3813.0468 18.7625.0545 28.1438.009 10.8087.044 21.6169.102 32.4254.0433 8.368.0634 16.7358.066 25.1039.0022 4.9916.0138 9.9827.0497 14.9742.0331 4.7001.0372 9.3994.0197 14.0996-.0015 1.7172.007 3.4345.027 5.1515.1232 11.3208-.8808 20.4416-8.551 29.488C489.4963 232.264 470.4037 227 451 227v164c-18.8894-4.7224-18.8894-4.7224-24.5-6.625l-2.191-.7388c-15.608-5.4074-30.8841-11.989-45.4985-19.686-1.8094-.9496-3.629-1.877-5.4511-2.8018-14.3163-7.3461-27.7665-16.0773-40.7344-25.5859l-2.3955-1.7544c-4.067-3.0313-7.6754-6.1704-11.2295-9.8081l1.9472-.0178c6.6836-.0639 13.3667-.1483 20.0499-.2447a1764.915 1764.915 0 0 1 7.4843-.084c3.5847-.0334 7.1686-.0858 10.753-.1418l3.3842-.0193 3.1539-.06 2.7724-.0337c2.9164-.4736 4.3115-1.3963 6.4551-3.3987.6272-1.9343.6272-1.9343.5-4l.0313-2.0625c-.7762-2.8308-2.0145-3.4738-4.5313-4.9375-3.127-.3305-3.127-.3305-6.6384-.0991-1.367.0488-2.7341.0972-4.1012.1454l-2.1904.0932c-3.8768.1498-7.7555.2-11.6345.2668-4.9159.0888-9.8252.2052-14.7365.4404-29.7725 1.3727-29.7725 1.3727-40.1363-7.8632C285.8194 296.4601 280.3594 290.278 277 283l3.5417-.0178c11.0066-.0572 22.013-.1299 33.0193-.218 5.6587-.0447 11.3173-.084 16.9761-.1106 5.4596-.026 10.9189-.0664 16.3783-.1168 2.0844-.0167 4.1688-.0282 6.2533-.0344 2.9164-.0096 5.832-.0376 8.7483-.07l2.62.0043c3.5572-.056 5.8469-.095 8.9975-1.8426 1.8087-1.9674 2.0056-2.9454 1.9655-5.5941l.0313-2.0625c-.7587-2.7669-2.1303-3.4438-4.5313-4.9375-2.182-.4252-2.182-.4252-4.5273-.3314l-2.7353.0058-2.9786.052-3.155.0177c-2.2611.0137-4.5223.0336-6.7834.0592-3.5816.0368-7.1625.0493-10.7443.054-10.1836.0148-20.3666.0499-30.5497.1595-6.2296.0654-12.4576.082-18.6875.0673-2.3715.0038-4.743.0259-7.1142.0667-18.5821.3103-18.5821.3103-23.9035-3.3185-2.0663-2.5434-3.449-4.8706-4.8212-7.8323-.8906-1.2687-1.8051-2.5212-2.75-3.75L250 250l-1.1914-1.6914C246 244.2474 246 244.2474 246 242l1.941-.0044c15.582-.037 31.1638-.096 46.7457-.1795 7.5353-.0398 15.0704-.0722 22.6058-.0871 6.5674-.013 13.1347-.04 19.702-.0836 3.4778-.0227 6.9553-.0383 10.433-.0373 3.8816.0009 7.7624-.0293 11.6438-.0622l3.4984.0152 3.2038-.0421 2.7821-.0112c3.2366-.6724 4.4358-1.927 6.4444-4.5078.6668-3.5425.6668-3.5425 0-7-3.0443-3.065-5.4175-3.3792-9.6441-3.3987l-3.4843-.038-3.81.0043a2139.477 2139.477 0 0 1-4.0215-.0309c-3.636-.0275-7.272-.0368-10.908-.0428-3.8011-.0094-7.602-.0356-11.403-.06-7.1964-.0437-14.3927-.0722-21.5892-.0953-8.1935-.027-16.3868-.071-24.5802-.1163-16.8532-.0929-33.7064-.1646-50.5597-.2223a10382.5997 10382.5997 0 0 1-4.7854-8.5847l-1.3581-2.4329c-14.024-25.1956-24.651-51.7266-32.9815-79.2949l-1.1475-3.7922c-1.754-5.9778-3.218-11.6804-3.7275-17.8953l2.8164-.7344c11.2292-3.0444 19.3715-6.1725 25.5586-16.5781 1.4355-6.1726 1.5094-11.688-1.375-17.4375-4.3315-6.8673-10.2846-10.6584-18.0586-12.7266C194.0111 65.4681 188.0101 65.2324 182 65c-1.8615-13.0801-2.1991-26.0614-2.1875-39.25l-.0022-2.4708c.0002-2.3692.009-4.7382.0217-7.1073l.0036-2.1354C179.88 9.2712 180.383 4.714 181 0Z"/><path fill="#FEB357" d="M141.0625 126.75c23.6989 19.874 23.6989 19.874 25.1758 32.246.3805 12.5163-5.4293 23.3519-13.5393 32.639-2.4366 2.5285-4.9226 4.989-7.449 7.4275l-2.5742 2.545c-6.162 6.05-6.162 6.05-9.6758 8.3925 1.2627 3.4522 2.7058 6.2342 4.8984 9.1797l1.7032 2.3164 1.7734 2.3789C153.4973 240.1914 153.4973 240.1914 152 251c-2.709 9.7016-11.637 15.0844-19.9238 19.7832l-2.7637 1.5293-2.7988 1.5879C118.4382 278.441 112.4167 281.0448 103 280c-6.2866-1.7977-10.3539-5.7152-14-11-2.1902-4.218-4.0412-8.5548-5.875-12.9375l-1.5078-3.5176A1189.0396 1189.0396 0 0 1 78 244c-2.8513 0-4.5697.3858-7.246 1.2422l-2.5194.7905-2.6721.8423c-16.3859 5.0128-32.8043 8.5041-48.8125.5-6.1228-5.2879-9.1666-11.8836-12-19.3125l-.746-1.9502c-8.1294-22.4454-5.7478-48.1644 4.246-69.5498 11.8673-22.0174 29.9363-36.5886 53.3125-44.8164 26.8453-7.894 57.3808-2.0742 79.5 15.0039Z"/><path fill="#FD5C6F" d="M209.0134 382.6138a327.2195 327.2195 0 0 1 6.1702 2.269l3.3972 1.2296c3.6264 1.318 7.2413 2.6649 10.8567 4.0126 2.5316.929 5.0655 1.8518 7.5994 2.7747 6.2214 2.27 12.433 4.5657 18.6422 6.8695 4.5954 1.7031 9.1961 3.3915 13.7975 5.0785 4.5 1.6516 8.999 3.3061 13.4936 4.9729 15.0035 5.5631 30.056 10.9898 45.112 16.4086A4253.0788 4253.0788 0 0 1 344 432l2.1302.7725c1.8203.6627 3.6363 1.3372 5.4518 2.0127l2.8938 1.0705c5.677 2.5736 9.4198 6.2462 12.5242 11.5818 1.9967 7.1132 1.5212 13.105-2 19.5625-2.4347 3.5453-5.1759 6.76-8 10l-1.3018 1.5532C340.037 497.2064 318.099 508.4652 294 512c-22.9218 1.327-42.4951-.633-63-11l-3.207-1.621c-24.4931-13.3862-40.4736-37.211-48.4302-63.483-2.631-9.1055-3.7433-17.9836-3.8628-27.4585l-.0562-2.7388c.0693-7.3427 1.7345-13.4617 6.6265-19.0737L184.125 385l2.0703-1.6875c6.3153-4.593 15.7824-2.9186 22.8181-.6987Z"/><path fill="#FFCE71" d="M498 4c6.9134 5.1078 11.6563 10.5925 14 19 .186 2.499.2695 5.0064.2809 7.5122l.018 2.2297c.0173 2.4547.0204 4.9093.0234 7.364.0092 1.7647.0193 3.5293.03 5.294.0262 4.7875.0392 9.5749.048 14.3625.006 2.9948.0142 5.9897.023 8.9845.0274 9.3813.0468 18.7625.0545 28.1438.009 10.8087.044 21.6169.102 32.4254.0433 8.368.0634 16.7358.066 25.1039.0022 4.9916.0138 9.9827.0497 14.9742.0331 4.7001.0372 9.3994.0197 14.0996-.0015 1.7172.007 3.4345.027 5.1515.1232 11.3208-.8808 20.4416-8.551 29.488-9.6782 9.3066-20.511 9.4109-33.181 9.1685l-2.6352-.0518a2547.5152 2547.5152 0 0 0-5.3555-.0547c-4.3404-.0437-8.6797-.1126-13.0195-.1953-.0935-26.1648-.164-52.3295-.2072-78.4945-.0207-12.1492-.0488-24.2983-.0946-36.4474a10857.242 10857.242 0 0 1-.0746-31.7726c-.0052-5.6063-.0174-11.2124-.0465-16.8186a2517.9772 2517.9772 0 0 1-.0295-15.8427 785.479 785.479 0 0 0-.0244-5.8023c-.102-13.4755.5579-23.6015 10.2541-33.8414C470.1133-1.2293 486.0651-3.8415 498 4Z"/><path fill="#8CE09F" d="m134.4375 314.625 3.1614-.0789c6.1195-.0143 9.7862.2968 14.4011 4.4539 2.2914 3.4371 2.2675 4.7706 2.3008 8.8203l.029 3.535C154.1871 362.3872 147.4605 391.459 126 415l-1.957 2.168c-5.125 5.3964-10.8738 9.6959-17.043 13.832l-1.668 1.1304c-18.0907 12.0994-41.096 18.6599-62.9375 17.7133-6.562-.541-6.562-.541-12.5898 1.4883-1.1246 1.0767-2.2237 2.1811-3.289 3.3164C25 456 25 456 21.3124 456.625 18 456 18 456 15.5625 454.5c-1.746-2.7937-2.0786-5.0276-2.1914-8.3047C14 444 14 444 16.4687 441.5664c4.1146-4.6752 3.4064-10.8377 3.5938-16.7539 1.7419-33.3015 12.2112-61.4186 37.2354-84.3486C72.1346 327.704 90.0742 320.9309 109 317l2.879-.6328c7.4933-1.4169 14.9467-1.6356 22.5585-1.7422Z"/><path fill="#FECD71" d="M141.0625 126.75c23.6989 19.874 23.6989 19.874 25.1758 32.246.3807 12.5225-5.4306 23.4105-13.5877 32.6712-2.4848 2.5575-5.0164 5.0503-7.5881 7.5203l-2.6504 2.5957A1018.4936 1018.4936 0 0 1 136 208l-2-1 1.0938-2.4648c4.4027-10.8724 6.3887-22.4768 2.4687-33.9102-6.3828-13.1464-17.2728-21.4679-30.6406-26.625-15.2016-5.2027-30.5506-4.3654-45.043 2.4727C47.8052 154.0563 37.912 166.1824 33 181.375c-3.1952 14.2635-1.3418 30.4375 5.8125 43.25C43.7757 232.0202 49.7359 235.9237 58 239l2.8477 1.0703c3.4023 1.0034 6.4909 1.3382 10.0273 1.5547l3.4922.2266L77 242c-2.1627 2.1627-3.2799 2.566-6.1484 3.4375l-2.529.771L65.625 247l-2.7542.811c-15.5738 4.4901-31.0967 7.076-46.1208-.436-6.1228-5.2879-9.1666-11.8836-12-19.3125l-.746-1.9502c-8.1294-22.4454-5.7478-48.1644 4.246-69.5498 11.8673-22.0174 29.9363-36.5886 53.3125-44.8164 26.8453-7.894 57.3808-2.0742 79.5 15.0039Z"/><path fill="#FE8A98" d="M211 384c26.277 9.1651 52.4293 18.6666 78.5739 28.2018a10778.668 10778.668 0 0 0 23.6019 8.5716c3.0398 1.1014 6.0796 2.2028 9.1194 3.3044 1.9142.693 3.8288 1.3854 5.7436 2.0769 2.6272.9489 5.2533 1.9007 7.8792 2.8531l2.3245.8368c3.3518 1.2186 6.6203 2.4492 9.7575 4.1554-10.8907 21.9891-25.7222 36.7544-49.125 44.9375-17.248 5.4034-37.6656 2.5502-53.5686-5.591-18.5604-10.339-30.4113-27.1015-36.5095-47.1707-1.5103-6.019-2.022-11.986-2.1094-18.1758l-.0879-1.9805c-.093-7.6237 2.2868-14.7668 4.4004-22.0195Z"/><path fill="#E4996C" d="M119.1484 148.9766C128.6128 155.7232 137.492 164.239 140 176c1.277 12.1981-.0174 23.5262-7 34-3.3875-1.4113-5.0007-2.9667-7.0938-5.957l-1.6835-2.373-1.7227-2.4825c-8.9105-12.8312-8.9105-12.8312-22.5-20.1875-7.8742-1.2314-14.8645-.6626-21.8125 3.3828C72.4049 186.6578 67.9465 192.0156 66 199c-.9479 8.922.394 15.8811 4 24a3661.685 3661.685 0 0 1 1.789 4.1367c1.2254 2.8262 2.4677 5.644 3.7227 8.457C77 239 77 239 78 242c-12.467.8411-23.4515-1.2052-33.293-9.3477-10.3773-10.0448-13.8209-23.3773-14.082-37.4648.0477-15.0911 6.2565-28.1148 16.5625-39 19.9899-18.9263 48.5773-21.891 71.961-7.211Z"/><path fill="#FEB256" d="m30 131 .6992 2.4219c3.795 13.1096 3.795 13.1096 10.0156 25.1719C42 161 42 161 41.9023 162.8905c-1.2973 3.0329-2.8063 5.942-4.3398 8.8594-7.1799 14.1858-7.29 28.426-2.8242 43.6094 3.129 9.0287 7.9238 16.2944 16.496 20.8203 2.2353 1.0276 4.4602 1.962 6.7657 2.8203l2.8477 1.0703c3.4023 1.0034 6.4909 1.3382 10.0273 1.5547l3.4922.2266L77 242c-2.1627 2.1627-3.2799 2.566-6.1484 3.4375l-2.529.771L65.625 247l-2.7542.811c-15.5738 4.4901-31.0967 7.076-46.1208-.436-6.1228-5.2879-9.1666-11.8836-12-19.3125l-.746-1.9502c-8.1294-22.4454-5.7478-48.1644 4.246-69.5498C21.9869 131 21.9869 131 30 131Z"/><path fill="#FFA1AB" d="M279 409c15.3867 4.9192 30.5813 10.3268 45.75 15.875l2.791 1.0183c2.6489.9675 5.2964 1.9387 7.9434 2.9114l2.4246.8862 2.254.832 1.961.721c2.0198.814 3.9411 1.7583 5.876 2.7561-8.5362 17.2352-18.762 30.5814-36.25 39.5-.992.508-.992.508-2.0042 1.0261-4.2815 2.0708-8.0087 3.0321-12.7458 3.4739-5.406-7.5146-9.7344-14.9745-12.9375-23.6875l-.8538-2.2981c-3.6328-10.3544-4.5-20.2783-4.3337-31.2019l.0273-3.4629c.0233-2.7834.056-5.5664.0977-8.3496Z"/><path fill="#FFA1AC" d="M209.4375 69.4414c6.1525 4.3614 10.6787 9.4769 12 17.0742.3532 7.1961-1.6114 12.222-6.2852 17.6172-7.1272 7.0109-15.2868 9.9557-25.2148 10.3672-9.4033-.3688-18.2186-3.8128-24.9375-10.5-4.7923-6.5477-5.9467-13.0565-5-21 2.6004-6.8335 8.0247-11.9186 14.4023-15.2578 11.178-4.6944 24.4935-4.5346 35.0352 1.6992ZM375 69c4.9729 3.6146 9.2914 7.4006 12 13 .9463 6.6579.8726 13.4406-2.6953 19.2969-6.0498 7.8973-14.8577 11.7593-24.6133 13.1875-9.9304.4291-18.4566-2.5633-26.1914-8.7969-4.9648-4.7993-7.6253-9.6213-8.125-16.5625.289-6.0597 2.7707-10.5331 6.625-15.125 11.7443-10.4467 29.1309-12.6483 43-5Z"/><path fill="#959594" d="M246.2698 266.3689c1.3523-.0051 2.7047-.0124 4.057-.0217 3.6613-.0185 7.3219-.0056 10.9831.0141 3.836.0164 7.672.0076 11.508.0025 6.4402-.0045 12.88.0113 19.32.0393 7.4415.032 14.8825.032 22.324.0148 7.1655-.016 14.3308-.0092 21.4962.0079 3.0466.0069 6.093.0058 9.1396-.0015 3.588-.0077 7.1753.0044 10.7631.0318 1.942.0102 3.884.0007 5.826-.0093l3.5133.0385 3.0462.0085c3.506.6445 5.208 2.0612 7.7537 4.5062.664 2 .664 2 .625 4l.039 2c-1.0323 3.1092-2.9928 4.1959-5.664 6-2.772.5062-2.772.5062-5.8446.5147l-3.543.0385-3.8604-.0198c-1.3621.0071-2.7242.0159-4.0862.0262-3.6922.0224-7.384.0195-11.0763.0106-3.084-.005-6.168.0022-9.2522.0095-7.2757.017-14.5513.0134-21.827-.0033-7.5035-.017-15.0063-.001-22.5097.0312-6.446.0267-12.8918.034-19.338.0255-3.8483-.0049-7.6963-.0027-11.5445.0178-3.6184.0184-7.236.0124-10.8542-.0122-1.9588-.0074-3.9175.0099-5.8762.0278-9.5739-.1036-9.5739-.1036-12.6727-3.0184C227 278 227 278 226.3125 275c.7665-3.3447 1.8726-4.8418 4.5622-6.9503 4.734-2.3382 10.233-1.7287 15.395-1.6808Z"/><path fill="#939393" d="M245.248 225.3689a1351.481 1351.481 0 0 0 4.0862-.0217c3.6924-.0185 7.384-.0056 11.0763.0141 3.8667.0164 7.7334.0076 11.6001.0025 6.4932-.0045 12.986.0113 19.4791.0393 7.5034.032 15.0063.032 22.5097.0148 7.2226-.016 14.445-.0092 21.6676.0079 3.0717.0069 6.1432.0058 9.215-.0015 3.6182-.0077 7.236.0044 10.8541.0318 1.9587.0102 3.9175.0007 5.8762-.0093l3.5431.0385 3.0725.0085c3.5538.649 5.2419 1.9656 7.7721 4.5062.7528 4.1401.5579 6.128-1.7168 9.6832-4.3836 4.07-10.8549 2.9995-16.4395 2.9479a1332.056 1332.056 0 0 0-4.0566.0217c-3.6655.0185-7.3302.0056-10.9956-.0141-3.8387-.0164-7.6774-.0076-11.5161-.0025-6.446.0045-12.8919-.0113-19.3379-.0393-7.4488-.032-14.8972-.032-22.346-.0148-7.1703.016-14.3404.0092-21.5107-.0079a1957.0392 1957.0392 0 0 0-9.148.0015c-3.592.0077-7.1834-.0044-10.7753-.0318-1.9444-.0102-3.8889-.0007-5.8333.0093l-3.5176-.0385-3.0501-.0085c-3.542-.6504-5.2157-1.9939-7.7565-4.5062-1.125-3.4375-1.125-3.4375-1-7 4.2964-6.8628 10.8311-5.6992 18.248-5.6311Z"/><path fill="#858586" d="m236.807 308.4988 3.5943-.0298 3.9327.0293c1.3832-.0038 2.7665-.0093 4.1497-.0164 3.7542-.014 7.508-.0028 11.2622.0137 3.9285.0139 7.8571.0074 11.7857.0039 6.5975-.0027 13.1947.0108 19.7921.034 7.6277.0266 15.2551.0283 22.8829.0166 7.3373-.0108 14.6746-.0046 22.012.0095 3.1227.0058 6.2454.0057 9.3681.001 3.6773-.0048 7.3542.0053 11.0314.0269 1.9935.0082 3.9871.0017 5.9806-.0052l3.5943.03 3.124.0074c3.1188.442 4.4952 1.1275 6.683 3.3803.7816 5.4709.7816 5.4709 0 8-3.5991 3.4683-5.8726 4.5009-10.8446 4.5147l-3.543.0385-3.8604-.0198c-1.3621.0071-2.7242.0159-4.0862.0262-3.6922.0224-7.384.0195-11.0763.0106-3.084-.005-6.168.0022-9.2522.0095-7.2757.017-14.5513.0134-21.827-.0033-7.5035-.017-15.0063-.001-22.5097.0312-6.446.0267-12.8918.034-19.338.0255-3.8483-.0049-7.6963-.0027-11.5445.0178-3.6184.0184-7.236.0124-10.8542-.0122-1.9588-.0074-3.9175.0099-5.8762.0278-9.5741-.1036-9.5741-.1036-12.6805-3.0145-2.0962-3.2563-2.4348-4.852-1.7072-8.652 2.996-3.8561 4.996-4.5002 9.807-4.5012Z"/><path fill="#919191" d="m237.7243 184.6123 3.539-.03 3.8712.0136c1.362-.0057 2.7239-.0126 4.0858-.0208 3.6963-.0179 7.3924-.0167 11.0888-.011 3.0865.003 6.173-.003 9.2595-.009 7.282-.0141 14.5638-.0125 21.8457-.0011 7.5107.0114 15.021-.0026 22.5317-.0294a4453.3182 4453.3182 0 0 1 19.3507-.023c3.8516.0034 7.703.001 11.5547-.0162a1147.89 1147.89 0 0 1 10.8664.0073c1.9612.0054 3.9223-.0088 5.8834-.0237l3.5475.0298 3.0764.0006c3.5607.6424 5.2459 1.9506 7.7749 4.5006.5625 3.5.5625 3.5 0 7-2.088 2.7302-3.2717 3.8626-6.683 4.5062l-3.124.0085-3.5943.0385-3.9327-.0198c-1.3832.0071-2.7665.0159-4.1497.0262-3.7542.0225-7.508.0195-11.2622.0106-3.1338-.005-6.2676.0022-9.4014.0095-7.3922.017-14.7842.0134-22.1764-.0033-7.6278-.017-15.2551-.001-22.8829.0312-6.5487.0267-13.0973.034-19.646.0255-3.9116-.005-7.8227-.0027-11.7341.0178-3.6774.0183-7.354.0124-11.0314-.0122-1.9936-.0074-3.9871.0099-5.9806.0278l-3.5943-.0383-3.124-.0018C231 200 231 200 228.637 197.6873 227 195 227 195 227 191.375c1.7364-5.8604 4.9208-6.7488 10.7243-6.7627Z"/><path fill="#FE6E80" d="M347 434c7.5256 1.6192 12.911 4.1055 18 10 3.2348 5.5598 3.883 10.7149 2.6016 16.9336C365.6194 467.3306 361.3312 472.031 357 477l-1.3018 1.5532C348.0062 487.7148 338.6193 497.127 327 501c-10.701-4.4275-21.227-11.518-28-21v-2l3.1484-1.2852C310.4474 473.255 317.9346 469.6651 325 464l2.1367-1.6445C336.3902 454.8293 341.6282 444.417 347 434Z"/><path fill="#DF8A57" d="M42 163c2.8736 2.7717 5.3716 5.6557 7.8125 8.8125C55.5065 178.9801 61.5342 184.7061 69 190l-1.5 3.6875C64.1123 204.0127 65.6904 213.2973 70 223a3661.685 3661.685 0 0 1 1.789 4.1367c1.2254 2.8262 2.4677 5.644 3.7227 8.457C77 239 77 239 78 242c-12.467.8411-23.4515-1.2052-33.293-9.3477-10.3782-10.0457-13.8191-23.3767-14.082-37.4648C30.6487 183.9898 33.809 171.1911 42 163Z"/><path fill="#73DA8C" d="M55 343c1.0799 3.2396.99 5.8765.8833 9.2573-.3607 12.6978 1.8445 22.9472 7.208 34.4854l1.6476 3.55L66 393a23824.9267 23824.9267 0 0 1-17.55 17.6018c-2.7175 2.7227-5.434 5.4464-8.1485 8.1721a7094.3939 7094.3939 0 0 1-7.8584 7.878 2422.9242 2422.9242 0 0 0-3.0036 3.0143 2344.1049 2344.1049 0 0 1-4.1951 4.203l-2.4158 2.4224C21 438 21 438 20 438c-.9407-30.8004 5.1128-62.8772 26.3726-86.5269C49.1479 348.5414 52.0368 345.7405 55 343Z"/><path fill="#ABE094" d="M99 367c3.0034 2.0023 3.8146 3.2585 4.6875 6.75-1.9117 9.037-13.4914 17.1695-19.9116 23.5492a4464.4307 4464.4307 0 0 0-6.1941 6.17 17911.795 17911.795 0 0 1-13.1443 13.0933 18551.7128 18551.7128 0 0 0-15.2533 15.1974 5476.1969 5476.1969 0 0 1-6.0786 6.0469c-1.251 1.2473-2.5017 2.4947-3.7523 3.7423l-1.6865 1.6708c-3.318 3.3176-6.4034 6.7516-9.3823 10.378-2.1517 2.3487-3.424 2.415-6.6595 2.7146C18 456 18 456 15.5625 454.5c-2.182-3.491-2.4271-6.5595-1.5625-10.5 2.356-3.6075 5.013-6.0316 8.2817-8.7817 6.0066-5.2372 11.556-10.9456 17.1704-16.5952a4566.8374 4566.8374 0 0 1 6.2288-6.253c4.4009-4.4122 8.7978-8.8284 13.1941-13.2451a19207.1555 19207.1555 0 0 1 15.3593-15.4152 5737.7203 5737.7203 0 0 0 6.139-6.1707c1.2476-1.2513 2.4954-2.5025 3.7434-3.7535l1.7253-1.7409C90.3687 367.5174 92.4832 366.4382 99 367Z"/><path fill="#73DA8C" d="M76.1641 406.1819c2.2102.9849 3.543 2.1887 5.2734 3.8806C89.4575 417.3357 99.2497 422.422 109 427v3c-2.4306 1.7875-4.7733 3.3099-7.375 4.8125l-2.3142 1.342C80.4378 446.705 55.5578 452.0715 34 450l-2-2c5.3923-5.508 10.798-11.0026 16.2211-16.4802 2.5177-2.5438 5.0305-5.092 7.5328-7.6509 2.8756-2.9402 5.771-5.86 8.668-8.779.898-.924 1.796-1.8478 2.7213-2.7996l2.5472-2.5484 2.2341-2.2677C74 406 74 406 76.1641 406.182Z"/><path fill="#686868" d="M244.0625 59.4375c3.6856.7057 4.7554 1.5231 6.9375 4.5625a308.5698 308.5698 0 0 1 2 7c1.0242 2.1094 1.0242 2.1094 3 3 3.6454-.2348 3.6454-.2348 7-1l.7695-2.082 1.043-2.7305 1.0195-2.707c1.1537-2.4502 2.0258-3.8473 4.168-5.4805 3.7741-.4803 6.0414-.5959 9.3125 1.4375 2.384 3.62 2.9997 7.3268 3.6875 11.5625l3.8125.5625 2.1445.3164c2.2455.2601 2.2455.2601 5.043-.8789.6592-1.978.6592-1.978.9375-4.3125.599-3.0587 1.0235-4.6303 2.8125-7.25 3.0384-1.9412 4.7025-2.0167 8.25-1.4375 2.875 1.4375 2.875 1.4375 5 4 1.2208 5.4036.0824 10.3193-2.6016 15.0781C304.5578 84.3564 299.5391 88.8461 293 90c-7.467.715-11.7146-.0235-18-4-2.8085.0851-4.1469 1.0895-6.5625 2.5625-5.9301 2.4799-12.4597 2.2876-18.625.5-6.0919-2.6377-10.503-8.3342-13.3125-14.1875-.6089-3.5012-.9512-6.3298-.5-9.875 2.475-3.4212 3.8826-4.7948 8.0625-5.5625Z"/><path fill="#FECD70" d="M109.2578 181.9844c4.904 3.6046 8.2605 8.0739 11.7422 13.0156a8072.4552 8072.4552 0 0 0 2.5547 3.5313C130 207.5645 130 207.5645 130 210c-8.7308.481-16.5535-.8393-25-3l-3.1836-.8086C95.271 204.3528 89.153 201.8581 83 199l-2.177-1.0066C76.7879 196.0597 73.395 193.9706 70 191c2.4979-5.6415 6.901-8.7149 12.0625-11.875 9.0976-3.3657 18.9523-1.8197 27.1953 2.8594Z"/><path fill="#919191" d="M302 309a6671.9412 6671.9412 0 0 1 27.1734-.1554c4.206-.0157 8.4117-.037 12.6176-.071 4.059-.0325 8.1177-.0505 12.1768-.0582a675.6225 675.6225 0 0 0 4.6456-.0326c2.169-.0218 4.3375-.0248 6.5067-.0234l3.7414-.0202c3.4033.3912 4.8163.8655 7.1385 3.3608.7816 5.4709.7816 5.4709 0 8-2.2288 2.617-4.0854 3.8599-7.5063 4.384-3.2124.1634-6.4021.1964-9.6187.1824l-3.5747.0188c-2.4914.007-4.9828.004-7.4741-.0088-3.8128-.0139-7.623.0202-11.4356.0584-2.4219.001-4.8437-.001-7.2656-.0059l-3.4536.0402c-7.9262-.0933-7.9262-.0933-11.762-3.057L312 319c-2.6434-2.3925-5.314-4.7514-7.9883-7.1094L302 310v-1Z"/><path fill="#696969" d="M345.418 34.6523c5.9108 2.664 9.8144 7.2143 12.957 12.7852.8805 3.6102 1.3444 6.884.625 10.5625-2.4655 3.4807-3.849 4.7886-8.0625 5.5625-3.722-.7127-4.7162-1.4987-6.9375-4.5625-.9017-2.0731-1.6743-4.1476-2.3867-6.293-.4792-1.715-.4792-1.715-1.6133-2.707-2.9582-.25-2.9582-.25-6 0-2.6618 2.6618-3.1085 5.3419-4.121 8.9063C329 61 329 61 326 63c-3.998.6084-5.522.3325-8.875-2-2.2238-3.1395-2.8142-5.0421-2.539-8.8867C315.9994 44.8986 320.0424 40.1023 326 36c5.5576-3.4675 13.2636-3.008 19.418-1.3477Z"/><path fill="#696869" d="M218.4258 34.6484C224.656 37.4793 229.3618 42.7088 232 49c.814 4.79.6776 8.0234-2.125 12.0625C226.4895 63.344 224.9966 63.7653 221 63c-4.1429-2.877-4.7743-6.2725-6-11-1.885-2.3156-1.885-2.3156-5-2.25-3.115-.0656-3.115-.0656-5 2.25-.8118 2.2782-1.4603 4.5802-2.121 6.9063C202 61 202 61 199 63c-4.0362.6142-5.5211.3436-8.875-2.0625C188 58 188 58 187.375 54.8125c1.1785-7.189 3.94-12.9252 9.8125-17.375 6.4488-4.3526 13.6549-4.8162 21.2383-2.789Z"/><path fill="#BAE4A6" d="M99 367c3.0034 2.0023 3.8146 3.2585 4.6875 6.75-1.8081 8.5475-12.1363 15.8173-18.125 21.75l-2.795 2.7813A4711.6717 4711.6717 0 0 1 76 405c-4.2792-3.441-7.161-6.3046-10-11 1.5808-3.8342 4.018-6.2619 6.9375-9.168l1.4568-1.4554a923.9787 923.9787 0 0 1 3.0461-3.0228c1.5596-1.5413 3.1109-3.0904 4.6612-4.641C91.5072 366.3542 91.5072 366.3542 99 367Z"/><path fill="#858586" d="M244.9065 267.149c2.2603-.0238 4.5094-.122 6.7673-.2232 5.72-.1276 10.5015-.2225 15.3482 3.2217 3.4682 3.7366 5.8718 6.8592 6.978 11.8525-6.0506.0989-12.1007.1715-18.1519.2197a875.9436 875.9436 0 0 0-6.1748.082c-2.959.0486-5.9171.0713-8.8764.089l-2.7877.0625c-6.3693.0022-6.3693.0022-9.5903-2.2901-1.945-2.965-1.9986-4.6851-1.4189-8.1631 4.3922-5.9692 11.1722-4.8177 17.9065-4.851Z"/><path fill="#8A8A89" d="M197.625 266.9375C201 268 201 268 202.9375 269.6875c1.4238 3.099 1.614 4.9343 1.0625 8.3125-2.0625 2.9375-2.0625 2.9375-5 5-3.8521.0664-5.9985-.1277-8.9375-2.6875-1.4238-3.099-1.614-4.9343-1.0625-8.3125 2.6983-3.8431 3.8664-4.9805 8.625-5.0625Z"/><path fill="#FFF5E4" d="M303 436c2.5 2.0625 2.5 2.0625 4 5 0 3.8138-.1501 6.0242-2.6875 8.9375-3.0485 1.4007-4.9918 1.5468-8.3125 1.0625-2.375-1.5-2.375-1.5-4-4-.5843-2.9632-.3934-4.9016 0-8 2.9286-3.7486 6.5067-3.6419 11-3Z"/><path fill="#898888" d="M201 227c1.9375 1.125 1.9375 1.125 3 3 .4957 3.895.5802 6.095-1.5625 9.4375-3.3797 2.1665-5.4973 2.1254-9.4375 1.5625-2.4375-1.5625-2.4375-1.5625-4-4-.5625-3.5-.5625-3.5 0-7 3.6862-4.4682 6.5829-4.5048 12-3Z"/><path fill="#FFEDCD" d="M245 415c2.375 1.5625 2.375 1.5625 4 4 .5629 3.9402.604 6.0578-1.5625 9.4375-3.4047 2.1825-5.4718 2.1998-9.4375 1.5625-2.5-2.0625-2.5-2.0625-4-5 0-3.8138.1501-6.0242 2.6875-8.9375 3.0485-1.4007 4.9918-1.5468 8.3125-1.0625Z"/><path fill="#888" d="M200 309c2.4375 1.625 2.4375 1.625 4 4 .5625 2.9375.5625 2.9375 0 6-2.4812 3.357-3.9437 4.7844-8.0625 5.625C193 324 193 324 190.625 321.875c-1.9057-3.3716-2.2735-5.065-1.625-8.875 2.941-4.4703 5.869-4.733 11-4Z"/><path fill="#FFEECD" d="M269 439c2.4375 1.5625 2.4375 1.5625 4 4 .5625 3.5.5625 3.5 0 7-2.5732 2.9516-4.218 3.8564-8.0625 4.5625C262 454 262 454 259.625 451.875c-1.9057-3.3716-2.2735-5.065-1.625-8.875 2.941-4.4703 5.869-4.733 11-4Z"/><path fill="#878787" d="M199 185c2.875 1.5625 2.875 1.5625 5 4 .6373 3.9657.62 6.0328-1.5625 9.4375-3.3797 2.1665-5.4973 2.1254-9.4375 1.5625-2.4375-1.5625-2.4375-1.5625-4-4-.5678-3.9749-.6234-6.0649 1.625-9.4375 3.1104-2.0463 4.7118-2.1606 8.375-1.5625Z"/></svg>