<svg xmlns="http://www.w3.org/2000/svg" width="512" height="512" style="shape-rendering:geometricPrecision;text-rendering:geometricPrecision;image-rendering:optimizeQuality;fill-rule:evenodd;clip-rule:evenodd"><path fill="#f8daae" d="m480 87-19 15a90 90 0 0 0-44-41c-46-18-91-18-135 1-15 4-30 4-45 2l-42-13c-38-8-74-3-108 14-13 7-23 16-31 28-7-5-13-11-17-17 3-7 8-12 14-17 31-25 66-37 107-35 14-1 29 1 44 4l34 11c19 4 38 2 56-7 33-10 67-11 102-4 30 7 56 22 76 46l8 13Z" style="opacity:.993"/><path fill="#da9367" d="M461 102c6 24-1 45-20 61-41 28-85 35-132 23l-35-11c-13-2-26-2-38 0l-42 13c-39 8-76 3-110-16-13-7-22-17-30-28-9-18-9-35 2-51 8-12 18-21 31-28 34-17 70-22 108-14l42 13c15 2 30 2 45-2 44-19 89-19 135-1 19 9 34 22 44 41Z" style="opacity:1"/><path fill="#ecb78d" d="m424 122-1-8c-3-11-9-19-17-25a96 96 0 0 0-89-11c-6 3-11 5-16 9-17 5-28 16-36 32-3 12 0 23 10 32-21 1-41 0-60-1 8-7 13-15 16-24v-12c-3-11-9-19-17-25a96 96 0 0 0-89-11c-6 3-11 5-16 9-12 5-23 12-31 22L64 99c22-21 48-32 79-35 15-1 31 0 47 2 14 3 28 8 42 13 24 5 47 2 70-8 37-11 73-10 110 4 16 7 30 17 42 31l-30 16Z" style="opacity:1"/><path fill="#fbf1ac" d="m231 114-1 4c-9 6-18 11-28 14h-4c4-3 7-7 9-12-1-7-5-9-11-8-7 7-16 12-25 15-3 2-4 4-3 8-23-2-42-11-57-27-3-5-6-11-7-16l5-5c5-4 10-6 16-9 31-11 61-7 89 11 8 6 14 14 17 25ZM423 114l-1 4c-9 6-18 11-28 14h-4c4-3 7-8 9-13-2-6-5-8-11-7-7 7-16 12-25 15-3 2-4 4-3 8-23-2-42-11-57-27-3-5-6-11-7-16l5-5c5-4 10-6 16-9 31-11 61-7 89 11 8 6 14 14 17 25Z" style="opacity:1"/><path fill="#edb88e" d="M39 76c4 6 10 12 17 17a49 49 0 0 0-2 51c8 11 17 21 30 28 34 19 71 24 110 16l42-13c12-2 25-2 38 0l35 11c47 12 91 5 132-23 19-16 26-37 20-61l19-15c13 30 10 58-12 84-24 24-54 39-88 43-37 5-72 0-106-14-20-4-39-2-56 7-29 8-57 11-86 7-35-4-65-19-89-43a75 75 0 0 1-14-80c2-6 5-11 10-15Z" style="opacity:1"/><path fill="#f8daae" d="M104 92c1 5 4 11 7 16 15 16 34 25 57 27 0 4 3 6 7 7 8-2 16-5 23-10h4c10-3 19-8 28-14l1-4v12c-3 9-8 17-16 24a94 94 0 0 1-78 15c-18-4-32-13-43-26-9-15-8-29 3-42 2-3 4-4 7-5ZM296 92c1 5 4 11 7 16 15 16 34 25 57 27 0 4 3 6 7 7 8-2 16-5 23-10h4c10-3 19-8 28-14l1-4 1 8c-2 8-6 16-12 23a92 92 0 0 1-95 16c-15-6-27-16-35-29-5-17-1-31 14-40Z" style="opacity:1"/><path fill="#edb88e" d="M390 132c-7 5-15 8-23 10-4-1-7-3-7-7-1-4 0-6 3-8 9-3 18-8 25-15 6-1 9 1 11 7-2 5-5 10-9 13Z" style="opacity:1"/><path fill="#edb98e" d="M198 132c-7 5-15 8-23 10-4-1-7-3-7-7-1-4 0-6 3-8 9-3 18-8 25-15 6-1 10 1 11 8-2 5-5 9-9 12Z" style="opacity:1"/><path fill="#edb88e" d="M471 280c-14 28-34 49-62 63l-2-7c-4-2-8-2-11-1l-45 14c-4 4-4 8-1 13 12-1 23-4 35-8l24-10-3 5-48 15c-11 0-22 0-33 2 0 4-2 7-5 9l-50 11c-7-2-10-6-8-12l4-4 21-5c-12 0-23 3-33 8l-21 14c0 5-2 9-5 12l-45 14h-9l-1-1c18-5 36-12 54-21 3-1 4-3 2-6l-5-1-49 14c-6 4-7 8-3 14l-32 4c0 4-2 7-6 9l-50 10c-9-4-11-9-4-16l27-6c-21-3-40-11-56-23-6 4-11 9-15 15l-4 1c-1-17 4-33 13-46 23-32 53-54 92-64 26-7 53-9 81-5 13-1 25-4 37-10 45-35 95-48 152-39 18 4 35 11 50 22l14 16Z" style="opacity:.996"/><path fill="#f8daae" d="M377 267h45c8 4 9 9 3 15l-54 1c-7-9-5-14 6-16ZM318 279c10 0 13 5 8 14l-38 14c-9 1-12-2-11-10l5-5 36-13ZM417 295h12c5 6 4 11-2 15-17 2-33 6-49 10-7-1-9-5-8-11l4-5c14-3 28-7 43-9ZM238 311c4-1 8 0 11 3 2 4 2 8-2 11-18 6-37 8-55 6-5-5-4-10 2-14a334 334 0 0 0 44-6ZM343 312c6-1 10 1 11 8l-3 6-47 14c-9 2-13-2-12-10l4-4c15-6 31-10 47-14Z" style="opacity:1"/><path fill="#ecb78c" d="M484 311v23-5l-41 11c-5 0-8-3-7-8-1-5 1-7 6-8l42-13Z" style="opacity:1"/><path fill="#f8daae" d="M146 325c11-2 15 2 11 13-16 4-31 9-46 15-11 1-14-4-9-13 14-6 29-11 44-15Z" style="opacity:1"/><path fill="#da9367" d="M471 280c7 8 11 19 13 31l-42 13c-5 1-7 3-6 8-1 5 2 8 7 8l41-11v5c-2 11-6 22-12 32-24 34-56 56-96 66-26 6-52 8-78 5-14 0-27 3-38 10-49 37-103 48-162 35-19-5-34-14-46-27 10 3 20 5 32 4l3-3c2-6 0-10-5-12-16-1-30-5-42-13-2-1-3-1-3 1-4-9-6-17-5-26l4-1c4-6 9-11 15-15 16 12 35 20 56 23l-27 6c-7 7-5 12 4 16l50-10c4-2 6-5 6-9l32-4h1l1 1h9l45-14c3-3 5-7 5-12l21-14c10-5 21-8 33-8l-21 5-4 4c-2 6 1 10 8 12l50-11c3-2 5-5 5-9 11-2 22-2 33-2l48-15 3-5v-1c28-14 48-35 62-63Z" style="opacity:1"/><path fill="#f8daae" d="M409 343v1l-24 10c-12 4-23 7-35 8-3-5-3-9 1-13l45-14c3-1 7-1 11 1l2 7ZM251 340c8-1 12 3 10 12l-3 3c-17 5-34 8-51 11-3 0-6-2-7-4-2-6 0-10 5-12 15-2 31-6 46-10Z" style="opacity:1"/><path fill="#ecb78d" d="M431 353c6-1 10 1 11 8l-3 6c-15 8-29 16-44 22-8 0-11-4-10-11l4-4 42-21Z" style="opacity:1"/><path fill="#f8daae" d="M63 359c10 0 13 5 9 14-8 4-15 9-21 16l-11-11a3209 3209 0 0 0 23-19Z" style="opacity:1"/><path fill="#f8d8ac" d="M313 360c3-1 6 0 9 1l2 5-30-2 19-4Z" style="opacity:1"/><path fill="#f8daae" d="M148 364c4-1 8 0 11 3 2 4 2 8-2 11l-43 13c-6-2-9-6-7-12l3-3 38-12ZM173 412h-1c-4-6-3-10 3-14l49-14 5 1c2 3 1 5-2 6-18 9-36 16-54 21Z" style="opacity:1"/><path fill="#ecb78d" d="M346 387c8 0 12 4 9 13l-5 3c-17 4-34 6-50 7-5-2-6-6-5-10 1-3 2-4 5-5l46-8ZM254 401c7-1 11 2 11 10l-4 5-12 4-31 15c-9 0-12-3-10-11 15-9 30-17 46-23Z" style="opacity:1"/><path fill="#f8d8ac" d="M127 410c4-1 8 0 11 3l1 3-27-2 15-4Z" style="opacity:1"/><path fill="#ecb68c" d="M52 455c-8-7-13-15-15-23 0-2 1-2 3-1 12 8 26 12 42 13 5 2 7 6 5 12l-3 3c-12 1-22-1-32-4Z" style="opacity:1"/><path fill="#ecb78d" d="M168 435c9-1 13 3 10 13l-4 2-47 10c-7-2-10-6-8-12 1-3 3-4 6-5 14-2 29-4 43-8Z" style="opacity:1"/></svg>