<svg xmlns="http://www.w3.org/2000/svg" width="512" height="512" style="shape-rendering:geometricPrecision;text-rendering:geometricPrecision;image-rendering:optimizeQuality;fill-rule:evenodd;clip-rule:evenodd"><path fill="#fedba7" d="M374 1V0h26c39 8 63 32 71 72 2 16 0 31-5 47l-70 264c-8-3-16-6-24-7l73-275A85 85 0 0 0 374 1Z" style="opacity:1"/><path fill="#feeed1" d="m374 1 23 6c37 20 53 51 48 94l-73 275c-9-2-18-2-26 0-8 1-14 4-19 9-6-18-18-29-36-33-9-1-17 0-25 2l-6 1c9-14 15-29 19-44l33 8c13 2 22-3 27-15 3-13-1-22-12-28l-52-14c-5-12-10-22-16-31l5-16 66 18c15 4 26-1 32-15 2-11-2-20-10-26l-77-21 12-42a1272 1272 0 0 0 75 21c18-3 26-13 22-31-6-10-14-16-25-17l-61-15c2-14 6-27 11-39 14-27 35-42 65-47Z" style="opacity:.998"/><path fill="#fedba6" d="m298 87 61 15c11 1 19 7 25 17 4 18-4 28-22 31a1272 1272 0 0 1-75-21c3-15 6-29 11-42ZM275 171l77 21c8 6 12 15 10 26-6 14-17 19-32 15l-66-18 11-44Z" style="opacity:1"/><path fill="#ab695d" d="M165 192a103 103 0 0 1 82 143l-17 28v9l-6 6v-25l16-22c10-22 11-43 3-65a72 72 0 0 0-76-42H94c-38 9-57 32-58 71-1 22 7 40 23 56l1 120c2 4 6 8 11 10l50 1c4 15 15 25 31 30H40c-5-3-8-6-10-11l-1-138C0 324-4 284 18 241c17-28 42-44 75-49h72Z" style="opacity:.996"/><path fill="#935b50" d="M165 192c38-4 69 9 94 39 6 9 11 19 16 31 4 16 6 32 4 49-4 15-10 30-19 44-11 4-21 9-30 17v-9l17-28a103 103 0 0 0-82-143Z" style="opacity:1"/><path fill="#feeed1" d="M167 224c42 10 62 37 59 82-2 12-6 23-13 33l-11 14v56l-10 2c-19 3-36 10-51 20a54 54 0 0 0-20 51l-50-1c-5-2-9-6-11-10l-1-120a73 73 0 0 1-23-56c1-39 20-62 58-71h73Z" style="opacity:1"/><path fill="#fddaa6" d="M167 224c35-4 60 10 76 42 8 22 7 43-3 65l-16 22v25a6622 6622 0 0 0-19 31h-3v-56l11-14c7-10 11-21 13-33 3-45-17-72-59-82Z" style="opacity:1"/><path fill="#fddba6" d="m275 262 52 14c11 6 15 15 12 28-5 12-14 17-27 15l-33-8c2-17 0-33-4-49Z" style="opacity:1"/><path fill="#ab695d" d="M327 385c-9 7-15 16-18 27v100h-31c5-2 11-3 18-3l-1-121c-4-17-14-28-29-34 8-2 16-3 25-2 18 4 30 15 36 33Z" style="opacity:1"/><path fill="#b77c71" d="M266 354c15 6 25 17 29 34l1 121c-7 0-13 1-18 3h-78v-78c0-9 2-17 6-25h-1l8-16a6622 6622 0 0 1 17-21c9-8 19-13 30-17l6-1Z" style="opacity:1"/><path fill="#ab695d" d="M372 376c8 1 16 4 24 7 17 8 30 20 40 37 17-2 33 2 48 11 22 19 28 42 18 70l-15 11h-25c16-6 23-17 22-33-2-32-18-51-49-57-14 3-24 12-28 27-1 20-2 41-1 63h-11l-1-78c-4-24-15-41-35-53l-13-5c8-2 17-2 26 0Z" style="opacity:1"/><path fill="#b77c71" d="m346 376 13 5c20 12 31 29 35 53l1 78h-86V412a50 50 0 0 1 37-36Z" style="opacity:1"/><path fill="#ab695d" d="M202 409h4c-4 8-6 16-6 25v78h-13v-80c1-8 2-15 5-21l10-2Z" style="opacity:1"/><path fill="#b87d72" d="M192 411c-3 6-4 13-5 21v80h-35c-16-5-27-15-31-30-3-21 4-38 20-51 15-10 32-17 51-20Z" style="opacity:1"/><path fill="#b77c71" d="M462 512h-56c-1-22 0-43 1-63 4-15 14-24 28-27 31 6 47 25 49 57 1 16-6 27-22 33Z" style="opacity:1"/></svg>