<svg xmlns="http://www.w3.org/2000/svg" width="512" height="512" style="shape-rendering:geometricPrecision;text-rendering:geometricPrecision;image-rendering:optimizeQuality;fill-rule:evenodd;clip-rule:evenodd"><path fill="#3db271" d="M209.5-.5h9a68.3 68.3 0 0 1 22 29l-13 6.5c-2.9 3-5.9 5.9-9 8.5a37.4 37.4 0 0 0-21-12c1-10.1 3.9-19.8 8.5-29 1.1-1.1 2.3-2.1 3.5-3Z" style="opacity:.977"/><path fill="#fe425b" d="M240.5 28.5h7a406.3 406.3 0 0 0-31.5 45c-5.7 27.8 4.8 47 31.5 57.5 4.4 1.3 9 2 13.5 2.5 15.1-1.4 30.3-2 45.5-2-3.7 4-8.4 6.1-14 6.5a674.2 674.2 0 0 1-62 2l-6-2c-6.7-3-13-6.5-19-10.5-7-7-11.7-15.3-14-25-1-9.2.6-18 5-26 8-10.5 15.4-21.5 22-33 3.1-2.6 6.1-5.5 9-8.5l13-6.5Z" style="opacity:.996"/><path fill="#fe6868" d="M247.5 28.5a51.7 51.7 0 0 1 49.5 34l16 46c1.2 6.7.4 13-2.5 19l-4 4c-15.2 0-30.4.6-45.5 2-4.6-.4-9-1.2-13.5-2.5-26.7-10.5-37.2-29.7-31.5-57.5 9.6-15.8 20-30.8 31.5-45Z" style="opacity:.993"/><path fill="#42c37c" d="M197.5 31.5a37.4 37.4 0 0 1 21 12c-6.6 11.5-14 22.5-22 33-8.2-3.1-15-8.1-20-15a557 557 0 0 1-8-20.5c.5-4 2.5-7 6-9a265 265 0 0 1 23-.5Z" style="opacity:.989"/><path fill="#ef2d55" d="M249.5 58.5c12-.1 15 5 9 15.5-9.7 3-14.2-.4-13.5-10.5a11 11 0 0 1 4.5-5Z" style="opacity:1"/><path fill="#3cb271" d="M176.5 61.5c5 6.9 11.8 11.9 20 15a43 43 0 0 0-5 26c-5.7.3-11.4-.2-17-1.5l-16-6c-5.5-4.3-6.7-9.4-3.5-15.5a79 79 0 0 1 21.5-18Z" style="opacity:.975"/><path fill="#ef2d55" d="M229.5 89.5c8.5.3 12 4.7 10.5 13-5.3 6.7-10.7 6.7-16 0-.7-2.7-.7-5.3 0-8 1.7-1.9 3.6-3.6 5.5-5ZM265.5 90.5c8.5.3 12 4.7 10.5 13-5.3 6.7-10.7 6.7-16 0-.7-2.7-.7-5.3 0-8 1.7-1.9 3.6-3.6 5.5-5Z" style="opacity:1"/><path fill="#ff415b" d="M166.5 127.5h9a75.7 75.7 0 0 0 49 37.5c6 1 12 1.5 18 1.5 19.7-1 39.4-2 59-3.5a49.8 49.8 0 0 0 36-35.5c11-.2 22 0 33 .5a49.5 49.5 0 0 1 42.5 32.5c3 14 5.5 28 7.5 42-11-.2-22 0-33 .5a19.5 19.5 0 0 0-12.5 12.5l-1 84c-2.5 8.8-8.3 13.1-17.5 13a16.6 16.6 0 0 1-16.5-12l-1-85a19.5 19.5 0 0 0-12.5-12.5 1056 1056 0 0 0-65 0 18 18 0 0 0-11.5 10.5c0 16.7-.7 33.4-2 50-4.9 11.2-13.4 15.7-25.5 13.5a20 20 0 0 1-13.5-15.5 35.6 35.6 0 0 0-7.5-27.5c-15.7-10-27.9-6.8-36.5 9.5l-1 40c-4 12.6-12.3 16.5-24.5 11.5a15.8 15.8 0 0 1-6.5-9.5l-1-70c-2-6.2-6.2-10.2-12.5-12 0-.7-.3-1-1-1 1.5-12.7 3.3-25.4 5.5-38 7-20.6 21.2-33 42.5-37Z" style="opacity:.998"/><path fill="#ef2b55" d="M166.5 127.5a52.6 52.6 0 0 0-42.5 37c-2.2 12.6-4 25.3-5.5 38h-28c2-14 4.5-28 7.5-42a51.2 51.2 0 0 1 36.5-31.5c10.6-1.3 21.3-1.8 32-1.5Z" style="opacity:.985"/><path fill="#ef2b55" d="M175.5 127.5h30c6 4 12.3 7.5 19 10.5l6 2c20.7.3 41.4-.4 62-2 5.6-.4 10.3-2.5 14-6.5l4-4h27a49.8 49.8 0 0 1-36 35.5 2364 2364 0 0 1-59 3.5c-6 0-12-.5-18-1.5a75.7 75.7 0 0 1-49-37.5Z" style="opacity:1"/><path fill="#f9daa9" d="M90.5 202.5h28c.7 0 1 .3 1 1-1.3 0-2 .7-2.5 2l-31 195c-8.9 2-18 2.6-27.5 2l32-200Z" style="opacity:.993"/><path fill="#fef2d6" d="m420.5 202.5 32 200c-131.3 1.3-262.7 1.3-394 0 9.4.6 18.6 0 27.5-2l31-195c.4-1.3 1.3-2 2.5-2a17.5 17.5 0 0 1 12.5 12l1 70c1 4 3.1 7.1 6.5 9.5 12.2 5 20.4 1.1 24.5-11.5l1-40c8.6-16.3 20.8-19.5 36.5-9.5 6.3 8 8.8 17.2 7.5 27.5a20 20 0 0 0 13.5 15.5c12.1 2.2 20.6-2.3 25.5-13.5 1.3-16.6 2-33.3 2-50a18 18 0 0 1 11.5-10.5c21.7-.7 43.3-.7 65 0a19.5 19.5 0 0 1 12.5 12.5l1 85a16.6 16.6 0 0 0 16.5 12c9.2.1 15-4.2 17.5-13l1-84a19.5 19.5 0 0 1 12.5-12.5c11-.5 22-.7 33-.5Z" style="opacity:.999"/><path fill="#d4d4e8" d="M50.5 402.5a17 17 0 0 0-13 15c3 11.4 7.2 22.4 12.5 33a51.4 51.4 0 0 0 31.5 22 512 512 0 0 1-32-.5A46.7 46.7 0 0 1 17 447.5a572 572 0 0 1-10-25c-1.7-9.8 2.1-16.3 11.5-19.5a512 512 0 0 1 32-.5Z" style="opacity:.99"/><path fill="#e8e8fe" d="M50.5 402.5h8c131.3 1.3 262.7 1.3 394 0 13.3-.2 26.7 0 40 .5 9.4 3.2 13.2 9.7 11.5 19.5a171.3 171.3 0 0 1-15 33 51.2 51.2 0 0 1-27.5 16.5c-13.7.5-27.3.7-41 .5h-339a51.4 51.4 0 0 1-31.5-22 172.8 172.8 0 0 1-12.5-33 17 17 0 0 1 13-15Z" style="opacity:.998"/><path fill="#c6c6e0" d="M90.5 472.5h330v18h-299c-2 9 .7 16 8 21h-32c-3-1.9-5.2-4.5-6.5-8a481 481 0 0 1-.5-31Z" style="opacity:.997"/><path fill="#d4d4e7" d="M420.5 490.5c.2 4.3 0 8.7-.5 13a15.6 15.6 0 0 1-6.5 8h-284c-7.3-5-10-12-8-21h299Z" style="opacity:.999"/></svg>