<svg xmlns="http://www.w3.org/2000/svg" width="512" height="512" style="shape-rendering:geometricPrecision;text-rendering:geometricPrecision;image-rendering:optimizeQuality;fill-rule:evenodd;clip-rule:evenodd"><path fill="#e5e7e7" d="M366.5 37.5h-231c-.4-8 .1-16 1.5-24 2.3-5 6.2-8 11.5-9.5 68.7-.7 137.3-.7 206 0 4.7 1.3 8.2 4.2 10.5 8.5 1.4 8.2 2 16.6 1.5 25Z" style="opacity:.987"/><path fill="#d1d4d1" d="M135.5 37.5h231c12.2-2.6 20.7 1.8 25.5 13 1 9.1.6 18.1-1 27a22 22 0 0 1-16.5 4c-82-1.3-164-1.3-246 0-4.7.2-9.4-.3-14-1.5l-3.5-3.5c-2-9.3-2-18.7 0-28A18 18 0 0 1 122.5 38a85 85 0 0 1 13-.5Z" style="opacity:.992"/><path fill="#4482c2" d="m374.5 81.5-12 110c-9.4-.4-18.8 0-28 1.5-.6.8-1.1 1.6-1.5 2.5-.5 4.3-.7 8.7-.5 13h-1a81.6 81.6 0 0 0-50-32.5c-47.8-1.1-95.5-2-143-2.5-3.9-30.6-7.2-61.2-10-92 82-1.3 164-1.3 246 0Z" style="opacity:.995"/><path fill="#f19b1f" d="M138.5 173.5c47.5.5 95.2 1.4 143 2.5a81.6 81.6 0 0 1 50 32.5c-12.7-.2-25.3 0-38 .5l-3.5 3.5c-.5 10-.7 20-.5 30h-14c4.7-2.6 6.2-6.6 4.5-12-2.3-4-5.8-5.8-10.5-5-7.3-1.2-12 1.6-14 8.5.5 3.6 2.2 6.4 5 8.5-3-.2-6 0-9 .5-2 1-3.6 2.4-4.5 4.5-.5 9.7-.7 19.3-.5 29-4.1-.3-8.1 0-12 1-61.3-1.3-122.7-1.3-184 0-7.4.4-14.8-.1-22-1.5a7.7 7.7 0 0 1-3.5-5.5c-2.5-47 18.4-78.1 62.5-93.5 16.9-3 33.9-4.2 51-3.5Z" style="opacity:.994"/><path fill="#efc319" d="M362.5 191.5c4-.5 8 .2 11.5 2 1.4 4.9 1.9 9.9 1.5 15a1225 1225 0 0 0-1 70v71c-10.6 1-21.3 1.2-32 .5-3.5-.5-6.9-1.4-10-2.5v-139c-.2-4.3 0-8.7.5-13 .4-1 .9-1.8 1.5-2.5 9.2-1.4 18.6-2 28-1.5Z" style="opacity:.998"/><path fill="#e57e24" d="M107.5 208.5a48 48 0 0 1 16 1.5c5.5 5.4 5.2 10.4-1 15-5.3.7-10.7.7-16 0-4.3-3.8-5.1-8.3-2.5-13.5 1.1-1.1 2.3-2.1 3.5-3ZM209.5 208.5c6.2-.6 12.2.3 18 2.5 4.3 10.6.6 15.4-11 14.5-8.8.7-12.7-3.3-11.5-12 1.4-1.9 2.9-3.5 4.5-5Z" style="opacity:1"/><path fill="#f2d45a" d="M375.5 208.5c12.7-.2 25.3 0 38 .5a9.2 9.2 0 0 1 4.5 7.5c.5 5.7.7 11.3.5 17-1 31.8-1.3 63.8-1 96a69.1 69.1 0 0 1-41 19l-2-70c-.3-23.5 0-46.8 1-70Z" style="opacity:.996"/><path fill="#f2d45a" d="M331.5 208.5h1v139a71.4 71.4 0 0 1-43-27v-78c-.2-10 0-20 .5-30l3.5-3.5c12.7-.5 25.3-.7 38-.5Z" style="opacity:1"/><path fill="#e57e24" d="M160.5 225.5c4.8-.4 9.5.1 14 1.5 4.3 3.4 5.2 7.6 2.5 12.5a7 7 0 0 1-4.5 2.5c-5.4.9-10.8.6-16-1-5-7-3.6-12.1 4-15.5ZM275.5 242.5h-15c-2.8-2-4.5-5-5-8.5 2-6.9 6.7-9.7 14-8.5 4.7-.8 8.2 1 10.5 5 1.7 5.4.2 9.4-4.5 12Z" style="opacity:1"/><path fill="#efc319" d="M418.5 233.5c12.3-.2 24.7 0 37 .5 1.5.6 2.8 1.4 4 2.5 1 14 1.3 28 1 42a43.4 43.4 0 0 0-14.5 10 535.6 535.6 0 0 0-15 27c-4 5.2-8.6 9.9-13.5 14-.3-32.2 0-64.2 1-96Z" style="opacity:.986"/><path fill="#f0c319" d="M260.5 242.5h29v78c-2-1.7-3.9-3.7-5.5-6l-14-26a38.3 38.3 0 0 0-23.5-12c-.2-9.7 0-19.3.5-29 1-2 2.4-3.6 4.5-4.5 3-.5 6-.7 9-.5Z" style="opacity:1"/><path fill="#f0b51b" d="M50.5 277.5c61.3-1.3 122.7-1.3 184 0l-2 1c-60.5-1-121.2-1.3-182-1Z" style="opacity:1"/><path fill="#e54c3c" d="M246.5 276.5c9.2 1.2 17 5.2 23.5 12l14 26c1.6 2.3 3.4 4.3 5.5 6a71.4 71.4 0 0 0 43 27c3.1 1.1 6.5 2 10 2.5 10.7.7 21.4.6 32-.5 1 .2 1.7-.2 2-1 16-1.8 29.6-8.1 41-19 5-4.1 9.4-8.8 13.5-14 4.7-9.1 9.7-18.1 15-27 4.2-4.3 9-7.7 14.5-10a54 54 0 0 1 22-1.5c2.4 1.7 3.7 4 4 7a30429 30429 0 0 1-32 205.5 9317 9317 0 0 1-193 1c.3-2 0-3.6-1-5-1.6-15-4-29.6-7-44-2.6-23.1-6-46.1-10-69 .2-1-.2-1.7-1-2-1.8-17-4-34-7-51l-5-34c-.2-2.7.5-5 2-7l2-1c3.9-1 7.9-1.3 12-1Z" style="opacity:.996"/><path fill="#efc319" d="M50.5 277.5c60.8-.3 121.5 0 182 1a10 10 0 0 0-2 7l5 34c-13.8-.5-27.4 0-41 1.5a3425.1 3425.1 0 0 0-49 49.5h-2a3425.1 3425.1 0 0 0-49-49.5c-14.6-1.5-29.2-2-44-1.5v-42Z" style="opacity:.999"/><path fill="#efae45" d="m374.5 278.5 2 70c-.3.8-1 1.2-2 1v-71Z" style="opacity:1"/><path fill="#804536" d="M50.5 319.5c14.8-.5 29.4 0 44 1.5 16.5 16.4 32.9 32.9 49 49.5-31.2-.3-62.2 0-93 1-19.8-3.6-28-15.3-24.5-35a25.3 25.3 0 0 1 24.5-17Z" style="opacity:.989"/><path fill="#804536" d="M235.5 319.5c3 17 5.2 34 7 51h-97c16.1-16.6 32.5-33.1 49-49.5 13.6-1.5 27.2-2 41-1.5Z" style="opacity:1"/><path fill="#288e75" d="M50.5 371.5c30.8-1 61.8-1.3 93-1h99c.8.3 1.2 1 1 2-64.3-1-128.6-1.3-193-1Z" style="opacity:1"/><path fill="#169f84" d="M50.5 371.5c64.4-.3 128.7 0 193 1 4 22.9 7.4 45.9 10 69l-15 14c-14.2-14-28.5-27.8-43-41.5-48.5-.2-96.8-.7-145-1.5v-41Z" style="opacity:.999"/><path fill="#e6e5e6" d="M347.5 387.5c21.6-.8 36.1 8.8 43.5 29 3.2 24-6.6 39.9-29.5 47.5-23 2.3-38.2-7.5-45.5-29.5-2.4-24.4 8.1-40 31.5-47Z" style="opacity:1"/><path fill="#f19b1f" d="M50.5 412.5c48.2.8 96.5 1.3 145 1.5 14.5 13.7 28.8 27.5 43 41.5l15-14c3 14.4 5.4 29 7 44v4h-215c-11.7-9-18.6-21-20.5-36-.7-11.3-.7-22.7 0-34 1-4 3.5-6 7.5-6.5 6-.5 12-.7 18-.5Z" style="opacity:.996"/><path fill="#804536" d="M45.5 489.5h2c71.2 1 142.5 1.3 214 1 64.5.3 128.8 0 193-1 16.7-.2 33.3 0 50 .5 3 .5 5.4 2 7 4.5v8a11 11 0 0 1-5 4.5c-167.3.7-334.7.7-502 0a11 11 0 0 1-5-4.5v-8c1.6-2.5 4-4 7-4.5 13-.5 26-.7 39-.5Z" style="opacity:.975"/><path fill="#cb7d27" d="M260.5 485.5c1 1.4 1.3 3 1 5-71.5.3-142.8 0-214-1h213v-4Z" style="opacity:1"/></svg>