<svg xmlns="http://www.w3.org/2000/svg" width="512" height="512" style="shape-rendering:geometricPrecision;text-rendering:geometricPrecision;image-rendering:optimizeQuality;fill-rule:evenodd;clip-rule:evenodd"><path fill="#e0dfe1" d="M512 178v36h-1l-1-5c-7 25-20 47-40 64-39 30-83 49-132 58-65 12-129 10-192-7-38-10-72-27-102-50-17-14-29-30-38-49l-6-24v-24c6-29 21-53 45-72 32-24 68-41 108-51 79-19 157-16 235 9 28 10 54 24 78 42 23 19 39 43 46 73Z" style="opacity:.997"/><path fill="#c6c5ca" d="M472 228c-2-24-12-43-28-58-22-20-46-35-73-45-75-25-149-26-223-3-30 10-56 25-79 45a99 99 0 0 0-30 58 81 81 0 0 1 8-84c20-26 45-44 76-56 69-26 140-32 213-16 36 8 70 22 101 44 12 10 22 21 31 35 15 26 16 52 4 80Z" style="opacity:1"/><path fill="#fea836" d="M444 170h-2c-33-23-69-37-108-43-67-12-131-6-193 19-24 10-44 24-62 42a93 93 0 0 0-24 47v14c-8-7-13-15-16-24 3-23 13-42 30-58 23-20 49-35 79-45 74-23 148-22 223 3 27 10 51 25 73 45Z" style="opacity:1"/><path fill="#feb657" d="M444 170c16 15 26 34 28 58-6 11-13 21-22 30-30 25-63 43-101 52-67 16-134 15-199-4-32-9-60-24-84-45l-11-12v-14c4-19 12-34 24-47 18-18 38-32 62-42 62-25 126-31 193-19 39 6 75 20 108 43h2Z" style="opacity:1"/><path fill="#fec276" d="M119 185c13-2 25 1 37 7 11 9 11 19 0 28a57 57 0 0 1-58-1c-10-9-10-18 1-27 6-4 13-6 20-7ZM197 192c8-1 17 0 26 3 8 8 7 14-3 19-10 3-19 3-27 0l-8-6c-1-5 0-9 4-12l8-4Z" style="opacity:1"/><path fill="#90cb06" d="m243 247 16-10 20 1-16-3 8-5 17-1-12-2c4-5 10-7 17-6l-5-1 6-4c-4 1-7 2-9 4l-2-5-2 7-10 4-2-5-1 7-9 5-5-7c0 2 1 5 3 7l-20 11-5-8c-1-4 0-7 2-9 5-6 10-9 17-12 18-6 36-9 56-9l2 5c-4 21-17 34-38 39-10 1-20 0-28-3Z" style="opacity:1"/><path fill="#d8d8d9" d="m0 201 6 24c9 19 21 35 38 49 30 23 64 40 102 50 63 17 127 19 192 7 49-9 93-28 132-58 20-17 33-39 40-64l1 5a254 254 0 0 1-340 219l-2 1A261 261 0 0 1 0 214v-13Z" style="opacity:1"/><path fill="#9ada03" d="m243 247-4 1-4-2c0-2 0-2 2-2l20-11c-2-2-3-5-3-7l5 7 9-5 1-7 2 5 10-4 2-7 2 5c2-2 5-3 9-4l-6 4 5 1c-7-1-13 1-17 6l12 2-17 1-8 5 16 3-20-1-16 10Z" style="opacity:1"/><path fill="#fda934" d="m235 246 4 2-10 7c-4 3-6 3-9 0-1-2-1-3 1-4l12-6 2 1Z" style="opacity:1"/><path fill="#fec276" d="M158 252c6-1 12 0 18 2 6 4 6 8 1 13-10 5-19 4-28-2-1-7 2-12 9-13Z" style="opacity:1"/><path fill="#c6c5cb" d="M344 432c-5 9-12 16-21 21-30 15-61 19-93 14-21-3-39-11-55-24l-6-9 2-1c57 18 115 18 173-1Z" style="opacity:.987"/></svg>