<?xml version="1.0" encoding="UTF-8"?>
<svg xmlns="http://www.w3.org/2000/svg" xmlns:xlink="http://www.w3.org/1999/xlink" width="24px" height="24px" viewBox="0 0 24 24" version="1.1">
<g id="surface1">
<path style=" stroke:none;fill-rule:nonzero;fill:rgb(11.372549%,63.137255%,94.901961%);fill-opacity:1;" d="M 22 12 C 22 17.523438 17.523438 22 12 22 C 6.476562 22 2 17.523438 2 12 C 2 6.476562 6.476562 2 12 2 C 17.523438 2 22 6.476562 22 12 Z M 22 12 "/>
<path style=" stroke:none;fill-rule:evenodd;fill:rgb(100%,100%,100%);fill-opacity:1;" d="M 18 8.15625 C 17.558594 8.351562 17.085938 8.480469 16.585938 8.542969 C 17.09375 8.238281 17.484375 7.753906 17.667969 7.179688 C 17.191406 7.460938 16.664062 7.667969 16.105469 7.777344 C 15.65625 7.300781 15.015625 7 14.308594 7 C 12.949219 7 11.847656 8.101562 11.847656 9.460938 C 11.847656 9.65625 11.867188 9.84375 11.910156 10.023438 C 9.863281 9.921875 8.050781 8.941406 6.835938 7.449219 C 6.625 7.8125 6.503906 8.238281 6.503906 8.6875 C 6.503906 9.542969 6.9375 10.296875 7.597656 10.738281 C 7.195312 10.722656 6.816406 10.613281 6.480469 10.429688 L 6.480469 10.460938 C 6.480469 11.652344 7.332031 12.648438 8.457031 12.875 C 8.25 12.929688 8.03125 12.960938 7.808594 12.960938 C 7.648438 12.960938 7.496094 12.945312 7.34375 12.917969 C 7.660156 13.894531 8.566406 14.605469 9.644531 14.625 C 8.800781 15.285156 7.742188 15.679688 6.585938 15.679688 C 6.386719 15.679688 6.191406 15.667969 6 15.644531 C 7.089844 16.34375 8.382812 16.753906 9.773438 16.753906 C 14.300781 16.753906 16.777344 13 16.777344 9.746094 C 16.777344 9.640625 16.777344 9.535156 16.769531 9.429688 C 17.253906 9.082031 17.671875 8.648438 18 8.15625 Z M 18 8.15625 "/>
</g>
</svg>
