<svg xmlns="http://www.w3.org/2000/svg" width="512" height="512" style="shape-rendering:geometricPrecision;text-rendering:geometricPrecision;image-rendering:optimizeQuality;fill-rule:evenodd;clip-rule:evenodd"><path fill="#90b945" d="M319.5 15.5v80c-3.6 0-6 1.7-7.5 5-.4 34.4-1.4 68.7-3 103a204.6 204.6 0 0 0-48.5-66.5c-10.5-2.8-14.3 1-11.5 11.5a185.2 185.2 0 0 1 57 94c0 10-.7 20-2 30a233.1 233.1 0 0 0-30-42L228.5 185c-3-2-5.7-1.9-8 .5l-3-1.5c-8.7-.5-17.3-.7-26-.5.2-6 0-12-.5-18-.7-1.5-1.5-2.8-2.5-4a530 530 0 0 0 9.5-5c3-6 1.5-10-4.5-12.5-3.3-.5-6.7-.7-10-.5-.2-13 5.3-22.6 16.5-29-3.5-30.3 10-44.7 40.5-43a29 29 0 0 1 19-22.5 43.6 43.6 0 0 1 27 1.5c.5-21.8 11.5-33.5 33-35Z" style="opacity:1"/><path fill="#69a041" d="M319.5 15.5c21.5 1.5 32.5 13.2 33 35 19.3-7.5 34-2.5 44.5 15 .8 2 1.3 4 1.5 6 30.5-1.7 44 12.7 40.5 43a32.8 32.8 0 0 1 16 37 34.7 34.7 0 0 1-7 14c-.5 60.3-.7 120.7-.5 181-10.7-6-21.7-11.5-33-16.5-12.3-4-24.6-7.1-37-9.5 15-14.5 29.8-29.1 44.5-44 2.8-10.5-1-14.3-11.5-11.5a1358 1358 0 0 0-53 54.5h-17c-.8-5.3-1.3-10.7-1.5-16a190 190 0 0 1 37-61l46-46c2.8-10.5-1-14.3-11.5-11.5L362 233.5a197 197 0 0 0-27 39c-1.1-9.7-1.8-19.3-2-29a188.8 188.8 0 0 1 57-95c2.8-10.5-1-14.3-11.5-11.5a212.7 212.7 0 0 0-48.5 65.5c-1.7-34-2.7-68-3-102-1.4-3.3-4-5-7.5-5v-80Z" style="opacity:.997"/><path fill="#dafd9e" d="M319.5 95.5v224h-21c.8-5.3 1.3-10.7 1.5-16-8.4-21.7-20-41.4-35-59a2955.4 2955.4 0 0 1-45.5-46c2.6-1.5 4-3.8 4-7 0-2.6-1-4.6-3-6 2.3-2.4 5-2.6 8-.5l45.5 45.5a233.1 233.1 0 0 1 30 42c1.3-10 2-20 2-30a185.2 185.2 0 0 0-57-94c-2.8-10.5 1-14.3 11.5-11.5 20.7 19 36.9 41 48.5 66.5 1.6-34.3 2.6-68.6 3-103 1.4-3.3 4-5 7.5-5Z" style="opacity:1"/><path fill="#aed663" d="M319.5 95.5c3.6 0 6 1.7 7.5 5 .3 34 1.3 68 3 102 12-25 28-46.8 48.5-65.5 10.5-2.8 14.3 1 11.5 11.5a188.8 188.8 0 0 0-57 95c.2 9.7.9 19.3 2 29a197 197 0 0 1 27-39l48.5-48.5c10.5-2.8 14.3 1 11.5 11.5l-46 46a190 190 0 0 0-37 61c.2 5.3.7 10.7 1.5 16h-21v-224Z" style="opacity:1"/><path fill="#4b8c41" d="M183.5 143.5c3.3-.2 6.7 0 10 .5 6 2.4 7.5 6.6 4.5 12.5a530 530 0 0 1-9.5 5c-3.6-.8-6.9 0-10 2.5a22.9 22.9 0 0 0-10 19.5h-17c.7-21.3 11.3-34.7 32-40Z" style="opacity:.98"/><path fill="#6a9f40" d="M151.5 183.5h40c8.7-.2 17.3 0 26 .5l3 1.5c2 1.4 3 3.4 3 6 0 3.2-1.4 5.5-4 7-6.6 1-13.3 1.3-20 1-6.7-.2-13.3 0-20 .5 4.2 3.9 8 8 11.5 12.5.7 9.5-3.4 12.7-12.5 9.5a495 495 0 0 0-19-18.5 495 495 0 0 0-19 18.5c-9 3.2-13.2 0-12.5-9.5 3.5-4.5 7.3-8.6 11.5-12.5-7-.5-14-.7-21-.5-7.1.4-14.1 0-21-1.5-2-3.3-2.4-6.8-1.5-10.5.5-1.8 1.7-3 3.5-3.5 17.3-.5 34.7-.7 52-.5Z" style="opacity:.998"/><path fill="#ef4a36" d="M118.5 199.5c7-.2 14 0 21 .5-4.2 3.9-8 8-11.5 12.5-.7 9.5 3.4 12.7 12.5 9.5a495 495 0 0 1 19-18.5c.4 20.7 0 41.4-1.5 62a33.1 33.1 0 0 1-23.5 21.5c-23.7.5-47.3.7-71 .5a96.2 96.2 0 0 1 55-88Z" style="opacity:1"/><path fill="#e0322d" d="M199.5 199.5c37.3 19.6 56 50.6 56 93-.7 6.7-1.7 13.4-3 20-1 1.8-1.6 3.8-2 6-.9.6-1.9 1-3 1h-88c-19.7 1.7-30.3 12.3-32 32-5.1 0-9.8-1.5-14-4.5L100 333.5a31.6 31.6 0 0 1-5-19c-4.1-8.8-11-12.3-20.5-10.5a29.3 29.3 0 0 0-9 6.5 98.7 98.7 0 0 1-2-23c23.7.2 47.3 0 71-.5a33.1 33.1 0 0 0 23.5-21.5c1.4-20.6 2-41.3 1.5-62a495 495 0 0 1 19 18.5c9 3.2 13.2 0 12.5-9.5-3.5-4.5-7.3-8.6-11.5-12.5 6.7-.5 13.3-.7 20-.5Z" style="opacity:1"/><path fill="#91b845" d="M219.5 198.5c15 15.5 30.1 30.8 45.5 46 15 17.6 26.6 37.3 35 59-.2 5.3-.7 10.7-1.5 16h-17c-8-9.6-16.6-18.6-26-27 0-42.4-18.7-73.4-56-93 6.7.3 13.4 0 20-1Z" style="opacity:1"/><path fill="#f4806c" d="M106.5 223.5c16.2-.3 22.7 7.3 19.5 23-5.9 9-13.7 11.2-23.5 6.5-7.3-6.3-8.8-13.8-4.5-22.5a28 28 0 0 1 8.5-7Z" style="opacity:1"/><path fill="#afd763" d="M377.5 320.5c-6.7-.2-13.3-.5-20-1a1358 1358 0 0 1 53-54.5c10.5-2.8 14.3 1 11.5 11.5a2760.5 2760.5 0 0 1-44.5 44Z" style="opacity:1"/><path fill="#dafb9d" d="M255.5 292.5c9.4 8.4 18 17.4 26 27h-22c-2-2.7-4.3-5-7-7 1.3-6.6 2.3-13.3 3-20Z" style="opacity:1"/><path fill="#699f40" d="M127.5 351.5v24c-9.7.2-19.3 0-29-.5-1.4-.4-2.7-1-4-1.5-.3-.8-1-1.2-2-1a443.7 443.7 0 0 0-17.5-18 48.1 48.1 0 0 1-9.5-44c2.6-2.7 5.6-4.9 9-6.5 9.6-1.8 16.4 1.7 20.5 10.5a31.6 31.6 0 0 0 5 19l13.5 13.5c4.2 3 8.9 4.5 14 4.5Z" style="opacity:.991"/><path fill="#94b645" d="M252.5 312.5c2.7 2 5 4.3 7 7-3.2.3-6.2 0-9-1 .4-2.2 1-4.2 2-6Z" style="opacity:1"/><path fill="#f99f36" d="M159.5 319.5c-.2 14 0 28 .5 42 2.4 6 6.6 7.5 12.5 4.5a7 7 0 0 0 2.5-4.5c.5-14 .7-28 .5-42h72c-.2 14 0 28 .5 42 2.4 6 6.6 7.5 12.5 4.5a7 7 0 0 0 2.5-4.5c.5-14 .7-28 .5-42h72c-.2 14 0 28 .5 42 2.4 6 6.6 7.5 12.5 4.5a7 7 0 0 0 2.5-4.5c.5-14 .7-28 .5-42h6c6.7.5 13.3.8 20 1 12.4 2.4 24.7 5.5 37 9.5 11.3 5 22.3 10.5 33 16.5a385.1 385.1 0 0 1 45.5 42c1.9 3.4 2.7 7 2.5 11-108.3-.2-216.7 0-325 .5a20.2 20.2 0 0 0-10.5 10.5c-.5 23-.7 46-.5 69-19.9-.9-30.5-11.2-32-31v-97c1.7-19.7 12.3-30.3 32-32Z" style="opacity:.999"/><path fill="#f57828" d="M159.5 319.5h16c.2 14 0 28-.5 42a7 7 0 0 1-2.5 4.5c-6 3-10 1.5-12.5-4.5-.5-14-.7-28-.5-42Z" style="opacity:1"/><path fill="#f47828" d="M250.5 318.5c2.8 1 5.8 1.3 9 1h4c.2 14 0 28-.5 42a7 7 0 0 1-2.5 4.5c-6 3-10 1.5-12.5-4.5-.5-14-.7-28-.5-42 1.1 0 2.1-.4 3-1Z" style="opacity:1"/><path fill="#f57828" d="M335.5 319.5h16c.2 14 0 28-.5 42a7 7 0 0 1-2.5 4.5c-6 3-10.1 1.5-12.5-4.5-.5-14-.7-28-.5-42Z" style="opacity:1"/><path fill="#90b844" d="M92.5 372.5c.3.8 1 1.2 2 1 1.3.6 2.6 1 4 1.5 9.7.5 19.3.7 29 .5v32c-11 .2-22 0-33-.5-9-1.6-17.6-4.1-26-7.5a162.9 162.9 0 0 1-34.5-30c-6.3-18.4.2-26.9 19.5-25.5l4 2a326 326 0 0 0 22 21c4.1 2.4 8.5 4.2 13 5.5Z" style="opacity:.991"/><path fill="#699f41" d="M68.5 399.5c8.4 3.4 17 5.9 26 7.5 11 .5 22 .7 33 .5v16c-9.7-.2-19.3 0-29 .5-1.4.4-2.7 1-4 1.5-1-.2-1.7.2-2 1a55.4 55.4 0 0 0-13 5.5 326 326 0 0 0-22 21c-8.7 4.2-16.6 3-23.5-3.5a21.3 21.3 0 0 1 0-20 162.9 162.9 0 0 1 34.5-30Z" style="opacity:.983"/><path fill="#f57828" d="M495.5 399.5c.2 4-.6 7.6-2.5 11a365 365 0 0 1-47.5 43.5 162.1 162.1 0 0 1-71 25c-23.7.5-47.3.7-71 .5.2-14.3 0-28.7-.5-43-3-4.8-7.3-6-12.5-3.5a7 7 0 0 0-2.5 3.5c-.5 14.3-.7 28.7-.5 43h-64c.2-14.3 0-28.7-.5-43-3-4.8-7.3-6-12.5-3.5a7 7 0 0 0-2.5 3.5c-.5 14.3-.7 28.7-.5 43h-48c-.2-23 0-46 .5-69 2.2-4.8 5.7-8.3 10.5-10.5 108.3-.5 216.7-.7 325-.5Z" style="opacity:1"/><path fill="#4b8c41" d="M127.5 423.5v25c-4-.2-7.6.6-11 2.5A63.2 63.2 0 0 0 97 473.5c-.5 19.2-9.6 25.7-27.5 19.5-2.6-2-4.4-4.4-5.5-7.5a53 53 0 0 1 11-41c6-5.9 11.9-11.9 17.5-18 1 .2 1.7-.2 2-1 1.3-.6 2.6-1 4-1.5 9.7-.5 19.3-.7 29-.5Z" style="opacity:.982"/><path fill="#d65a0a" d="M223.5 479.5h-16c-.2-14.3 0-28.7.5-43a7 7 0 0 1 2.5-3.5c5.2-2.5 9.4-1.3 12.5 3.5.5 14.3.7 28.7.5 43ZM303.5 479.5h-16c-.2-14.3 0-28.7.5-43a7 7 0 0 1 2.5-3.5c5.2-2.5 9.4-1.3 12.5 3.5.5 14.3.7 28.7.5 43Z" style="opacity:1"/></svg>